/* XPM */
static char * linux_xpm[] = {
"48 20 95 2",
"  	c None",
". 	c #929FB2",
"+ 	c #7F8C9F",
"@ 	c #798699",
"# 	c #7E8B9E",
"$ 	c #8A97AA",
"% 	c #7D8A9D",
"& 	c #808DA0",
"* 	c #8794A7",
"= 	c #7C899C",
"- 	c #7B889B",
"; 	c #758295",
"> 	c #717E91",
", 	c #697689",
"' 	c #616E81",
") 	c #586578",
"! 	c #525F72",
"~ 	c #4B586B",
"{ 	c #485568",
"] 	c #475467",
"^ 	c #495669",
"/ 	c #455265",
"( 	c #465366",
"_ 	c #536073",
": 	c #4E5B6E",
"< 	c #4D5A6D",
"[ 	c #687588",
"} 	c #7A879A",
"| 	c #8C99AC",
"1 	c #657285",
"2 	c #778497",
"3 	c #738093",
"4 	c #727F92",
"5 	c #98A5B8",
"6 	c #8491A4",
"7 	c #818EA1",
"8 	c #8D9AAD",
"9 	c #788598",
"0 	c #6F7C8F",
"a 	c #667386",
"b 	c #5E6B7E",
"c 	c #5A677A",
"d 	c #404D60",
"e 	c #435063",
"f 	c #677487",
"g 	c #6B788B",
"h 	c #768396",
"i 	c #8895A8",
"j 	c #828FA2",
"k 	c #8390A3",
"l 	c #707D90",
"m 	c #6A778A",
"n 	c #637083",
"o 	c #5D6A7D",
"p 	c #596679",
"q 	c #515E71",
"r 	c #394659",
"s 	c #546174",
"t 	c #556275",
"u 	c #6C798C",
"v 	c #748194",
"w 	c #576477",
"x 	c #6E7B8E",
"y 	c #5B687B",
"z 	c #566376",
"A 	c #4C596C",
"B 	c #414E61",
"C 	c #3A475A",
"D 	c #445164",
"E 	c #5F6C7F",
"F 	c #647184",
"G 	c #505D70",
"H 	c #4F5C6F",
"I 	c #4A576A",
"J 	c #5C697C",
"K 	c #626F82",
"L 	c #6D7A8D",
"M 	c #424F62",
"N 	c #606D80",
"O 	c #384558",
"P 	c #3F4C5F",
"Q 	c #374457",
"R 	c #8693A6",
"S 	c #8996A9",
"T 	c #3D4A5D",
"U 	c #344154",
"V 	c #354255",
"W 	c #8592A5",
"X 	c #3E4B5E",
"Y 	c #334053",
"Z 	c #364356",
"` 	c #3C495C",
" .	c #1F2C3F",
"..	c #313E51",
"+.	c #8B98AB",
". + @ # $ % & * # = = - # - ; > , ' ) ! ~ { ] ^ / ( _ : < [ } - % | 1 2 ; 3 4 4 4 4 4 4 4 4 4 4 ",
"5 6 @ 7 | 2 # 8 # - = = % - 9 3 0 a b c ! : < ^ d e ! < : f = % + 4 g h 3 4 4 4 4 4 4 4 4 4 4 4 ",
"6 i = & 8 > > | & j k j + - h l m n o p q < ^ e r { s < t u # + % c v 4 4 4 4 4 4 4 4 4 4 4 4 4 ",
"w 3 - @ * 1 p $ > ; j j 9 x ' y c z A ^ ] { B C D z p s E 4 # # n a 3 4 4 4 4 4 4 4 4 4 4 4 4 4 ",
"F G c c : < G 7 ] / v m H / ( I ] ~ s w y b E ! < ' z J K h & x ~ l 4 4 4 4 4 4 4 4 4 4 4 4 4 4 ",
"% L { G M { s p e ( G : w I o ' o c ' ' ' n o { z ' o z n = l e p 3 4 4 4 4 4 4 4 4 4 4 4 4 4 4 ",
"% v z N p z ) H ! t G N t c K ' ' n ' ' E _ s A _ b E J u % { e [ 4 4 4 4 4 4 3 4 4 4 4 4 4 4 4 ",
"% 0 ~ y , b F ' c ' E b s N K E J c N ' N ! { O p J b m % _ B ^ 0 4 4 4 4 4 3 0 L 4 4 4 4 4 4 4 ",
"% a H M N s y + % 2 = x [ ' { P z Q n K 1 n b c ' E c @ E P e : 4 4 4 4 4 4 2 _ < 4 4 4 4 4 4 4 ",
"= ' t D 4 b A 4 i R * S * n P P ) [ ; 1 m g f n o ) 1 f T D e N 4 4 4 4 4 v a U V a 3 4 4 4 4 4 ",
"v K : M h K ) F W 6 W * S j N ) a # m g m , f n ) E ' X D D I 0 4 4 4 4 4 > / U Y X x 3 4 4 4 4 ",
"2 E / B g k - f k 6 W W * j + k * > , , f [ F c N ' / ] ] ( n 4 4 4 4 4 4 1 Q V Y U o 3 v 4 4 4 ",
"% - K d n R 6 F } W W R W j 7 k + g [ f f N ) s G { ~ I { s 4 4 4 4 4 4 > { r r Z Z / L v 3 4 4 ",
"% % } / y 7 j ' @ W k W W W R * % , , F w A A ~ A q : < G 0 4 4 4 4 4 4 v 9 9 9 9 2 ; v v 3 4 4 ",
"% % 9 X c N - N E > k R W W R R = m J { d ( ^ ~ H q q s u 3 4 4 4 4 4 4 v h h h h ; v 3 3 3 4 4 ",
"% % = J I e t n y F W i R W W R # , J E N c c b K 1 , 0 v 4 4 4 4 4 4 3 3 v v v v 3 3 3 3 4 4 4 ",
"% % % h ! Q ` D y a h W * W 6 k % , , m , g h v 3 3 3 3 4 4 4 4 4 4 4 3 4 3 3 3 3 3 3 3 4 4 4 4 ",
"% % % % ; ~  ...c q p y E j R 6 ; f [ a g ; 4 4 4 4 4 4 4 4 4 4 4 4 4 4 4 4 4 4 4 4 4 4 4 4 4 4 ",
"% % % % % } f , % m o s ' +.| W m f a L v 4 4 4 4 4 4 4 4 4 4 4 4 4 4 4 4 4 4 4 4 4 4 4 4 4 4 4 ",
"% % % % % % % % % % % } l u v , K f 2 v 4 4 4 4 4 4 4 4 4 4 4 4 4 4 4 4 4 4 4 4 4 4 4 4 4 4 4 4 "};
