/* XPM */
static char * bg_xpm[] = {
"4 4 3 1",
" 	c None",
".	c #260977",
"+	c #101820",
"....",
".+++",
".+++",
".+++"};
