/* XPM */
static char * closeA_xpm[] = {
"15 34 70 1",
" 	c None",
".	c #969696",
"+	c #979797",
"@	c #939393",
"#	c #949494",
"$	c #909090",
"%	c #919191",
"&	c #8D8D8D",
"*	c #8E8E8E",
"=	c #8A8A8A",
"-	c #8B8B8B",
";	c #000000",
">	c #878787",
",	c #888888",
"'	c #848484",
")	c #858585",
"!	c #818181",
"~	c #828282",
"{	c #7E7E7E",
"]	c #7F7F7F",
"^	c #7B7B7B",
"/	c #7C7C7C",
"(	c #787878",
"_	c #797979",
":	c #757575",
"<	c #767676",
"[	c #727272",
"}	c #737373",
"|	c #6F6F6F",
"1	c #707070",
"2	c #6C6C6C",
"3	c #6D6D6D",
"4	c #4E4E4E",
"5	c #4F4F4F",
"6	c #0B0B0B",
"7	c #171717",
"8	c #222222",
"9	c #2E2E2E",
"0	c #393939",
"a	c #454545",
"b	c #505050",
"c	c #5C5C5C",
"d	c #676767",
"e	c #161616",
"f	c #898989",
"g	c #202020",
"h	c #2B2B2B",
"i	c #9E9E9E",
"j	c #353535",
"k	c #A9A9A9",
"l	c #404040",
"m	c #B3B3B3",
"n	c #4B4B4B",
"o	c #BEBEBE",
"p	c #555555",
"q	c #C9C9C9",
"r	c #606060",
"s	c #D3D3D3",
"t	c #6A6A6A",
"u	c #DEDEDE",
"v	c #808080",
"w	c #8C8C8C",
"x	c #989898",
"y	c #A3A3A3",
"z	c #AFAFAF",
"A	c #BABABA",
"B	c #C6C6C6",
"C	c #D1D1D1",
"D	c #DDDDDD",
"E	c #E8E8E8",
"..++++++++++...",
"@@##########@@@",
"$$%%%%%%%%%%$$$",
"&&**********&&&",
"==--;-----;-===",
">>,,,;,,,;,,>>>",
"'')))););)))'''",
"!!~~~~~;~~~~!!!",
"{{]]]];];]]]{{{",
"^^///;///;//^^^",
"((__;_____;_(((",
"::<<<<<<<<<<:::",
"[[}}}}}}}}}}[[[",
"||1111111111|||",
"223333333333222",
"445555555555444",
";;;;;;;;;;;;;;;",
"..++++++++++...",
"@@##########@@@",
"$$67890abcd}]$$",
"&&e*********f&&",
"==g-;-----;-#==",
">>h,,;,,,;,,i>>",
"''j))););)))k''",
"!!l~~~~;~~~~m!!",
"{{n]]];];]]]o{{",
"^^p//;///;//q^^",
"((r_;_____;_s((",
"::t<<<<<<<<<u::",
"[[:vwxyzABCDE[[",
"||1111111111|||",
"223333333333222",
"445555555555444",
";;;;;;;;;;;;;;;"};
