/* XPM */
static char * closeI_xpm[] = {
"15 34 65 1",
" 	c None",
".	c #737373",
"+	c #707070",
"@	c #717171",
"#	c #6E6E6E",
"$	c #6F6F6F",
"%	c #6C6C6C",
"&	c #6D6D6D",
"*	c #6A6A6A",
"=	c #000000",
"-	c #676767",
";	c #686868",
">	c #656565",
",	c #666666",
"'	c #636363",
")	c #606060",
"!	c #616161",
"~	c #5E5E5E",
"{	c #5F5F5F",
"]	c #5C5C5C",
"^	c #5D5D5D",
"/	c #595959",
"(	c #5A5A5A",
"_	c #575757",
":	c #585858",
"<	c #555555",
"[	c #565656",
"}	c #535353",
"|	c #3C3C3C",
"1	c #080808",
"2	c #121212",
"3	c #1A1A1A",
"4	c #232323",
"5	c #2C2C2C",
"6	c #353535",
"7	c #3D3D3D",
"8	c #464646",
"9	c #4F4F4F",
"0	c #111111",
"a	c #696969",
"b	c #181818",
"c	c #212121",
"d	c #797979",
"e	c #292929",
"f	c #818181",
"g	c #313131",
"h	c #898989",
"i	c #393939",
"j	c #919191",
"k	c #414141",
"l	c #9A9A9A",
"m	c #494949",
"n	c #A1A1A1",
"o	c #515151",
"p	c #AAAAAA",
"q	c #626262",
"r	c #6B6B6B",
"s	c #747474",
"t	c #7D7D7D",
"u	c #868686",
"v	c #8E8E8E",
"w	c #979797",
"x	c #A0A0A0",
"y	c #A9A9A9",
"z	c #B1B1B1",
"...............",
"++@@@@@@@@@@+++",
"##$$$$$$$$$$###",
"%%&&&&&&&&&&%%%",
"****=*****=****",
"--;;;=;;;=;;---",
">>,,,,=,=,,,>>>",
"'''''''='''''''",
"))!!!!=!=!!!)))",
"~~{{{={{{={{~~~",
"]]^^=^^^^^=^]]]",
"//((((((((((///",
"__::::::::::___",
"<<[[[[[[[[[[<<<",
"}}}}}}}}}}}}}}}",
"|||||||||||||||",
"===============",
"...............",
"++@@@@@@@@@@+++",
"##123456789:!##",
"%%0&&&&&&&&&a%%",
"**b*=*****=*@**",
"--c;;=;;;=;;d--",
">>e,,,=,=,,,f>>",
"''g''''=''''h''",
"))i!!!=!=!!!j))",
"~~k{{={{{={{l~~",
"]]m^=^^^^^=^n]]",
"//o(((((((((p//",
"__/qrstuvwxyz__",
"<<[[[[[[[[[[<<<",
"}}}}}}}}}}}}}}}",
"|||||||||||||||",
"==============="};
