/* XPM */
static char * frameATR_xpm[] = {
"24 24 12 1",
" 	c None",
".	c #000000",
"+	c #E7E7E7",
"@	c #C0C0C0",
"#	c #808080",
"$	c #606060",
"%	c #999999",
"&	c #666666",
"*	c #4C4C4C",
"=	c #555555",
"-	c #393939",
";	c #2A2A2A",
"........................",
".++++++++++++++++++++++.",
".@####################$.",
".%&&&&&&&&&&&&&&&&&&&&*.",
".=--------------------;.",
"........................",
"                        ",
"                        ",
"                        ",
"                        ",
"                        ",
"                        ",
"                        ",
"                        ",
"                        ",
"                        ",
"                        ",
"                        ",
"                        ",
"                        ",
"                        ",
"                        ",
"                        ",
"                        "};
