/* XPM */
static char * frameAB_xpm[] = {
"1 6 6 1",
" 	c None",
".	c #000000",
"+	c #FFFFFF",
"@	c #B3B3B3",
"#	c #999999",
"$	c #5E5E5E",
".",
"+",
"@",
"#",
"$",
"."};
