/* XPM */
static char * maximizeA_xpm[] = {
"15 34 74 1",
" 	c None",
".	c #969696",
"+	c #999999",
"@	c #989898",
"#	c #939393",
"$	c #959595",
"%	c #909090",
"&	c #929292",
"*	c #8D8D8D",
"=	c #8F8F8F",
"-	c #8A8A8A",
";	c #000000",
">	c #8C8C8C",
",	c #878787",
"'	c #898989",
")	c #848484",
"!	c #868686",
"~	c #818181",
"{	c #838383",
"]	c #7E7E7E",
"^	c #808080",
"/	c #7B7B7B",
"(	c #7D7D7D",
"_	c #787878",
":	c #7A7A7A",
"<	c #757575",
"[	c #777777",
"}	c #727272",
"|	c #747474",
"1	c #6F6F6F",
"2	c #717171",
"3	c #6C6C6C",
"4	c #6E6E6E",
"5	c #4E4E4E",
"6	c #515151",
"7	c #4F4F4F",
"8	c #979797",
"9	c #949494",
"0	c #0B0B0B",
"a	c #171717",
"b	c #222222",
"c	c #2E2E2E",
"d	c #393939",
"e	c #454545",
"f	c #505050",
"g	c #5C5C5C",
"h	c #676767",
"i	c #737373",
"j	c #7F7F7F",
"k	c #161616",
"l	c #202020",
"m	c #2B2B2B",
"n	c #9E9E9E",
"o	c #353535",
"p	c #A9A9A9",
"q	c #404040",
"r	c #B3B3B3",
"s	c #4B4B4B",
"t	c #BEBEBE",
"u	c #555555",
"v	c #C9C9C9",
"w	c #606060",
"x	c #D3D3D3",
"y	c #6A6A6A",
"z	c #DEDEDE",
"A	c #A3A3A3",
"B	c #AFAFAF",
"C	c #BABABA",
"D	c #C6C6C6",
"E	c #D1D1D1",
"F	c #DDDDDD",
"G	c #E8E8E8",
"H	c #707070",
"I	c #6D6D6D",
".+++++@@@@@@@..",
"#.....$$$$$$$##",
"%#####&&&&&&&%%",
"*%%%%%=======**",
"-***;;;;;;;>>--",
",---;;;;;;;'',,",
"),,,;,!!!!;!!))",
"~)));){{{{;{{~~",
"]~~~;~^^^^;^^]]",
"/]]];]((((;((//",
"_///;;;;;;;::__",
"<_____[[[[[[[<<",
"}<<<<<|||||||}}",
"1}}}}}222222211",
"311111444444433",
"566666777777755",
";;;;;;;;;;;;;;;",
"..8888888888...",
"##9999999999###",
"%%0abcdefghij%%",
"**k%%%======'**",
"--l*;;;;;;;>9--",
",,m-;;;;;;;'n,,",
"))o,;,!!!!;!p))",
"~~q);){{{{;{r~~",
"]]s~;~^^^^;^t]]",
"//u];]((((;(v//",
"__w/;;;;;;;:x__",
"<<y___[[[[[[z<<",
"}}<^>@ABCDEFG}}",
"11HHHHHHHHHH111",
"33IIIIIIIIII333",
"557777777777555",
";;;;;;;;;;;;;;;"};
