/* XPM */
static char * maximizeI_xpm[] = {
"15 34 67 1",
" 	c None",
".	c #737373",
"+	c #757575",
"@	c #747474",
"#	c #707070",
"$	c #727272",
"%	c #6E6E6E",
"&	c #6C6C6C",
"*	c #6D6D6D",
"=	c #6A6A6A",
"-	c #000000",
";	c #6B6B6B",
">	c #676767",
",	c #696969",
"'	c #656565",
")	c #666666",
"!	c #636363",
"~	c #646464",
"{	c #606060",
"]	c #626262",
"^	c #5E5E5E",
"/	c #5C5C5C",
"(	c #5D5D5D",
"_	c #595959",
":	c #5B5B5B",
"<	c #575757",
"[	c #555555",
"}	c #565656",
"|	c #535353",
"1	c #545454",
"2	c #3C3C3C",
"3	c #3E3E3E",
"4	c #717171",
"5	c #080808",
"6	c #121212",
"7	c #1A1A1A",
"8	c #232323",
"9	c #2C2C2C",
"0	c #353535",
"a	c #3D3D3D",
"b	c #464646",
"c	c #4F4F4F",
"d	c #585858",
"e	c #616161",
"f	c #111111",
"g	c #181818",
"h	c #212121",
"i	c #797979",
"j	c #292929",
"k	c #818181",
"l	c #313131",
"m	c #898989",
"n	c #393939",
"o	c #919191",
"p	c #414141",
"q	c #9A9A9A",
"r	c #494949",
"s	c #A1A1A1",
"t	c #515151",
"u	c #AAAAAA",
"v	c #7D7D7D",
"w	c #868686",
"x	c #8E8E8E",
"y	c #979797",
"z	c #A0A0A0",
"A	c #A9A9A9",
"B	c #B1B1B1",
".+++++@@@@@@@..",
"#.....$$$$$$$##",
"%############%%",
"&%%%%%*******&&",
"=&&&-------;;==",
">===-------,,>>",
"'>>>->))))-))''",
"!'''-'~~~~-~~!!",
"{!!!-!]]]]-]]{{",
"^{{{-{{{{{-{{^^",
"/^^^-------((//",
"_/////:::::::__",
"<____________<<",
"[<<<<<}}}}}}}[[",
"|[[[[[1111111||",
"233333222222222",
"---------------",
"...............",
"##4444444444###",
"%%567890abcde%%",
"&&f%%%******,&&",
"==g&-------;4==",
">>h=-------,i>>",
"''j>->))))-)k''",
"!!l'-'~~~~-~m!!",
"{{n!-!]]]]-]o{{",
"^^p{-{{{{{-{q^^",
"//r^-------(s//",
"__t///::::::u__",
"<<_];@vwxyzAB<<",
"[[}}}}}}}}}}[[[",
"|||||||||||||||",
"222222222222222",
"---------------"};
