/* XPM */
static char * menuButtonA_xpm[] = {
"17 34 100 2",
"  	c None",
". 	c #989898",
"+ 	c #B4B4B4",
"@ 	c #959595",
"# 	c #0C152F",
"$ 	c #0D1630",
"% 	c #929292",
"& 	c #121E41",
"* 	c #0D1631",
"= 	c #8F8F8F",
"- 	c #172752",
"; 	c #172754",
"> 	c #8C8C8C",
", 	c #1C2F63",
"' 	c #121C3D",
") 	c #898989",
"! 	c #213874",
"~ 	c #1D3067",
"{ 	c #868686",
"] 	c #274186",
"^ 	c #15224B",
"/ 	c #838383",
"( 	c #2C4A97",
"_ 	c #22397A",
": 	c #808080",
"< 	c #000000",
"[ 	c #3152A8",
"} 	c #192858",
"| 	c #7D7D7D",
"1 	c #365BB9",
"2 	c #28428E",
"3 	c #7A7A7A",
"4 	c #3C63CB",
"5 	c #1C2E64",
"6 	c #777777",
"7 	c #416CDC",
"8 	c #2E4BA2",
"9 	c #747474",
"0 	c #4675ED",
"a 	c #213472",
"b 	c #717171",
"c 	c #4C7EFF",
"d 	c #6E6E6E",
"e 	c #8A8A8A",
"f 	c #4E4E4E",
"g 	c #515151",
"h 	c #4F4F4F",
"i 	c #646464",
"j 	c #969696",
"k 	c #979797",
"l 	c #939393",
"m 	c #949494",
"n 	c #909090",
"o 	c #0B0B0B",
"p 	c #171717",
"q 	c #222222",
"r 	c #2E2E2E",
"s 	c #393939",
"t 	c #454545",
"u 	c #505050",
"v 	c #5C5C5C",
"w 	c #676767",
"x 	c #737373",
"y 	c #7F7F7F",
"z 	c #8D8D8D",
"A 	c #161616",
"B 	c #202020",
"C 	c #878787",
"D 	c #2B2B2B",
"E 	c #9E9E9E",
"F 	c #848484",
"G 	c #353535",
"H 	c #A9A9A9",
"I 	c #818181",
"J 	c #404040",
"K 	c #B3B3B3",
"L 	c #7E7E7E",
"M 	c #4B4B4B",
"N 	c #BEBEBE",
"O 	c #7B7B7B",
"P 	c #555555",
"Q 	c #C9C9C9",
"R 	c #787878",
"S 	c #606060",
"T 	c #D3D3D3",
"U 	c #757575",
"V 	c #6A6A6A",
"W 	c #DEDEDE",
"X 	c #727272",
"Y 	c #A3A3A3",
"Z 	c #AFAFAF",
"` 	c #BABABA",
" .	c #C6C6C6",
"..	c #D1D1D1",
"+.	c #DDDDDD",
"@.	c #E8E8E8",
"#.	c #6F6F6F",
"$.	c #707070",
"%.	c #6C6C6C",
"&.	c #6D6D6D",
". . . . . . . . . . . . . . . + + ",
"@ @ @ @ @ @ @ @ @ @ @ @ @ @ @ # $ ",
"% % % % % % % % % % % % % % % & * ",
"= = = = = = = = = = = = = = = - ; ",
"> > > > > > > > > > > > > > > , ' ",
") ) ) ) ) ) ) ) ) ) ) ) ) ) ) ! ~ ",
"{ { { { { { { { { { { { { { { ] ^ ",
"/ / / / / / / / / / / / / / / ( _ ",
": : : : < < < < < < < : : : : [ } ",
"| | | | < | | | | | < | | | | 1 2 ",
"3 3 3 3 < < < < < < < 3 3 3 3 4 5 ",
"6 6 6 6 6 6 6 6 6 6 6 6 6 6 6 7 8 ",
"9 9 9 9 9 9 9 9 9 9 9 9 9 9 9 0 a ",
"b b b b b b b b b b b b b b b c c ",
"d d d d d d d d d d d d d d d e e ",
"f g g g g g h h h h h h h f f i i ",
"< < < < < < < < < < < < < < < < < ",
"j j k k k k k k k k k k j j j + + ",
"l l m m m m m m m m m m l l l # $ ",
"n n o p q r s t u v w x y n n & * ",
"z z A n n n = = = = = = ) z z - ; ",
"e e B > > > > > > > > > m e e , ' ",
"C C D ) ) ) ) ) ) ) ) ) E C C ! ~ ",
"F F G { { { { { { { { { H F F ] ^ ",
"I I J / / / / / / / / / K I I ( _ ",
"L L M : < < < < < < < : N L L [ } ",
"O O P | < | | | | | < | Q O O 1 2 ",
"R R S 3 < < < < < < < 3 T R R 4 5 ",
"U U V 6 6 6 6 6 6 6 6 6 W U U 7 8 ",
"X X U : > . Y Z `  ...+.@.X X 0 a ",
"#.#.$.$.$.$.$.$.$.$.$.$.#.#.#.c c ",
"%.%.&.&.&.&.&.&.&.&.&.&.%.%.%.e e ",
"f f h h h h h h h h h h f f f i i ",
"< < < < < < < < < < < < < < < < < "};
