/* XPM */
static char * menuButtonI_xpm[] = {
"17 34 81 1",
" 	c None",
".	c #747474",
"+	c #6D6D6D",
"@	c #727272",
"#	c #03040C",
"$	c #707070",
"%	c #04060F",
"&	c #070D1D",
"*	c #6B6B6B",
"=	c #060A16",
"-	c #696969",
";	c #0B1328",
">	c #666666",
",	c #090D1F",
"'	c #646464",
")	c #0E1834",
"!	c #626262",
"~	c #000000",
"{	c #0A1227",
"]	c #606060",
"^	c #121E41",
"/	c #5D5D5D",
"(	c #0D152E",
"_	c #5B5B5B",
":	c #15244D",
"<	c #595959",
"[	c #0F1937",
"}	c #565656",
"|	c #243C84",
"1	c #545454",
"2	c #4D4D4D",
"3	c #3C3C3C",
"4	c #3E3E3E",
"5	c #383838",
"6	c #737373",
"7	c #717171",
"8	c #6E6E6E",
"9	c #080808",
"0	c #121212",
"a	c #1A1A1A",
"b	c #232323",
"c	c #2C2C2C",
"d	c #353535",
"e	c #3D3D3D",
"f	c #464646",
"g	c #4F4F4F",
"h	c #585858",
"i	c #616161",
"j	c #6C6C6C",
"k	c #111111",
"l	c #6A6A6A",
"m	c #181818",
"n	c #676767",
"o	c #212121",
"p	c #797979",
"q	c #656565",
"r	c #292929",
"s	c #818181",
"t	c #636363",
"u	c #313131",
"v	c #898989",
"w	c #393939",
"x	c #919191",
"y	c #5E5E5E",
"z	c #414141",
"A	c #9A9A9A",
"B	c #5C5C5C",
"C	c #494949",
"D	c #A1A1A1",
"E	c #515151",
"F	c #AAAAAA",
"G	c #575757",
"H	c #7D7D7D",
"I	c #868686",
"J	c #8E8E8E",
"K	c #979797",
"L	c #A0A0A0",
"M	c #A9A9A9",
"N	c #B1B1B1",
"O	c #555555",
"P	c #535353",
"...............++",
"@@@@@@@@@@@@@@@##",
"$$$$$$$$$$$$$$$%%",
"+++++++++++++++&&",
"***************==",
"---------------;;",
">>>>>>>>>>>>>>>,,",
"'''''''''''''''))",
"!!!!~~~~~~~!!!!{{",
"]]]]~]]]]]~]]]]^^",
"////~~~~~~~////((",
"_______________::",
"<<<<<<<<<<<<<<<[[",
"}}}}}}}}}}}}}}}||",
"11111111111111122",
"34444433333333355",
"~~~~~~~~~~~~~~~~~",
"666666666666666++",
"$$7777777777$$$##",
"8890abcdefghi88%%",
"jjk888++++++-jj&&",
"llm*********7ll==",
"nno---------pnn;;",
"qqr>>>>>>>>>sqq,,",
"ttu'''''''''vtt))",
"]]w!~~~~~~~!x]]{{",
"yyz]~]]]]]~]Ayy^^",
"BBC/~~~~~~~/DBB((",
"<<E_________F<<::",
"GG<!*.HIJKLMNGG[[",
"OO}}}}}}}}}}OOO||",
"PPPPPPPPPPPPPPP22",
"33333333333333355",
"~~~~~~~~~~~~~~~~~"};
