/* XPM */
static char * switchbg_xpm[] = {
"100 50 36 1",
" 	c None",
".	c #000000",
"+	c #18275A",
"@	c #19285B",
"#	c #19295C",
"$	c #1A2A5F",
"%	c #1B2B61",
"&	c #1B2C63",
"*	c #1C2D65",
"=	c #1D2E68",
"-	c #1D2F69",
";	c #1E306C",
">	c #1E316D",
",	c #1F3270",
"'	c #1F3372",
")	c #203574",
"!	c #213576",
"~	c #223779",
"{	c #22377A",
"]	c #23397D",
"^	c #23397E",
"/	c #243B81",
"(	c #243B82",
"_	c #253D85",
":	c #263D87",
"<	c #263F89",
"[	c #27408B",
"}	c #28418E",
"|	c #28428F",
"1	c #294392",
"2	c #294493",
"3	c #2A4596",
"4	c #2B4698",
"5	c #2B479A",
"6	c #2C489C",
"7	c #2D499F",
"...................................................................................................+",
"@@@@@@@@@@@@@@@@@@@@@@@@@@@@@@@@@@@@@@@@@@@@@@@@@@@@@@@@@@@@@@@@@@@@@@@@@@@@@@@@@@@@@@@@@@@@@@@@@@@@",
"####################################################################################################",
"....................................................................................................",
"$$$$$$$$$$$$$$$$$$$$$$$$$$$$$$$$$$$$$$$$$$$$$$$$$$$$$$$$$$$$$$$$$$$$$$$$$$$$$$$$$$$$$$$$$$$$$$$$$$$$",
"%%%%%%%%%%%%%%%%%%%%%%%%%%%%%%%%%%%%%%%%%%%%%%%%%%%%%%%%%%%%%%%%%%%%%%%%%%%%%%%%%%%%%%%%%%%%%%%%%%%%",
"....................................................................................................",
"&&&&&&&&&&&&&&&&&&&&&&&&&&&&&&&&&&&&&&&&&&&&&&&&&&&&&&&&&&&&&&&&&&&&&&&&&&&&&&&&&&&&&&&&&&&&&&&&&&&&",
"****************************************************************************************************",
"....................................................................................................",
"====================================================================================================",
"----------------------------------------------------------------------------------------------------",
"....................................................................................................",
";;;;;;;;;;;;;;;;;;;;;;;;;;;;;;;;;;;;;;;;;;;;;;;;;;;;;;;;;;;;;;;;;;;;;;;;;;;;;;;;;;;;;;;;;;;;;;;;;;;;",
">>>>>>>>>>>>>>>>>>>>>>>>>>>>>>>>>>>>>>>>>>>>>>>>>>>>>>>>>>>>>>>>>>>>>>>>>>>>>>>>>>>>>>>>>>>>>>>>>>>>",
"....................................................................................................",
",,,,,,,,,,,,,,,,,,,,,,,,,,,,,,,,,,,,,,,,,,,,,,,,,,,,,,,,,,,,,,,,,,,,,,,,,,,,,,,,,,,,,,,,,,,,,,,,,,,,",
"''''''''''''''''''''''''''''''''''''''''''''''''''''''''''''''''''''''''''''''''''''''''''''''''''''",
"....................................................................................................",
"))))))))))))))))))))))))))))))))))))))))))))))))))))))))))))))))))))))))))))))))))))))))))))))))))))",
"!!!!!!!!!!!!!!!!!!!!!!!!!!!!!!!!!!!!!!!!!!!!!!!!!!!!!!!!!!!!!!!!!!!!!!!!!!!!!!!!!!!!!!!!!!!!!!!!!!!!",
"....................................................................................................",
"~~~~~~~~~~~~~~~~~~~~~~~~~~~~~~~~~~~~~~~~~~~~~~~~~~~~~~~~~~~~~~~~~~~~~~~~~~~~~~~~~~~~~~~~~~~~~~~~~~~~",
"{{{{{{{{{{{{{{{{{{{{{{{{{{{{{{{{{{{{{{{{{{{{{{{{{{{{{{{{{{{{{{{{{{{{{{{{{{{{{{{{{{{{{{{{{{{{{{{{{{{{",
"....................................................................................................",
"]]]]]]]]]]]]]]]]]]]]]]]]]]]]]]]]]]]]]]]]]]]]]]]]]]]]]]]]]]]]]]]]]]]]]]]]]]]]]]]]]]]]]]]]]]]]]]]]]]]]",
"^^^^^^^^^^^^^^^^^^^^^^^^^^^^^^^^^^^^^^^^^^^^^^^^^^^^^^^^^^^^^^^^^^^^^^^^^^^^^^^^^^^^^^^^^^^^^^^^^^^^",
"....................................................................................................",
"////////////////////////////////////////////////////////////////////////////////////////////////////",
"((((((((((((((((((((((((((((((((((((((((((((((((((((((((((((((((((((((((((((((((((((((((((((((((((((",
"....................................................................................................",
"____________________________________________________________________________________________________",
"::::::::::::::::::::::::::::::::::::::::::::::::::::::::::::::::::::::::::::::::::::::::::::::::::::",
"....................................................................................................",
"<<<<<<<<<<<<<<<<<<<<<<<<<<<<<<<<<<<<<<<<<<<<<<<<<<<<<<<<<<<<<<<<<<<<<<<<<<<<<<<<<<<<<<<<<<<<<<<<<<<<",
"[[[[[[[[[[[[[[[[[[[[[[[[[[[[[[[[[[[[[[[[[[[[[[[[[[[[[[[[[[[[[[[[[[[[[[[[[[[[[[[[[[[[[[[[[[[[[[[[[[[[",
"....................................................................................................",
"}}}}}}}}}}}}}}}}}}}}}}}}}}}}}}}}}}}}}}}}}}}}}}}}}}}}}}}}}}}}}}}}}}}}}}}}}}}}}}}}}}}}}}}}}}}}}}}}}}}}",
"||||||||||||||||||||||||||||||||||||||||||||||||||||||||||||||||||||||||||||||||||||||||||||||||||||",
"....................................................................................................",
"1111111111111111111111111111111111111111111111111111111111111111111111111111111111111111111111111111",
"2222222222222222222222222222222222222222222222222222222222222222222222222222222222222222222222222222",
"....................................................................................................",
"3333333333333333333333333333333333333333333333333333333333333333333333333333333333333333333333333333",
"4444444444444444444444444444444444444444444444444444444444444444444444444444444444444444444444444444",
"....................................................................................................",
"5555555555555555555555555555555555555555555555555555555555555555555555555555555555555555555555555555",
"6666666666666666666666666666666666666666666666666666666666666666666666666666666666666666666666666666",
"....................................................................................................",
"7777777777777777777777777777777777777777777777777777777777777777777777777777777777777777777777777777"};
