/* XPM */
static char * titleIB_xpm[] = {
"1 17 18 1",
" 	c None",
".	c #8F8F8F",
"+	c #03040C",
"@	c #04060F",
"#	c #070D1D",
"$	c #060A16",
"%	c #0B1328",
"&	c #090D1F",
"*	c #0E1834",
"=	c #0A1227",
"-	c #121E41",
";	c #0D152E",
">	c #15244D",
",	c #0F1937",
"'	c #243C84",
")	c #656565",
"!	c #494949",
"~	c #000000",
".",
"+",
"@",
"#",
"$",
"%",
"&",
"*",
"=",
"-",
";",
">",
",",
"'",
")",
"!",
"~"};
