/* XPM */
static char * linux_xpm[] = {
"48 20 77 1",
" 	c None",
".	c #616161",
"+	c #5D5D5D",
"@	c #585858",
"#	c #4B4B4B",
"$	c #545454",
"%	c #4C4C4C",
"&	c #505050",
"*	c #4D4D4D",
"=	c #5A5A5A",
"-	c #777777",
";	c #4F4F4F",
">	c #A2A2A2",
",	c #CCCCCC",
"'	c #787878",
")	c #6A6A6A",
"!	c #868686",
"~	c #5C5C5C",
"{	c #474747",
"]	c #797979",
"^	c #6B6B6B",
"/	c #BDBDBD",
"(	c #434343",
"_	c #515151",
":	c #7A7A7A",
"<	c #6C6C6C",
"[	c #BEBEBE",
"}	c #A3A3A3",
"|	c #B0B0B0",
"1	c #3E3E3E",
"2	c #535353",
"3	c #888888",
"4	c #606060",
"5	c #7B7B7B",
"6	c #959595",
"7	c #6D6D6D",
"8	c #3A3A3A",
"9	c #A4A4A4",
"0	c #969696",
"a	c #7C7C7C",
"b	c #B1B1B1",
"c	c #898989",
"d	c #363636",
"e	c #565656",
"f	c #626262",
"g	c #7D7D7D",
"h	c #6F6F6F",
"i	c #313131",
"j	c #575757",
"k	c #A5A5A5",
"l	c #7E7E7E",
"m	c #8A8A8A",
"n	c #2D2D2D",
"o	c #646464",
"p	c #717171",
"q	c #989898",
"r	c #8B8B8B",
"s	c #B2B2B2",
"t	c #282828",
"u	c #A6A6A6",
"v	c #808080",
"w	c #8C8C8C",
"x	c #999999",
"y	c #737373",
"z	c #666666",
"A	c #242424",
"B	c #5B5B5B",
"C	c #8D8D8D",
"D	c #676767",
"E	c #BFBFBF",
"F	c #202020",
"G	c #1B1B1B",
"H	c #5E5E5E",
"I	c #171717",
"J	c #5F5F5F",
"K	c #131313",
"L	c #0E0E0E",
"................................................",
"++++++++++++++++++++++++++++++++++++++++++++++++",
"@@############################################@@",
"$$%%%%%%%%%%%%%%%%%%%%%%%%%%%%%%%%%%%%%%%%%%%%$$",
"&&**=-****************************************&&",
"##;;>,';;;;;;;;;;;;;>>>>;;');;!>>>>>>~;;;)>>>)##",
"{{&&]>+&&&&&&&&&&&&&^,,&&&,,&&&>!&>,,!&&&>/,]&{{",
"((___:____<:<____::__[,<_:,,:__[__}},|___|},:_((",
"1123,,224||5,625,3}[4},326[,624}22}5,,7253},5211",
"88$$9,$$0,.$,9$[0$$,0a,9$bc,[$ac$$9a0,0$b.9,a$88",
"ddee9,ee,9eefeg,b99,9f,[e,e[,f9fee9gh,,fbe9,gedd",
"iijjk,jj,kjjjjl,ljjjjjb,mkjk,m[jjjklj[,bljk,ljii",
"nn@@k,@@[,o@@@p,q@@@@@q,[r@l,sk@@@kl@r,,@@k,l@nn",
"tt==u,==v,svvs=u,wvwx=v,,y=z,,w===uv=z,u==u,v=tt",
"AABCuuuBBvuuxyBBxuuxDBB,,BBBE,yBBCEECBxyBu,,syAA",
"FF~~~~~~~~~~~~~~~~~~~~~~~~~~~~~~~~~~~~~~~~~~~~FF",
"GGHHHHHHHHHHHHHHHHHHHHHHHHHHHHHHHHHHHHHHHHHHHHGG",
"IIJJJJJJJJJJJJJJJJJJJJJJJJJJJJJJJJJJJJJJJJJJJJII",
"KKKKKKKKKKKKKKKKKKKKKKKKKKKKKKKKKKKKKKKKKKKKKKKK",
"LLLLLLLLLLLLLLLLLLLLLLLLLLLLLLLLLLLLLLLLLLLLLLLL"};
