/* XPM */
static char * frameATR_xpm[] = {
"15 15 23 1",
" 	c None",
".	c #000000",
"+	c #010202",
"@	c #49525E",
"#	c #4C5662",
"$	c #5F6C7B",
"%	c #040303",
"&	c #586371",
"*	c #707D8F",
"=	c #727F92",
"-	c #738194",
";	c #758295",
">	c #9FB2CB",
",	c #010102",
"'	c #525D6B",
")	c #758194",
"!	c #9FB1CA",
"~	c #A1B4CE",
"{	c #788499",
"]	c #999999",
"^	c #CCCCCC",
"/	c #FFFFFF",
"(	c #060607",
"..............+",
".@@@@@@@@@@@#$%",
".&*=--------;>,",
".'----------)!.",
".-~~~~~~~---{~.",
"]........@---~.",
"^^^^^^^^..@--~.",
"//////^^^.@--~.",
"......]^^.@--~.",
"//////.]^.@--~.",
"//////.]^.@--~.",
"//////.]^.@--~.",
"//////.]^.@--~.",
"//////.]^.-~~~(",
"//////.]^/....."};
