/* XPM */
static char * frameABR_xpm[] = {
"15 15 23 1",
" 	c None",
".	c #FFFFFF",
"+	c #000000",
"@	c #CCCCCC",
"#	c #999999",
"$	c #738194",
"%	c #525D6B",
"&	c #586371",
"*	c #49525E",
"=	c #A1B4CE",
"-	c #707D8F",
";	c #727F92",
">	c #788499",
",	c #758194",
"'	c #758295",
")	c #4C5662",
"!	c #9FB1CA",
"~	c #9FB2CB",
"{	c #5F6C7B",
"]	c #060607",
"^	c #010102",
"/	c #040303",
"(	c #010202",
"......+.@#+++++",
"......+.@+$%&*+",
"......+.@+=$-*+",
"......+.@+=$;*+",
"......+.@+=$$*+",
"......+.@+=$$*+",
"++++++#@@+=$$*+",
"######@@@+=$$*+",
"@@@@@@@@++=$$*+",
".++++++++*$$$*+",
"+$*******$$$$*+",
"+=$$$$$$$$$$$*+",
"+=$$$$$$$$>,')+",
"+==========!~{+",
"+]++++++++++^/("};
