/* XPM */
static char * frameABL_xpm[] = {
"15 15 23 1",
" 	c None",
".	c #000000",
"+	c #FFFFFF",
"@	c #CCCCCC",
"#	c #999999",
"$	c #060607",
"%	c #A1B4CE",
"&	c #738194",
"*	c #49525E",
"=	c #788499",
"-	c #9FB1CA",
";	c #758194",
">	c #525D6B",
",	c #010102",
"'	c #9FB2CB",
")	c #758295",
"!	c #727F92",
"~	c #707D8F",
"{	c #586371",
"]	c #040303",
"^	c #5F6C7B",
"/	c #4C5662",
"(	c #010202",
".....+@#.++++++",
"$%%%&.@#.++++++",
".%&&*.@#.++++++",
".%&&*.@#.++++++",
".%&&*.@#.++++++",
".%&&*.@#.++++++",
".%&&*.@@#......",
".%&&*.@@@++++++",
".%&&*..@@@@@@@@",
".%&&&*........#",
".%=&&&%%%%%%%&.",
".-;&&&&&&&&&&>.",
",')&&&&&&&&!~{.",
"]^/***********.",
"(.............."};
