/* XPM */
static char * frameATL_xpm[] = {
"15 15 24 1",
" 	c None",
".	c #000000",
"+	c #060608",
"@	c #040405",
"#	c #000101",
"$	c #9CB0C9",
"%	c #9DAFC9",
"&	c #9FB2CC",
"*	c #A0B3CD",
"=	c #A1B4CE",
"-	c #A0B3CE",
";	c #A0B4CE",
">	c #A1B4CD",
",	c #A1B3CE",
"'	c #A1B3CD",
")	c #738194",
"!	c #728094",
"~	c #49525E",
"{	c #758196",
"]	c #748296",
"^	c #FFFFFF",
"/	c #CCCCCC",
"(	c #999999",
"_	c #080A0B",
".+@............",
"#$%&*=-;>,*'>).",
".=!))))))))))~.",
".={))))))))))~.",
".=])))~~~~~~~~.",
".=)))~........^",
".=))~..////////",
".=))~.///((((((",
".=))~.//(......",
".=))~./(.^^^^^^",
".=))~./(.^^^^^^",
".=))~./(.^^^^^^",
".=))~./(.^^^^^^",
".)~~~./(.^^^^^^",
"._...^/(.^^^^^^"};
