/* XPM */
static char * frameABR_xpm[] = {
"15 15 26 1",
" 	c None",
".	c #FFFFFF",
"+	c #000000",
"@	c #CCCCCC",
"#	c #999999",
"$	c #A1B4CE",
"%	c #738194",
"&	c #49525E",
"*	c #4A525E",
"=	c #49525F",
"-	c #A0B3CD",
";	c #768599",
">	c #788699",
",	c #748295",
"'	c #768498",
")	c #49535F",
"!	c #738193",
"~	c #728092",
"{	c #727F93",
"]	c #4C5462",
"^	c #010001",
"/	c #728194",
"(	c #4E5763",
"_	c #050706",
":	c #0B0C0D",
"<	c #010101",
"......+.@#+++++",
"......+.@+$$$%+",
"......+.@+$%%&+",
"......+.@+$%%&+",
"......+.@+$%%&+",
"......+.@+$%%&+",
"++++++.@@+$%%*+",
"......@@@+$%%=+",
"@@@@@@@@++$%%=+",
"#++++++++-;%%&+",
"+$$$$$$$$>,',)+",
"+$%%%%%%%!~{%]^",
"+$%%%%%%%%%/%(_",
"+%&&&&&&&&&&&&:",
"+++++++++++++<+"};
