/* XPM */
static char * frameATR_xpm[] = {
"15 15 19 1",
" 	c None",
".	c #000000",
"+	c #A1B4CE",
"@	c #9DAFCA",
"#	c #9BAEC9",
"$	c #8393A5",
"%	c #748394",
"&	c #08080A",
"*	c #738194",
"=	c #758296",
"-	c #748396",
";	c #728093",
">	c #49515E",
",	c #49525D",
"'	c #49525E",
")	c #48525E",
"!	c #FFFFFF",
"~	c #CCCCCC",
"{	c #999999",
"...............",
".+++++++++@#$%&",
".+********=-;>.",
".+***********,.",
".*'''''''****).",
"!........'***'.",
"~~~~~~~~..+**'.",
"{{{{{{~~~.+**'.",
"......{~~.+**'.",
"!!!!!!.!~.+**'.",
"!!!!!!.!~.+**'.",
"!!!!!!.!~.+**'.",
"!!!!!!.!~.+**'.",
"!!!!!!.!~.*'''.",
"!!!!!!.!~{....."};
