/* XPM */
static char * a_xpm[] = {
"9 20 38 1",
" 	c None",
".	c #F4F4F4",
"+	c #F0F0F0",
"@	c #E9E9E9",
"#	c #E7E7E7",
"$	c #E4E4E4",
"%	c #B2B2B2",
"&	c #4E4E4E",
"*	c #A1A1A1",
"=	c #DFDFDF",
"-	c #6E6E6E",
";	c #DCDCDC",
">	c #BCBCBC",
",	c #8D8D8D",
"'	c #7D7D7D",
")	c #D9D9D9",
"!	c #6D6D6D",
"~	c #8C8C8C",
"{	c #D3D3D3",
"]	c #C4C4C4",
"^	c #5D5D5D",
"/	c #7A7A7A",
"(	c #CDCDCD",
"_	c #868686",
":	c #949494",
"<	c #C8C8C8",
"[	c #9F9F9F",
"}	c #BABABA",
"|	c #ADADAD",
"1	c #C3C3C3",
"2	c #BEBEBE",
"3	c #BDBDBD",
"4	c #B7B7B7",
"5	c #B1B1B1",
"6	c #ACACAC",
"7	c #A6A6A6",
"8	c #A0A0A0",
"9	c #9D9D9D",
".........",
"+++++++++",
"@@@@@@@@@",
"#########",
"$$$%&&*$$",
"===-&&-==",
";;>&,'&>;",
"))!&!!&~)",
"{]&^//&&{",
"(_&:((_&:",
"<[[<<<}[|",
"]1111]]]]",
"223332222",
"444444444",
"555555555",
"666666666",
"777777777",
"*8888****",
"999999999",
"999999999"};
