/* XPM */
static char * colon_xpm[] = {
"9 20 31 1",
" 	c None",
".	c #F4F4F4",
"+	c #F0F0F0",
"@	c #E9E9E9",
"#	c #E7E7E7",
"$	c #E4E4E4",
"%	c #DFDFDF",
"&	c #AEAEAE",
"*	c #CFCFCF",
"=	c #DCDCDC",
"-	c #4E4E4E",
";	c #ACACAC",
">	c #D9D9D9",
",	c #AAAAAA",
"'	c #D3D3D3",
")	c #A6A6A6",
"!	c #CDCDCD",
"~	c #C8C8C8",
"{	c #C4C4C4",
"]	c #C3C3C3",
"^	c #9C9C9C",
"/	c #BEBEBE",
"(	c #BDBDBD",
"_	c #737373",
":	c #B7B7B7",
"<	c #717171",
"[	c #B1B1B1",
"}	c #6F6F6F",
"|	c #A1A1A1",
"1	c #A0A0A0",
"2	c #9D9D9D",
".........",
"+++++++++",
"@@@@@@@@@",
"#########",
"$$$$$$$$$",
"%%%&&&*%%",
"===---;==",
">>>---,>>",
"'''---)''",
"!!!!!!!!!",
"~~~~~~~~~",
"{]]^^^,{{",
"//(---_//",
":::---<::",
"[[[---}[[",
";;;;;;;;;",
")))))))))",
"|1111||||",
"222222222",
"222222222"};
