/* XPM */
static char * dot_xpm[] = {
"9 20 32 1",
" 	c None",
".	c #F4F4F4",
"+	c #F0F0F0",
"@	c #E9E9E9",
"#	c #E7E7E7",
"$	c #E4E4E4",
"%	c #DFDFDF",
"&	c #DCDCDC",
"*	c #D9D9D9",
"=	c #D3D3D3",
"-	c #CDCDCD",
";	c #C8C8C8",
">	c #C4C4C4",
",	c #C3C3C3",
"'	c #A9A9A9",
")	c #9C9C9C",
"!	c #B7B7B7",
"~	c #BEBEBE",
"{	c #BDBDBD",
"]	c #737373",
"^	c #4E4E4E",
"/	c #989898",
"(	c #717171",
"_	c #949494",
":	c #B1B1B1",
"<	c #6F6F6F",
"[	c #909090",
"}	c #ACACAC",
"|	c #A6A6A6",
"1	c #A1A1A1",
"2	c #A0A0A0",
"3	c #9D9D9D",
".........",
"+++++++++",
"@@@@@@@@@",
"#########",
"$$$$$$$$$",
"%%%%%%%%%",
"&&&&&&&&&",
"*********",
"=========",
"---------",
";;;;;;;;;",
">,,'))!>>",
"~~{]^^/~~",
"!!!(^^_!!",
":::<^^[::",
"}}}}}}}}}",
"|||||||||",
"122221111",
"333333333",
"333333333"};
