/* XPM */
static char * m_xpm[] = {
"9 20 39 1",
" 	c None",
".	c #F4F4F4",
"+	c #F0F0F0",
"@	c #E9E9E9",
"#	c #E7E7E7",
"$	c #E4E4E4",
"%	c #4E4E4E",
"&	c #6F6F6F",
"*	c #B2B2B2",
"=	c #DFDFDF",
"-	c #7E7E7E",
";	c #AEAEAE",
">	c #DCDCDC",
",	c #ACACAC",
"'	c #5E5E5E",
")	c #D9D9D9",
"!	c #7C7C7C",
"~	c #6D6D6D",
"{	c #AAAAAA",
"]	c #D3D3D3",
"^	c #7A7A7A",
"/	c #A6A6A6",
"(	c #CDCDCD",
"_	c #787878",
":	c #949494",
"<	c #A2A2A2",
"[	c #C8C8C8",
"}	c #9F9F9F",
"|	c #ADADAD",
"1	c #BABABA",
"2	c #C4C4C4",
"3	c #C3C3C3",
"4	c #BEBEBE",
"5	c #BDBDBD",
"6	c #B7B7B7",
"7	c #B1B1B1",
"8	c #A1A1A1",
"9	c #A0A0A0",
"0	c #9D9D9D",
".........",
"+++++++++",
"@@@@@@@@@",
"#########",
"$%%&$*%%*",
"=%%%=-%%;",
">%%%,'%%,",
")%!%~%!%{",
"]%^^%%/%/",
"(%_:%_<%<",
"[}|1}11}1",
"233332222",
"445554444",
"666666666",
"777777777",
",,,,,,,,,",
"/////////",
"899998888",
"000000000",
"000000000"};
