/* XPM */
static char * n0_xpm[] = {
"14 20 57 1",
" 	c None",
".	c #F4F4F4",
"+	c #F0F0F0",
"@	c #E9E9E9",
"#	c #E7E7E7",
"$	c #D6D6D6",
"%	c #B4B4B4",
"&	c #818181",
"*	c #C5C5C5",
"=	c #E4E4E4",
"-	c #919191",
";	c #4E4E4E",
">	c #808080",
",	c #DFDFDF",
"'	c #8E8E8E",
")	c #7E7E7E",
"!	c #DCDCDC",
"~	c #CCCCCC",
"{	c #6D6D6D",
"]	c #ACACAC",
"^	c #BCBCBC",
"/	c #D9D9D9",
"(	c #8C8C8C",
"_	c #BABABA",
":	c #D3D3D3",
"<	c #7A7A7A",
"[	c #898989",
"}	c #CDCDCD",
"|	c #A2A2A2",
"1	c #C8C8C8",
"2	c #696969",
"3	c #9F9F9F",
"4	c #5B5B5B",
"5	c #C4C4C4",
"6	c #757575",
"7	c #C3C3C3",
"8	c #BEBEBE",
"9	c #989898",
"0	c #BDBDBD",
"a	c #5A5A5A",
"b	c #B7B7B7",
"c	c #595959",
"d	c #949494",
"e	c #717171",
"f	c #ABABAB",
"g	c #B1B1B1",
"h	c #909090",
"i	c #979797",
"j	c #636363",
"k	c #585858",
"l	c #A6A6A6",
"m	c #9C9C9C",
"n	c #888888",
"o	c #929292",
"p	c #A1A1A1",
"q	c #A0A0A0",
"r	c #9D9D9D",
"..............",
"++++++++++++++",
"@@@@@@@@@@@@@@",
"#####$%&%*####",
"====-;;;;;>===",
",,,';;;;;;;),,",
"!!~;;;{!];;;^!",
"//(;;;_//{;;(/",
"::<;;;:::[;;<:",
"}};;;;}}}|;;;}",
"112;;;1113;;41",
"556;;;7756;;65",
"88(;;;908a;;(8",
"bbbc;;cde;;;fb",
"gggh;;;;;;;hgg",
"]]]]ij;;;k(]]]",
"llllllmnolllll",
"ppqqqqqqpppppp",
"rrrrrrrrrrrrrr",
"rrrrrrrrrrrrrr"};
