/* XPM */
static char * n1_xpm[] = {
"14 20 39 1",
" 	c None",
".	c #F4F4F4",
"+	c #F0F0F0",
"@	c #E9E9E9",
"#	c #E7E7E7",
"$	c #B4B4B4",
"%	c #C5C5C5",
"&	c #E4E4E4",
"*	c #D3D3D3",
"=	c #6F6F6F",
"-	c #4E4E4E",
";	c #808080",
">	c #DFDFDF",
",	c #7E7E7E",
"'	c #DCDCDC",
")	c #7D7D7D",
"!	c #D9D9D9",
"~	c #7C7C7C",
"{	c #8C8C8C",
"]	c #C4C4C4",
"^	c #7A7A7A",
"/	c #CDCDCD",
"(	c #787878",
"_	c #C8C8C8",
":	c #767676",
"<	c #C3C3C3",
"[	c #757575",
"}	c #BEBEBE",
"|	c #BDBDBD",
"1	c #737373",
"2	c #B7B7B7",
"3	c #717171",
"4	c #B1B1B1",
"5	c #ACACAC",
"6	c #6D6D6D",
"7	c #A6A6A6",
"8	c #A1A1A1",
"9	c #A0A0A0",
"0	c #9D9D9D",
"..............",
"++++++++++++++",
"@@@@@@@@@@@@@@",
"######$$$%####",
"&&&&*=---;&&&&",
">>>>,----,>>>>",
"'''')----)''''",
"!!!!~{~--~!!!!",
"****]*^--^****",
"//////(--(////",
"______:--:____",
"]]<<<<[--[]]]]",
"}}}|||1--1}}}}",
"2222223--32222",
"444444=--=4444",
"5555556--65555",
"77777777777777",
"88999999888888",
"00000000000000",
"00000000000000"};
