/* XPM */
static char * n2_xpm[] = {
"14 20 50 1",
" 	c None",
".	c #F4F4F4",
"+	c #F0F0F0",
"@	c #E9E9E9",
"#	c #E7E7E7",
"$	c #D6D6D6",
"%	c #B4B4B4",
"&	c #929292",
"*	c #818181",
"=	c #E4E4E4",
"-	c #B2B2B2",
";	c #4E4E4E",
">	c #5F5F5F",
",	c #DFDFDF",
"'	c #AEAEAE",
")	c #5E5E5E",
"!	c #DCDCDC",
"~	c #ACACAC",
"{	c #CCCCCC",
"]	c #7D7D7D",
"^	c #D9D9D9",
"/	c #9B9B9B",
"(	c #D3D3D3",
"_	c #5D5D5D",
":	c #898989",
"<	c #CDCDCD",
"[	c #BFBFBF",
"}	c #787878",
"|	c #5C5C5C",
"1	c #C8C8C8",
"2	c #BABABA",
"3	c #5B5B5B",
"4	c #9F9F9F",
"5	c #C4C4C4",
"6	c #C3C3C3",
"7	c #B6B6B6",
"8	c #9C9C9C",
"9	c #BEBEBE",
"0	c #B1B1B1",
"a	c #5A5A5A",
"b	c #989898",
"c	c #B7B7B7",
"d	c #717171",
"e	c #595959",
"f	c #6F6F6F",
"g	c #6D6D6D",
"h	c #A6A6A6",
"i	c #A1A1A1",
"j	c #A0A0A0",
"k	c #9D9D9D",
"..............",
"++++++++++++++",
"@@@@@@@@@@@@@@",
"###$%&***%####",
"==-;;;;;;;>-==",
",,';;;;;;;;),,",
"!!~~{!{];;;;!!",
"^^^^^^^/;;;;^^",
"(((((((_;;;:((",
"<<<<<[};;;|[<<",
"111123;;;;4111",
"55673;;;;85555",
"990a;;;;b99999",
"ccd;;;;eddddcc",
"00f;;;;;;;;;00",
"~~g;;;;;;;;;~~",
"hhhhhhhhhhhhhh",
"iijjjjjjiiiiii",
"kkkkkkkkkkkkkk",
"kkkkkkkkkkkkkk"};
