/* XPM */
static char * n3_xpm[] = {
"14 20 56 1",
" 	c None",
".	c #F4F4F4",
"+	c #F0F0F0",
"@	c #E9E9E9",
"#	c #E7E7E7",
"$	c #B4B4B4",
"%	c #818181",
"&	c #A3A3A3",
"*	c #C5C5C5",
"=	c #E4E4E4",
"-	c #D3D3D3",
";	c #4E4E4E",
">	c #808080",
",	c #DFDFDF",
"'	c #AEAEAE",
")	c #8E8E8E",
"!	c #DCDCDC",
"~	c #CCCCCC",
"{	c #BCBCBC",
"]	c #5E5E5E",
"^	c #D9D9D9",
"/	c #6D6D6D",
"(	c #7C7C7C",
"_	c #A6A6A6",
":	c #7A7A7A",
"<	c #5D5D5D",
"[	c #C4C4C4",
"}	c #CDCDCD",
"|	c #A2A2A2",
"1	c #5C5C5C",
"2	c #B1B1B1",
"3	c #C8C8C8",
"4	c #ADADAD",
"5	c #767676",
"6	c #696969",
"7	c #9F9F9F",
"8	c #C3C3C3",
"9	c #9C9C9C",
"0	c #5B5B5B",
"a	c #BEBEBE",
"b	c #BDBDBD",
"c	c #B0B0B0",
"d	c #A5A5A5",
"e	c #B7B7B7",
"f	c #717171",
"g	c #656565",
"h	c #595959",
"i	c #6F6F6F",
"j	c #909090",
"k	c #ACACAC",
"l	c #828282",
"m	c #979797",
"n	c #888888",
"o	c #A1A1A1",
"p	c #A0A0A0",
"q	c #9D9D9D",
"..............",
"++++++++++++++",
"@@@@@@@@@@@@@@",
"###$%%%%&*####",
"==-;;;;;;;>===",
",,';;;;;;;;),,",
"!!~~!!{];;;;!!",
"^^^^^^^/;;;(^^",
"---_::<;;;<[--",
"}}}|;;;;;12}}}",
"3334556;;;;733",
"[[888889;;;0[[",
"aa2bbbbc;;;;da",
"eefgfffh;;;;ee",
"22i;;;;;;;;j22",
"kkl;;;;;;/mkkk",
"______n_______",
"ooppppppoooooo",
"qqqqqqqqqqqqqq",
"qqqqqqqqqqqqqq"};
