/* XPM */
static char * n4_xpm[] = {
"14 20 39 1",
" 	c None",
".	c #F4F4F4",
"+	c #F0F0F0",
"@	c #E9E9E9",
"#	c #E7E7E7",
"$	c #D6D6D6",
"%	c #818181",
"&	c #E4E4E4",
"*	c #919191",
"=	c #4E4E4E",
"-	c #DFDFDF",
";	c #BFBFBF",
">	c #DCDCDC",
",	c #5E5E5E",
"'	c #7D7D7D",
")	c #D9D9D9",
"!	c #8C8C8C",
"~	c #7C7C7C",
"{	c #AAAAAA",
"]	c #D3D3D3",
"^	c #B5B5B5",
"/	c #5D5D5D",
"(	c #C4C4C4",
"_	c #A6A6A6",
":	c #CDCDCD",
"<	c #6A6A6A",
"[	c #A2A2A2",
"}	c #C8C8C8",
"|	c #767676",
"1	c #696969",
"2	c #757575",
"3	c #BEBEBE",
"4	c #737373",
"5	c #B7B7B7",
"6	c #B1B1B1",
"7	c #ACACAC",
"8	c #A1A1A1",
"9	c #A0A0A0",
"0	c #9D9D9D",
"..............",
"++++++++++++++",
"@@@@@@@@@@@@@@",
"#####$%%%%%###",
"&&&&&*=====&&&",
"----;======---",
">>>>,=='===>>>",
")))!==~{===)))",
"]]^==/(_===]]]",
"::<==[:[===:::",
"}}===||1===|*}",
"((==========2(",
"3344444====4!3",
"5555555====555",
"6666666====666",
"7777777====777",
"______________",
"88999999888888",
"00000000000000",
"00000000000000"};
