/* XPM */
static char * n5_xpm[] = {
"14 20 55 1",
" 	c None",
".	c #F4F4F4",
"+	c #F0F0F0",
"@	c #E9E9E9",
"#	c #E7E7E7",
"$	c #C5C5C5",
"%	c #B4B4B4",
"&	c #D6D6D6",
"*	c #E4E4E4",
"=	c #808080",
"-	c #4E4E4E",
";	c #B2B2B2",
">	c #DFDFDF",
",	c #7E7E7E",
"'	c #AEAEAE",
")	c #DCDCDC",
"!	c #7D7D7D",
"~	c #8D8D8D",
"{	c #ACACAC",
"]	c #CCCCCC",
"^	c #D9D9D9",
"/	c #7C7C7C",
"(	c #AAAAAA",
"_	c #D3D3D3",
":	c #7A7A7A",
"<	c #6B6B6B",
"[	c #B5B5B5",
"}	c #CDCDCD",
"|	c #787878",
"1	c #C8C8C8",
"2	c #919191",
"3	c #848484",
"4	c #9F9F9F",
"5	c #696969",
"6	c #C4C4C4",
"7	c #C3C3C3",
"8	c #686868",
"9	c #5B5B5B",
"0	c #BEBEBE",
"a	c #BDBDBD",
"b	c #666666",
"c	c #B7B7B7",
"d	c #656565",
"e	c #717171",
"f	c #B1B1B1",
"g	c #6F6F6F",
"h	c #595959",
"i	c #A6A6A6",
"j	c #6D6D6D",
"k	c #585858",
"l	c #9C9C9C",
"m	c #888888",
"n	c #A1A1A1",
"o	c #A0A0A0",
"p	c #9D9D9D",
"..............",
"++++++++++++++",
"@@@@@@@@@@@@@@",
"##$%%%%%%%%&##",
"**=--------;**",
">>,--------'>>",
"))!---~{{{{]))",
"^^/---(^^^^^^^",
"__:---<::[____",
"}}|-------|}}}",
"1123425----211",
"66777778---966",
"000aaaab----00",
"ccdeeed----/cc",
"ffg-------hiff",
"{{j-----k|{{{{",
"iiiilmmiiiiiii",
"nnoooooonnnnnn",
"pppppppppppppp",
"pppppppppppppp"};
