/* XPM */
static char * n6_xpm[] = {
"14 20 53 1",
" 	c None",
".	c #F4F4F4",
"+	c #F0F0F0",
"@	c #E9E9E9",
"#	c #E7E7E7",
"$	c #B4B4B4",
"%	c #818181",
"&	c #E4E4E4",
"*	c #D3D3D3",
"=	c #4E4E4E",
"-	c #B2B2B2",
";	c #DFDFDF",
">	c #7E7E7E",
",	c #DCDCDC",
"'	c #BCBCBC",
")	c #5E5E5E",
"!	c #CCCCCC",
"~	c #D9D9D9",
"{	c #6D6D6D",
"]	c #9B9B9B",
"^	c #C4C4C4",
"/	c #5D5D5D",
"(	c #6B6B6B",
"_	c #B5B5B5",
":	c #CDCDCD",
"<	c #949494",
"[	c #868686",
"}	c #B1B1B1",
"|	c #C8C8C8",
"1	c #767676",
"2	c #BABABA",
"3	c #9F9F9F",
"4	c #696969",
"5	c #C3C3C3",
"6	c #B7B7B7",
"7	c #BEBEBE",
"8	c #5A5A5A",
"9	c #BDBDBD",
"0	c #676767",
"a	c #7C7C7C",
"b	c #656565",
"c	c #717171",
"d	c #888888",
"e	c #A6A6A6",
"f	c #595959",
"g	c #6F6F6F",
"h	c #ACACAC",
"i	c #A1A1A1",
"j	c #787878",
"k	c #636363",
"l	c #828282",
"m	c #A0A0A0",
"n	c #9D9D9D",
"..............",
"++++++++++++++",
"@@@@@@@@@@@@@@",
"#####$%%%%####",
"&&&&*====-&&&&",
";;;;>===>;;;;;",
",,,'===)!,,,,,",
"~~~{===]~~~~~~",
"**^===/^==(_**",
"::<===[[====}:",
"||1===234===1|",
"^^====556====^",
"778===99}===07",
"66a===bcb===d6",
"}}ef=======g}}",
"hhhij====klhhh",
"eeeeeeeeeeeeee",
"iimmmmmmiiiiii",
"nnnnnnnnnnnnnn",
"nnnnnnnnnnnnnn"};
