/* XPM */
static char * n7_xpm[] = {
"14 20 46 1",
" 	c None",
".	c #F4F4F4",
"+	c #F0F0F0",
"@	c #E9E9E9",
"#	c #E7E7E7",
"$	c #A3A3A3",
"%	c #818181",
"&	c #E4E4E4",
"*	c #808080",
"=	c #4E4E4E",
"-	c #DFDFDF",
";	c #7E7E7E",
">	c #DCDCDC",
",	c #BCBCBC",
"'	c #ACACAC",
")	c #6D6D6D",
"!	c #5E5E5E",
"~	c #D9D9D9",
"{	c #C9C9C9",
"]	c #9B9B9B",
"^	c #D3D3D3",
"/	c #989898",
"(	c #CDCDCD",
"_	c #5C5C5C",
":	c #868686",
"<	c #C8C8C8",
"[	c #919191",
"}	c #BABABA",
"|	c #C4C4C4",
"1	c #C3C3C3",
"2	c #5B5B5B",
"3	c #828282",
"4	c #BEBEBE",
"5	c #BDBDBD",
"6	c #8B8B8B",
"7	c #B1B1B1",
"8	c #B7B7B7",
"9	c #595959",
"0	c #656565",
"a	c #858585",
"b	c #585858",
"c	c #636363",
"d	c #A6A6A6",
"e	c #A1A1A1",
"f	c #A0A0A0",
"g	c #9D9D9D",
"..............",
"++++++++++++++",
"@@@@@@@@@@@@@@",
"##$%%%%%%%%%##",
"&&*=========&&",
"--;=========--",
">>,'''')===!>>",
"~~~~~~{====]~~",
"^^^^^^/====^^^",
"((((((_===:(((",
"<<<<<[====}<<<",
"||1112===3||||",
"44456====74444",
"88889===088888",
"777a====]77777",
"'''b===c''''''",
"dddddddddddddd",
"eeffffffeeeeee",
"gggggggggggggg",
"gggggggggggggg"};
