/* XPM */
static char * n8_xpm[] = {
"14 20 57 1",
" 	c None",
".	c #F4F4F4",
"+	c #F0F0F0",
"@	c #E9E9E9",
"#	c #E7E7E7",
"$	c #B4B4B4",
"%	c #818181",
"&	c #A3A3A3",
"*	c #D6D6D6",
"=	c #E4E4E4",
"-	c #B2B2B2",
";	c #5F5F5F",
">	c #4E4E4E",
",	c #DFDFDF",
"'	c #5E5E5E",
")	c #7E7E7E",
"!	c #BFBFBF",
"~	c #DCDCDC",
"{	c #ACACAC",
"]	c #9D9D9D",
"^	c #D9D9D9",
"/	c #BABABA",
"(	c #5D5D5D",
"_	c #AAAAAA",
":	c #D3D3D3",
"<	c #989898",
"[	c #7A7A7A",
"}	c #CDCDCD",
"|	c #6A6A6A",
"1	c #5C5C5C",
"2	c #B1B1B1",
"3	c #C8C8C8",
"4	c #5B5B5B",
"5	c #767676",
"6	c #696969",
"7	c #9F9F9F",
"8	c #C4C4C4",
"9	c #828282",
"0	c #B6B6B6",
"a	c #C3C3C3",
"b	c #686868",
"c	c #BEBEBE",
"d	c #737373",
"e	c #BDBDBD",
"f	c #B7B7B7",
"g	c #7C7C7C",
"h	c #656565",
"i	c #949494",
"j	c #888888",
"k	c #595959",
"l	c #A6A6A6",
"m	c #909090",
"n	c #585858",
"o	c #6D6D6D",
"p	c #979797",
"q	c #A1A1A1",
"r	c #A0A0A0",
"..............",
"++++++++++++++",
"@@@@@@@@@@@@@@",
"#####$%%%&*###",
"===-;>>>>>>-==",
",,,'>>>)'>>>!,",
"~~{>>>]~~'>>{~",
"^^/>>>/^^(>>_^",
":::<>>([(>>[::",
"}}}!|>>>>>12}}",
"33/4>>>56>>>73",
"889>>>0a8b>>48",
"ccd>>>eecd>>>c",
"ffg>>>hij>>>kf",
"22lk>>>>>>>>m2",
"{{{{9n>>>>op{{",
"llllllllllllll",
"qqrrrrrrqqqqqq",
"]]]]]]]]]]]]]]",
"]]]]]]]]]]]]]]"};
