/* XPM */
static char * n9_xpm[] = {
"14 20 53 1",
" 	c None",
".	c #F4F4F4",
"+	c #F0F0F0",
"@	c #E9E9E9",
"#	c #E7E7E7",
"$	c #B4B4B4",
"%	c #818181",
"&	c #A3A3A3",
"*	c #D6D6D6",
"=	c #E4E4E4",
"-	c #B2B2B2",
";	c #5F5F5F",
">	c #4E4E4E",
",	c #DFDFDF",
"'	c #BFBFBF",
")	c #DCDCDC",
"!	c #7D7D7D",
"~	c #ACACAC",
"{	c #9D9D9D",
"]	c #8D8D8D",
"^	c #D9D9D9",
"/	c #7C7C7C",
"(	c #D3D3D3",
"_	c #5D5D5D",
":	c #B5B5B5",
"<	c #898989",
"[	c #CDCDCD",
"}	c #787878",
"|	c #6A6A6A",
"1	c #A2A2A2",
"2	c #C8C8C8",
"3	c #BABABA",
"4	c #5B5B5B",
"5	c #ADADAD",
"6	c #696969",
"7	c #C4C4C4",
"8	c #C3C3C3",
"9	c #9C9C9C",
"0	c #8F8F8F",
"a	c #828282",
"b	c #BEBEBE",
"c	c #BDBDBD",
"d	c #B0B0B0",
"e	c #5A5A5A",
"f	c #B1B1B1",
"g	c #B7B7B7",
"h	c #717171",
"i	c #858585",
"j	c #595959",
"k	c #A6A6A6",
"l	c #979797",
"m	c #A1A1A1",
"n	c #A0A0A0",
"..............",
"++++++++++++++",
"@@@@@@@@@@@@@@",
"#####$%%%&*###",
"===-;>>>>>>-==",
",,'>>>>>>>>>',",
"))!>>>~){>>>])",
"^^>>>/^^^>>>/^",
"((>>>_:((>>><(",
"[[}>>>>|1>>>1[",
"2234>>>56>>>22",
"77889990>>>a77",
"bbbcccde>>>fbb",
"ggggggh>>>/ggg",
"fffffi>>>jkfff",
"~~~~l>>>>a~~~~",
"kkkkkkkkkkkkkk",
"mmnnnnnnmmmmmm",
"{{{{{{{{{{{{{{",
"{{{{{{{{{{{{{{"};
