/* XPM */
static char * p_xpm[] = {
"9 20 33 1",
" 	c None",
".	c #F4F4F4",
"+	c #F0F0F0",
"@	c #E9E9E9",
"#	c #E7E7E7",
"$	c #E4E4E4",
"%	c #4E4E4E",
"&	c #919191",
"*	c #DFDFDF",
"=	c #AEAEAE",
"-	c #5E5E5E",
";	c #BFBFBF",
">	c #DCDCDC",
",	c #ACACAC",
"'	c #6D6D6D",
")	c #BCBCBC",
"!	c #D9D9D9",
"~	c #7C7C7C",
"{	c #8C8C8C",
"]	c #D3D3D3",
"^	c #CDCDCD",
"/	c #C8C8C8",
"(	c #9F9F9F",
"_	c #C4C4C4",
":	c #C3C3C3",
"<	c #BEBEBE",
"[	c #BDBDBD",
"}	c #B7B7B7",
"|	c #B1B1B1",
"1	c #A6A6A6",
"2	c #A1A1A1",
"3	c #A0A0A0",
"4	c #9D9D9D",
".........",
"+++++++++",
"@@@@@@@@@",
"#########",
"$$%%%%&$$",
"**%%=-%;*",
">>%%,'%)>",
"!!%%~%{!!",
"]]%%]]]]]",
"^^%%^^^^^",
"//((/////",
"_::::____",
"<<[[[<<<<",
"}}}}}}}}}",
"|||||||||",
",,,,,,,,,",
"111111111",
"233332222",
"444444444",
"444444444"};
