/* XPM */
static char * slash_xpm[] = {
"9 20 57 1",
" 	c None",
".	c #F4F4F4",
"+	c #F0F0F0",
"@	c #E9E9E9",
"#	c #E8E8E8",
"$	c #E7E7E7",
"%	c #DEDEDE",
"&	c #D0D0D0",
"*	c #E4E4E4",
"=	c #B2B2B2",
"-	c #A0A0A0",
";	c #AEAEAE",
">	c #DFDFDF",
",	c #9E9E9E",
"'	c #4E4E4E",
")	c #868686",
"!	c #DCDCDC",
"~	c #5E5E5E",
"{	c #515151",
"]	c #898989",
"^	c #D9D9D9",
"/	c #9B9B9B",
"(	c #575757",
"_	c #A3A3A3",
":	c #D3D3D3",
"<	c #5D5D5D",
"[	c #777777",
"}	c #B7B7B7",
"|	c #CDCDCD",
"1	c #A2A2A2",
"2	c #C5C5C5",
"3	c #C8C8C8",
"4	c #696969",
"5	c #C4C4C4",
"6	c #C0C0C0",
"7	c #A9A9A9",
"8	c #AAAAAA",
"9	c #BEBEBE",
"0	c #999999",
"a	c #666666",
"b	c #5A5A5A",
"c	c #7D7D7D",
"d	c #888888",
"e	c #B1B1B1",
"f	c #646464",
"g	c #595959",
"h	c #9A9A9A",
"i	c #828282",
"j	c #ACACAC",
"k	c #737373",
"l	c #6E6E6E",
"m	c #585858",
"n	c #A6A6A6",
"o	c #767676",
"p	c #A1A1A1",
"q	c #9D9D9D",
"r	c #979797",
".........",
"+++++++++",
"@@@@@@@@#",
"$$$$$$$%&",
"******=-;",
">>>>>,'')",
"!!!!!~'{]",
"^^^^/''(_",
"::::<''[}",
"|||1'''=2",
"3334''433",
"567'''855",
"90a''b999",
"}c'''d}}}",
"ef''geeee",
"hf''ijjjj",
"kl'mnnnnn",
"-o---pppp",
"qrqqqqqqq",
"qqqqqqqqq"};
