/* XPM */
static char * space_xpm[] = {
"9 20 23 1",
" 	c None",
".	c #F4F4F4",
"+	c #F0F0F0",
"@	c #E9E9E9",
"#	c #E7E7E7",
"$	c #E4E4E4",
"%	c #DFDFDF",
"&	c #DCDCDC",
"*	c #D9D9D9",
"=	c #D3D3D3",
"-	c #CDCDCD",
";	c #C8C8C8",
">	c #C4C4C4",
",	c #C3C3C3",
"'	c #BEBEBE",
")	c #BDBDBD",
"!	c #B7B7B7",
"~	c #B1B1B1",
"{	c #ACACAC",
"]	c #A6A6A6",
"^	c #A1A1A1",
"/	c #A0A0A0",
"(	c #9D9D9D",
".........",
"+++++++++",
"@@@@@@@@@",
"#########",
"$$$$$$$$$",
"%%%%%%%%%",
"&&&&&&&&&",
"*********",
"=========",
"---------",
";;;;;;;;;",
">,,,,>>>>",
"'')))''''",
"!!!!!!!!!",
"~~~~~~~~~",
"{{{{{{{{{",
"]]]]]]]]]",
"^////^^^^",
"(((((((((",
"((((((((("};
