/* XPM */
static char *magick[] = {
/* columns rows colors chars-per-pixel */
"32 28 7 1",
"  c black",
". c #808080",
"X c #c3c3c3",
"o c gainsboro",
"O c #c0c0ff",
"+ c white",
"@ c None",
/* pixels */
"@@                            @@",
"@ XXXXXXXXXXXXXXXXXXXXXXXXXXXX @",
"@ X++++++++++++++++++++++++++. @",
"@ X+ooooooooooooooooooooooooX. @",
"@ X+ooooo                  oX. @",
"@ X+ooooo OOOOOOOOOOOOOOOO.oX. @",
"@ X+ooooo O++++++++++++++O.oX. @",
"@ X+ooooo O++++++++++++++O.oX. @",
"@ X+ooooo OOOOOOOOOOOOOOOO.oX. @",
"@ X+ooooo..................oX. @",
"@ X+ooooooooooooooooooooooooX. @",
"@ X+ooooooooooooooooooooooooX. @",
"@ X+o... oo... oo... oo... oX. @",
"@ X+o... oo... oo... oo... oX. @",
"@ X+o    oo    oo    oo    oX. @",
"@ X+ooooooooooooooooooooooooX. @",
"@ X+o... oo... oo... oo... oX. @",
"@ X+o... oo... oo... oo... oX. @",
"@ X+o    oo    oo    oo    oX. @",
"@ X+ooooooooooooooooooooooooX. @",
"@ X+o... oo... oo... oo... oX. @",
"@ X+o... oo... oo... oo... oX. @",
"@ X+o    oo    oo    oo    oX. @",
"@ X+ooooooooooooooooooooooooX. @",
"@ X+ooooooooooooooooooooooooX. @",
"@ X+XXXXXXXXXXXXXXXXXXXXXXXXX. @",
"@ X........................... @",
"@@                            @@"
};
