/* XPM */
static char *magick[] = {
/* columns rows colors chars-per-pixel */
"32 32 91 1",
"  c #000000",
". c #3d3d03",
"X c #004000",
"o c #027e04",
"O c #1f7f03",
"+ c #2e5f03",
"@ c #374b03",
"# c #3a4403",
"$ c #345203",
"% c #315803",
"& c #276d03",
"* c #2b6503",
"= c #286b03",
"- c #247303",
"; c #217a03",
": c #004040",
"> c #52261c",
", c #6a2e04",
"< c #7a3604",
"1 c #46423c",
"2 c #76422c",
"3 c #76463c",
"4 c #68683b",
"5 c #63743b",
"6 c #585858",
"7 c #7f4f48",
"8 c #725e4c",
"9 c navy",
"0 c blue",
"q c #008000",
"w c #178f03",
"e c #1c8203",
"r c #198a03",
"t c #159303",
"y c #119c03",
"u c #0ea203",
"i c #0aaa03",
"p c #05b403",
"a c #01bd03",
"s c #08b003",
"d c #3dc23b",
"f c #39cc3b",
"g c #5b833b",
"h c #54933b",
"j c #46af3b",
"k c #4da33b",
"l c #44b63b",
"z c #843c04",
"x c #8c4204",
"c c #924604",
"v c #824a3c",
"b c #86523c",
"n c #b26a4c",
"m c #b76e50",
"M c #ba765c",
"N c #cc6e2c",
"B c #d2763c",
"V c #e66e04",
"C c #e27204",
"Z c #e47c04",
"A c #ea7a04",
"S c #f36f07",
"D c #fa7604",
"F c #fe7e04",
"G c #f67614",
"H c #b58369",
"J c #fe8205",
"K c #fe8611",
"L c #d88d4b",
"P c #d69d7c",
"I c #ea8e54",
"U c #f7984f",
"Y c #808080",
"T c #bebebc",
"R c #c29a84",
"E c #e6ae8c",
"W c #eab694",
"Q c #fdba84",
"! c #dfc19d",
"~ c #eecabc",
"^ c #f6ceb4",
"/ c #faceb4",
"( c #fedeac",
") c #c0c0c0",
"_ c #d2d2d4",
"` c #dededc",
"' c #f6decc",
"] c #fedec4",
"[ c #fee2d4",
"{ c white",
"} c None",
/* pixels */
"}}}}}}}}}}}}}}}}}}   }}}}}}}}}}}",
"}}}}}}}}}}}}}}}}  ff }}}}}}}}}}}",
"}}}}}}}}}}}}}}  ffaa }}}}}}}}}}}",
"}}}}}}}}}}}}  ffaaa }}}}}}}}}}}}",
"}}}}}}}}}}  ffaaaaa }}}}}}}}}}}}",
"}}}}}}}}  lfaaaaaa }}}}}}}}   }}",
"}}}}}}} llisaaaaaa }}}}}}} L!P }",
"}}}}}} kttuiipaaa }}}}}}} DQU[E ",
"}}}}}} krtyuiipaa }}}}}} KQ(SNH ",
"}}}}} heewtyuipp }}}}}} JQ(KZx }",
"}}}}} h;eewtyuis }}}}} JQ(KZz }}",
"}}}} g=-;Orwyyu }}}}} FQ(FZz }}}",
"}}}} g*&-;Oetty }}}} KQ(FKc }}}}",
"}}} 5%+*&-;ert   }} JQ(DZ< }}}}}",
"}}} 5@%+*--O  ))) ,KQQGCx }}}}}}",
"}} 4#@$%+*  ))){{{R/QDCx }}}}}}}",
"}} 4>#$%  ))9)){{m^]IBz }}}}}}}}",
"} 4.@#  )))999{{{R'EMb>  }}}}}}}",
"} 4#  )))))9)9{07~Wn23{{)  }}}}}",
" 4  ))))))99)90018v3{{{{{{)  }}}",
"  ))))))))9))00{ 1{{{{{{{{{{)  }",
"  66)_)))99){{{{T`{{{{{{{{)66 }}",
" 68Y66)))9)){{{`T_`{{{{{)66))  }",
"  66Y866))){{{{`TT_`{{)66))66 }}",
"  ::66YY66){{{`_T))_{66))66oo  }",
"}}  ::66YY66{{`_T))668)66oo  }}}",
"}}}}  ::66Y_66_T)66YY66oo  }}}}}",
"}}}}}}  ::66))666YY66XX  }}}}}}}",
"}}}}}}}}  :q66Y8Y66XX  }}}}}}}}}",
"}}}}}}}}}}  qt666XX  }}}}}}}}}}}",
"}}}}}}}}}}}}  ooo  }}}}}}}}}}}}}",
"}}}}}}}}}}}}}}   }}}}}}}}}}}}}}}"
};
