/* XPM */
static char * linux_xpm[] = {
"48 20 561 2",
"  	c None",
". 	c #61D470",
"+ 	c #49BF55",
"@ 	c #41BA50",
"# 	c #45BF5B",
"$ 	c #53CA5E",
"% 	c #45BD55",
"& 	c #49C05C",
"* 	c #54C75A",
"= 	c #46BF55",
"- 	c #45BC52",
"; 	c #45BB52",
"> 	c #42BE53",
", 	c #43BB53",
"' 	c #43B551",
") 	c #42B04F",
"! 	c #3EA84E",
"~ 	c #389E48",
"{ 	c #339441",
"] 	c #308E3D",
"^ 	c #30863D",
"/ 	c #2F813C",
"( 	c #2D813A",
"_ 	c #2D833C",
": 	c #30773B",
"< 	c #367441",
"[ 	c #318F3E",
"} 	c #2F8935",
"| 	c #32893D",
"1 	c #3BA547",
"2 	c #45BA56",
"3 	c #42BD54",
"4 	c #42BE51",
"5 	c #57CF67",
"6 	c #85B48A",
"7 	c #EAEAEA",
"8 	c #60D96D",
"9 	c #4BC557",
"0 	c #43B952",
"a 	c #4CC160",
"b 	c #54CC61",
"c 	c #47B654",
"d 	c #54BE65",
"e 	c #59CE65",
"f 	c #46BF56",
"g 	c #42BD53",
"h 	c #41BD53",
"i 	c #3FBF50",
"j 	c #41BC51",
"k 	c #42B850",
"l 	c #40B34E",
"m 	c #3FAE4D",
"n 	c #3AA447",
"o 	c #379C42",
"p 	c #34973F",
"q 	c #358D41",
"r 	c #2D8937",
"s 	c #278A30",
"t 	c #368341",
"u 	c #31663B",
"v 	c #327239",
"w 	c #348D40",
"x 	c #328637",
"y 	c #35893D",
"z 	c #3CA649",
"A 	c #43BD55",
"B 	c #3DBF53",
"C 	c #42C158",
"D 	c #53B164",
"E 	c #B7C6B8",
"F 	c #54C460",
"G 	c #4FC95D",
"H 	c #45BC54",
"I 	c #4EBF5E",
"J 	c #53CE64",
"K 	c #4CAF56",
"L 	c #58B164",
"M 	c #59CD6B",
"N 	c #4DC15C",
"O 	c #4AC25B",
"P 	c #49C45D",
"Q 	c #46C35A",
"R 	c #43C054",
"S 	c #42B551",
"T 	c #40B04E",
"U 	c #3DA94A",
"V 	c #3AA145",
"W 	c #379A42",
"X 	c #35953F",
"Y 	c #338D3E",
"Z 	c #308739",
"` 	c #34843C",
" .	c #336E3B",
"..	c #2B5B30",
"+.	c #32803B",
"@.	c #338F40",
"#.	c #34883B",
"$.	c #379141",
"%.	c #3EAB4E",
"&.	c #42BF54",
"*.	c #3FC053",
"=.	c #4ABD5D",
"-.	c #669D70",
";.	c #3A9346",
">.	c #3CB34C",
",.	c #3EBC4C",
"'.	c #45B853",
").	c #4DC760",
"!.	c #48A24F",
"~.	c #4E9856",
"{.	c #57CB6D",
"].	c #49AF52",
"^.	c #49B556",
"/.	c #4CC25D",
"(.	c #48C35E",
"_.	c #44B957",
":.	c #3BAC4D",
"<.	c #349F44",
"[.	c #309840",
"}.	c #339742",
"|.	c #339240",
"1.	c #2E873A",
"2.	c #2E8338",
"3.	c #308238",
"4.	c #387A42",
"5.	c #3A6144",
"6.	c #315836",
"7.	c #357138",
"8.	c #3E9348",
"9.	c #369648",
"0.	c #379143",
"a.	c #389B47",
"b.	c #41B253",
"c.	c #41C053",
"d.	c #47A050",
"e.	c #9AB09E",
"f.	c #A4AFA4",
"g.	c #4C8B57",
"h.	c #34973E",
"i.	c #34973B",
"j.	c #428A51",
"k.	c #3A8946",
"l.	c #577B58",
"m.	c #4AC259",
"n.	c #3A7641",
"o.	c #386F45",
"p.	c #48B353",
"q.	c #36A94E",
"r.	c #3C8A48",
"s.	c #31783A",
"t.	c #37753B",
"u.	c #437942",
"v.	c #3A7840",
"w.	c #427C49",
"x.	c #61875E",
"y.	c #6E8867",
"z.	c #858C74",
"A.	c #9C9082",
"B.	c #A29383",
"C.	c #647A55",
"D.	c #4A7E4D",
"E.	c #A39F8D",
"F.	c #679A6B",
"G.	c #349943",
"H.	c #37A046",
"I.	c #44B651",
"J.	c #42C15F",
"K.	c #41AD4F",
"L.	c #3B793B",
"M.	c #C8CFC9",
"N.	c #C4C9C6",
"O.	c #536154",
"P.	c #5C7557",
"Q.	c #465E3E",
"R.	c #466B48",
"S.	c #6D7666",
"T.	c #469853",
"U.	c #426145",
"V.	c #525C4E",
"W.	c #478E50",
"X.	c #50794A",
"Y.	c #72866A",
"Z.	c #5B644D",
"`.	c #948C7D",
" +	c #A8968C",
".+	c #929078",
"++	c #8A8A6E",
"@+	c #A89F89",
"#+	c #AE9D8C",
"$+	c #A6A18C",
"%+	c #BD9E8E",
"&+	c #979174",
"*+	c #3F7540",
"=+	c #6C8B63",
"-+	c #AD9A91",
";+	c #86A17E",
">+	c #399342",
",+	c #3BA244",
"'+	c #3DBE52",
")+	c #48AE58",
"!+	c #2D742C",
"~+	c #4C8258",
"{+	c #D7D9D7",
"]+	c #71776D",
"^+	c #9C9A8E",
"/+	c #87836A",
"(+	c #767B6C",
"_+	c #807B6C",
":+	c #577755",
"<+	c #687161",
"[+	c #7A6E66",
"}+	c #5C7656",
"|+	c #9F9C86",
"1+	c #6C805E",
"2+	c #82896C",
"3+	c #AEA28E",
"4+	c #AD9D8C",
"5+	c #AD9F8D",
"6+	c #B2A390",
"7+	c #AC9D8A",
"8+	c #AD9B88",
"9+	c #A09581",
"0+	c #717255",
"a+	c #449053",
"b+	c #2E8747",
"c+	c #6D7658",
"d+	c #9E8A83",
"e+	c #949C84",
"f+	c #4A9A4E",
"g+	c #3CAB46",
"h+	c #45BD59",
"i+	c #32803A",
"j+	c #2E6A2E",
"k+	c #71977C",
"l+	c #C4C4C4",
"m+	c #B0B0B0",
"n+	c #C9D3CC",
"o+	c #4A7449",
"p+	c #859078",
"q+	c #BCB491",
"r+	c #989385",
"s+	c #B3AE92",
"t+	c #AF9B91",
"u+	c #8B8170",
"v+	c #A99C87",
"w+	c #A79385",
"x+	c #9C937E",
"y+	c #6B7D5B",
"z+	c #A2A087",
"A+	c #AE9E8C",
"B+	c #A19584",
"C+	c #938879",
"D+	c #897D6E",
"E+	c #A49785",
"F+	c #AB9D88",
"G+	c #AC9788",
"H+	c #667355",
"I+	c #3E753F",
"J+	c #35542F",
"K+	c #857D6C",
"L+	c #92857D",
"M+	c #9A9485",
"N+	c #5DAA60",
"O+	c #3FBE4E",
"P+	c #3B8F45",
"Q+	c #2D6D37",
"R+	c #237537",
"S+	c #9AAF9D",
"T+	c #666666",
"U+	c #4F4F4F",
"V+	c #A0C0AA",
"W+	c #388A44",
"X+	c #3D6439",
"Y+	c #A59B86",
"Z+	c #70715E",
"`+	c #888C74",
" @	c #FCE3D9",
".@	c #EDDCC6",
"+@	c #DDCFB4",
"@@	c #EDD6BF",
"#@	c #CCC0A4",
"$@	c #C5BAA4",
"%@	c #AF9A8F",
"&@	c #5E5C4F",
"*@	c #495443",
"=@	c #75756F",
"-@	c #4D4239",
";@	c #B5A490",
">@	c #B29E8C",
",@	c #BEA79C",
"'@	c #B4A794",
")@	c #9C9275",
"!@	c #927E6D",
"~@	c #A8998E",
"{@	c #A48E86",
"]@	c #859174",
"^@	c #50BA6C",
"/@	c #349C44",
"(@	c #2C6B31",
"_@	c #267535",
":@	c #2D713B",
"<@	c #CBD0CA",
"[@	c #A0A0A0",
"}@	c #3C3C3C",
"|@	c #848484",
"1@	c #E8E9E8",
"2@	c #7BAE80",
"3@	c #359043",
"4@	c #3F693E",
"5@	c #E3D2C9",
"6@	c #969583",
"7@	c #5E6652",
"8@	c #DECDBE",
"9@	c #FDEAD4",
"0@	c #F9E7CF",
"a@	c #F8E7CB",
"b@	c #FCE9CD",
"c@	c #FFE6CF",
"d@	c #B4A392",
"e@	c #3B5D3F",
"f@	c #2D663F",
"g@	c #728074",
"h@	c #C3B7AD",
"i@	c #E1CEB9",
"j@	c #BEA997",
"k@	c #CEC0AE",
"l@	c #CAC0A6",
"m@	c #C4B69D",
"n@	c #B7A493",
"o@	c #998782",
"p@	c #807C69",
"q@	c #68A858",
"r@	c #33A644",
"s@	c #315E34",
"t@	c #317136",
"u@	c #237632",
"v@	c #5F8262",
"w@	c #CECECE",
"x@	c #4C4C4C",
"y@	c #414141",
"z@	c #B8B8B8",
"A@	c #D6DDD7",
"B@	c #53A25A",
"C@	c #28893C",
"D@	c #35683D",
"E@	c #E5D5C7",
"F@	c #ACA090",
"G@	c #787D68",
"H@	c #B8AA98",
"I@	c #FBE8D2",
"J@	c #F6E4CB",
"K@	c #F5E4C9",
"L@	c #F5E5C8",
"M@	c #F8E4C5",
"N@	c #F3E1CA",
"O@	c #99A98D",
"P@	c #758C6C",
"Q@	c #B4B5A4",
"R@	c #F2E3D5",
"S@	c #D0BCA7",
"T@	c #CEBBA6",
"U@	c #CBBBA4",
"V@	c #CAB49C",
"W@	c #CAAE9C",
"X@	c #B8A092",
"Y@	c #7F8166",
"Z@	c #4B9D55",
"`@	c #409E50",
" #	c #306429",
".#	c #2D7134",
"+#	c #28782F",
"@#	c #2E6D39",
"##	c #A7B3A8",
"$#	c #757575",
"%#	c #606060",
"&#	c #DFE2E1",
"*#	c #89AA8C",
"=#	c #30783B",
"-#	c #2D6D3D",
";#	c #C9C2B0",
">#	c #FFEADE",
",#	c #E9E0CE",
"'#	c #C5B1A1",
")#	c #F4E2CB",
"!#	c #F6E4CC",
"~#	c #F4E4C7",
"{#	c #F6E4C6",
"]#	c #FAE4D1",
"^#	c #F0E5D5",
"/#	c #FFE7D9",
"(#	c #FEEDDA",
"_#	c #D9C9B5",
":#	c #CDB7A2",
"<#	c #CBB8A2",
"[#	c #C3B39A",
"}#	c #CCAF9D",
"|#	c #BBA594",
"1#	c #81926E",
"2#	c #5AA05C",
"3#	c #419C4C",
"4#	c #2F6E3B",
"5#	c #29753E",
"6#	c #277C32",
"7#	c #28712C",
"8#	c #66876D",
"9#	c #ABABAB",
"0#	c #919191",
"a#	c #E6E7E6",
"b#	c #9EA89B",
"c#	c #37613F",
"d#	c #A8AD90",
"e#	c #F3E8D1",
"f#	c #C2A694",
"g#	c #EAD6C0",
"h#	c #F8E5CD",
"i#	c #F5E4CA",
"j#	c #F8E2CA",
"k#	c #F7E3CE",
"l#	c #F2E8D3",
"m#	c #F7E8D3",
"n#	c #EEDFC7",
"o#	c #D2BEA9",
"p#	c #CDB5A3",
"q#	c #C8B49C",
"r#	c #C3B39F",
"s#	c #A09A89",
"t#	c #708B67",
"u#	c #53935C",
"v#	c #3E874C",
"w#	c #357038",
"x#	c #317D35",
"y#	c #2B7C34",
"z#	c #2C6F37",
"A#	c #3E6D40",
"B#	c #CED5D0",
"C#	c #E6E6E6",
"D#	c #3F684C",
"E#	c #7CA776",
"F#	c #FCDECC",
"G#	c #F8E3D0",
"H#	c #AAA48B",
"I#	c #E8D4C0",
"J#	c #FCE9D2",
"K#	c #F5E3CB",
"L#	c #F7E5CA",
"M#	c #F7E5CB",
"N#	c #E8D7BD",
"O#	c #CDB9A7",
"P#	c #C8B8A9",
"Q#	c #B4AD98",
"R#	c #757A63",
"S#	c #4B6E49",
"T#	c #378041",
"U#	c #327F3B",
"V#	c #317C39",
"W#	c #2D843B",
"X#	c #287C39",
"Y#	c #257235",
"Z#	c #2B6B34",
"`#	c #B9C3B8",
" $	c #E1E1E1",
".$	c #385B40",
"+$	c #4D9A5E",
"@$	c #9FA183",
"#$	c #F8D9CE",
"$$	c #9E9A89",
"%$	c #A69685",
"&$	c #DAC9B5",
"*$	c #F6E5CB",
"=$	c #E8D4BA",
"-$	c #CEBBA9",
";$	c #908A7C",
">$	c #545C4B",
",$	c #395A39",
"'$	c #316E38",
")$	c #287A35",
"!$	c #277D30",
"~$	c #2C7D32",
"{$	c #2C7837",
"]$	c #2B6D36",
"^$	c #33663C",
"/$	c #A6B8A8",
"($	c #E8E8E8",
"_$	c #869086",
":$	c #3E7A4B",
"<$	c #2F7139",
"[$	c #6D7E5E",
"}$	c #ACA394",
"|$	c #8F8274",
"1$	c #B9AA97",
"2$	c #FBE7CC",
"3$	c #F6E5CA",
"4$	c #F7E6CC",
"5$	c #EBD9BF",
"6$	c #CDB9A8",
"7$	c #989885",
"8$	c #8F9D7D",
"9$	c #6A8561",
"0$	c #608063",
"a$	c #698C6D",
"b$	c #6C896A",
"c$	c #728670",
"d$	c #8B9A8B",
"e$	c #BFC4BF",
"f$	c #DDE0DE",
"g$	c #637363",
"h$	c #29582D",
"i$	c #286533",
"j$	c #466042",
"k$	c #898578",
"l$	c #BDAF9F",
"m$	c #E2CDB8",
"n$	c #F7E1C8",
"o$	c #F8E8CF",
"p$	c #F6E4CA",
"q$	c #F7E3CB",
"r$	c #F8E5CE",
"s$	c #EADAC2",
"t$	c #CEBAA6",
"u$	c #CBB5A2",
"v$	c #CAB8A1",
"w$	c #C2B29E",
"x$	c #C0BAB6",
"y$	c #DCDDDC",
"z$	c #59625A",
"A$	c #1C331D",
"B$	c #2E4832",
"C$	c #80857D",
"D$	c #746758",
"E$	c #8F785C",
"F$	c #978462",
"G$	c #A4957D",
"H$	c #F5DFC6",
"I$	c #FCE3CA",
"J$	c #FCE6D2",
"K$	c #E0CCB5",
"L$	c #C2B098",
"M$	c #C4B39D",
"N$	c #B6A692",
"O$	c #BDB9B4",
"P$	c #E5E6E5",
"Q$	c #B1B3B1",
"R$	c #BEC1BF",
"S$	c #C2BDB9",
"T$	c #958E7A",
"U$	c #787653",
"V$	c #ADA08F",
"W$	c #FFEDD4",
"X$	c #FEE8C9",
"Y$	c #F1DEBF",
"Z$	c #CDB9A0",
"`$	c #BEAE9A",
" %	c #B1AA9F",
".%	c #C1BFBA",
"+%	c #E6E6E5",
"@%	c #D2D0CD",
"#%	c #CFC4B7",
"$%	c #DED0BE",
"%%	c #C4BAA9",
"&%	c #A49B8D",
"*%	c #B6B1AB",
". + @ # $ % & * = - - ; > , ' ) ! ~ { ] ^ / ( _ : < [ } | 1 2 3 4 5 6 7 7 7 7 7 7 7 7 7 7 7 7 7 ",
"8 9 0 a b c d e f g h h i j k l m n o p q r s t u v w x y z A B C D E 7 7 7 7 7 7 7 7 7 7 7 7 7 ",
"F G H I J K L M N O P Q R , S T U V W X Y Z `  ...+.@.#.$.%.&.*.=.-.7 7 7 7 7 7 7 7 7 7 7 7 7 7 ",
";.>.,.'.).!.~.{.].^./.(._.:.<.[.}.|.1.2.3.4.5.6.7.8.9.0.a.b.c.f d.e.7 7 7 7 7 7 7 7 7 7 7 7 7 7 ",
"f.g.h.i.j.k.l.m.n.o.p.q.r.s.t.u.v.w.x.y.z.A.B.C.D.E.F.G.H.I.J.K.L.M.7 7 7 7 7 7 7 7 7 7 7 7 7 7 ",
"7 N.O.P.Q.R.S.T.U.V.W.X.Y.Z.`. +.+++@+#+$+%+&+*+=+-+;+>+,+'+)+!+~+7 7 7 7 7 7 7 7 7 7 7 7 7 7 7 ",
"7 {+]+^+/+(+_+:+<+[+}+|+1+2+3+4+5+6+7+8+9+0+a+b+c+d+e+f+g+h+i+j+k+7 7 7 7 7 7 7 l+m+7 7 7 7 7 7 ",
"7 n+o+p+q+r+s+t+u+v+w+x+y+z+A+B+C+D+E+F+G+H+I+J+K+L+M+N+O+P+Q+R+S+7 7 7 7 7 7 7 T+U+7 7 7 7 7 7 ",
"7 V+W+X+Y+Z+`+ @.@+@@@#@$@%@&@*@=@-@;@>@,@'@)@!@~@{@]@^@/@(@_@:@<@7 7 7 7 7 7 [@}@}@|@7 7 7 7 7 ",
"1@2@3@4@5@6@7@8@9@0@a@b@c@d@e@f@g@h@i@j@k@l@m@n@o@p@q@r@s@t@u@v@7 7 7 7 7 7 w@x@}@}@y@z@7 7 7 7 ",
"A@B@C@D@E@F@G@H@I@J@K@L@M@N@O@P@Q@R@S@T@U@V@W@X@Y@Z@`@ #.#+#@###7 7 7 7 7 7 $#}@}@}@}@%#7 7 7 7 ",
"&#*#=#-#;#>#,#'#)#!#K@~#{#]#^#/#(#_#:#<#[#}#|#1#2#3#4#5#6#7#8#7 7 7 7 7 7 9#}@}@}@}@}@}@0#7 7 7 ",
"7 a#b#c#d#(#e#f#g#h#i#K@j#k#l#m#n#o#p#q#r#s#t#u#v#w#x#y#z#A#B#7 7 7 7 7 7 7 7 7 7 7 7 7 7 7 7 7 ",
"7 7 C#D#E#F#G#H#I#J#K#i#i#K@L#M#N#O#P#Q#R#S#T#U#V#W#X#Y#Z#`#7 7 7 7 7 7 7 7 7 7 7 7 7 7 7 7 7 7 ",
"7 7  $.$+$@$#$$$%$&$K#*$i#i#*$*$=$-$;$>$,$'$)$!$~${$]$^$/$7 7 7 7 7 7 7 7 7 7 7 7 7 7 7 7 7 7 7 ",
"7 7 ($_$:$<$[$}$|$1$i#2$3$i#i#4$5$6$|$7$8$9$0$a$b$c$d$e$7 7 7 7 7 7 7 7 7 7 7 7 7 7 7 7 7 7 7 7 ",
"7 7 7 f$g$h$i$j$k$l$m$n$o$p$q$r$s$t$u$v$w$x$7 7 7 7 7 7 7 7 7 7 7 7 7 7 7 7 7 7 7 7 7 7 7 7 7 7 ",
"7 7 7 7 y$z$A$B$C$D$E$F$G$H$I$J$K$L$M$N$O$7 7 7 7 7 7 7 7 7 7 7 7 7 7 7 7 7 7 7 7 7 7 7 7 7 7 7 ",
"7 7 7 7 7 P$Q$R$7 S$T$U$V$W$X$Y$Z$`$ %.%7 7 7 7 7 7 7 7 7 7 7 7 7 7 7 7 7 7 7 7 7 7 7 7 7 7 7 7 ",
"7 7 7 7 7 7 7 7 7 7 7 +%@%#%$%%%&%*%7 7 7 7 7 7 7 7 7 7 7 7 7 7 7 7 7 7 7 7 7 7 7 7 7 7 7 7 7 7 "};
