/* XPM */
static char * tasbarbuttonactive_xpm[] = {
"90 27 39 1",
" 	c None",
".	c #6B7A91",
"+	c #6C7A92",
"@	c #6B7A92",
"#	c #6C7A91",
"$	c #6C7A93",
"%	c #89A3D1",
"&	c #89A4D2",
"*	c #89A3D2",
"=	c #89A3D3",
"-	c #8AA3D3",
";	c #8AA3D4",
">	c #6A88C8",
",	c #6A88C9",
"'	c #6382C6",
")	c #6382C5",
"!	c #6180C2",
"~	c #5E7FBF",
"{	c #5C7DBD",
"]	c #597BBA",
"^	c #5779B8",
"/	c #5577B5",
"(	c #5375B3",
"_	c #5073B0",
":	c #4F72AE",
"<	c #4C70AB",
"[	c #4A6FA9",
"}	c #476DA6",
"|	c #456BA4",
"1	c #4369A1",
"2	c #41679F",
"3	c #3E659C",
"4	c #3B6399",
"5	c #396196",
"6	c #396197",
"7	c #376094",
"8	c #376095",
"9	c #354D6C",
"0	c #333333",
"..........+++++++++++@@@@@@@@..............#++++++++++@@@@@@@@@@@@@@@@@@@@+$$$$$$$$$$$$$$$",
"%%%%%%%%%&&&&&&&&&&&&**********%%%%%%%%%%%*&&&&&&&&&&&********************=-;;;;;;;;;;;;;;",
">>>>>>>>>>>>>>>>>>>>>>>>>>>>>>>>>>>>>>>>>>>>>>>>>>>>>>>>>>>>>>>>>>>>>>>>>>>,,,,,,,,,,,,,,,",
"''''''''''''''''''''''''''''''''''''''''''''''''''''''''''''''''''''''''''''''''''''''''''",
"))))))))))))))))))))))))))))))))))))))))))))))))))))))))))))))))))))))))))))))))))))))))))",
"!!!!!!!!!!!!!!!!!!!!!!!!!!!!!!!!!!!!!!!!!!!!!!!!!!!!!!!!!!!!!!!!!!!!!!!!!!!!!!!!!!!!!!!!!!",
"~~~~~~~~~~~~~~~~~~~~~~~~~~~~~~~~~~~~~~~~~~~~~~~~~~~~~~~~~~~~~~~~~~~~~~~~~~~~~~~~~~~~~~~~~~",
"{{{{{{{{{{{{{{{{{{{{{{{{{{{{{{{{{{{{{{{{{{{{{{{{{{{{{{{{{{{{{{{{{{{{{{{{{{{{{{{{{{{{{{{{{{",
"]]]]]]]]]]]]]]]]]]]]]]]]]]]]]]]]]]]]]]]]]]]]]]]]]]]]]]]]]]]]]]]]]]]]]]]]]]]]]]]]]]]]]]]]]]",
"^^^^^^^^^^^^^^^^^^^^^^^^^^^^^^^^^^^^^^^^^^^^^^^^^^^^^^^^^^^^^^^^^^^^^^^^^^^^^^^^^^^^^^^^^^",
"//////////////////////////////////////////////////////////////////////////////////////////",
"((((((((((((((((((((((((((((((((((((((((((((((((((((((((((((((((((((((((((((((((((((((((((",
"__________________________________________________________________________________________",
"::::::::::::::::::::::::::::::::::::::::::::::::::::::::::::::::::::::::::::::::::::::::::",
"<<<<<<<<<<<<<<<<<<<<<<<<<<<<<<<<<<<<<<<<<<<<<<<<<<<<<<<<<<<<<<<<<<<<<<<<<<<<<<<<<<<<<<<<<<",
"[[[[[[[[[[[[[[[[[[[[[[[[[[[[[[[[[[[[[[[[[[[[[[[[[[[[[[[[[[[[[[[[[[[[[[[[[[[[[[[[[[[[[[[[[[",
"}}}}}}}}}}}}}}}}}}}}}}}}}}}}}}}}}}}}}}}}}}}}}}}}}}}}}}}}}}}}}}}}}}}}}}}}}}}}}}}}}}}}}}}}}}",
"||||||||||||||||||||||||||||||||||||||||||||||||||||||||||||||||||||||||||||||||||||||||||",
"111111111111111111111111111111111111111111111111111111111111111111111111111111111111111111",
"222222222222222222222222222222222222222222222222222222222222222222222222222222222222222222",
"333333333333333333333333333333333333333333333333333333333333333333333333333333333333333333",
"444444444444444444444444444444444444444444444444444444444444444444444444444444444444444444",
"555555566666666666666666666666666555555566666666666666666666666666666666666666666666666666",
"777777777888888888888888888888877777777777888888888888888888888888888888888888888888888888",
"777777777777777777777777777777777777777777777777777777777777777777777777777777777777777777",
"999999999999999999999999999999999999999999999999999999999999999999999999999999999999999999",
"000000000000000000000000000000000000000000000000000000000000000000000000000000000000000000"};
