/* XPM */
static char * closeA_xpm[] = {
"18 38 323 2",
"  	c None",
". 	c #4D4D4D",
"+ 	c #333333",
"@ 	c #363636",
"# 	c #4C4C4C",
"$ 	c #F5F5F5",
"% 	c #F4F4F4",
"& 	c #F6F6F6",
"* 	c #F8F8F8",
"= 	c #F6F8EA",
"- 	c #FDFFFE",
"; 	c #FCFEFD",
"> 	c #F6FBF5",
", 	c #F8FCFF",
"' 	c #F8F9FE",
") 	c #F9F9F9",
"! 	c #FAFAFA",
"~ 	c #F7F7F7",
"{ 	c #F2F2F2",
"] 	c #F0F0F0",
"^ 	c #F3F3F3",
"/ 	c #E1E1E1",
"( 	c #EBEBEB",
"_ 	c #EDEDED",
": 	c #F7EDEB",
"< 	c #F2E8F3",
"[ 	c #ECE7EB",
"} 	c #E6E4E9",
"| 	c #DBD7EE",
"1 	c #ECE9F2",
"2 	c #ECE7E1",
"3 	c #F4EAF5",
"4 	c #EEEEEE",
"5 	c #EAEAEA",
"6 	c #E9E9E9",
"7 	c #E7E7E7",
"8 	c #E8E8E8",
"9 	c #ECECEC",
"0 	c #E1D8DB",
"a 	c #CAC6BB",
"b 	c #ABABA1",
"c 	c #9E9E9C",
"d 	c #BDBEB6",
"e 	c #C5C8B7",
"f 	c #CCCCC0",
"g 	c #E4E4DA",
"h 	c #E4E4E4",
"i 	c #E6E6E6",
"j 	c #EFEFEF",
"k 	c #CECECE",
"l 	c #979C95",
"m 	c #65656F",
"n 	c #545460",
"o 	c #3A3C39",
"p 	c #525355",
"q 	c #6F737C",
"r 	c #B2BABC",
"s 	c #BDC9BD",
"t 	c #DADADA",
"u 	c #DFDFDF",
"v 	c #E3E3E3",
"w 	c #CFCFCF",
"x 	c #C6C6C6",
"y 	c #E2E2E2",
"z 	c #D0D0D0",
"A 	c #989898",
"B 	c #5A585B",
"C 	c #403C33",
"D 	c #685E54",
"E 	c #827273",
"F 	c #5E4F52",
"G 	c #4B4243",
"H 	c #6D6D75",
"I 	c #B7BCD0",
"J 	c #BFBFBF",
"K 	c #C5C5C5",
"L 	c #C2C2C2",
"M 	c #C3C3C3",
"N 	c #DDDDDD",
"O 	c #E0E0E0",
"P 	c #B6B6B6",
"Q 	c #6A6A6A",
"R 	c #49334A",
"S 	c #EBF137",
"T 	c #C5B73A",
"U 	c #906A5D",
"V 	c #CBB93B",
"W 	c #E6DF5B",
"X 	c #47392E",
"Y 	c #989380",
"Z 	c #C4C4C4",
"` 	c #B5B5B5",
" .	c #BEBEBE",
"..	c #C1C1C1",
"+.	c #CBCBCB",
"@.	c #D8D8D8",
"#.	c #CDCDCD",
"$.	c #A6A6A6",
"%.	c #4B4B4B",
"&.	c #60625F",
"*.	c #D4B12F",
"=.	c #FDE044",
"-.	c #F2D843",
";.	c #FFE040",
">.	c #D3B32A",
",.	c #4D503F",
"'.	c #687363",
").	c #D5D5D5",
"!.	c #969696",
"~.	c #D2D2D2",
"{.	c #D6D6D6",
"].	c #A5A5A5",
"^.	c #474747",
"/.	c #7B7670",
"(.	c #7E6376",
"_.	c #D4B735",
":.	c #F3E638",
"<.	c #D8AE26",
"[.	c #6C4E68",
"}.	c #59506F",
"|.	c #4F5D5E",
"1.	c #D9D9D9",
"2.	c #848484",
"3.	c #BDBDBD",
"4.	c #CCCCCC",
"5.	c #BBBBBB",
"6.	c #525252",
"7.	c #5A5559",
"8.	c #D7B925",
"9.	c #F3E24C",
"0.	c #D6BB26",
"a.	c #F9E04F",
"b.	c #D2B12E",
"c.	c #413B45",
"d.	c #757761",
"e.	c #7B7B7B",
"f.	c #ABABAB",
"g.	c #B1B1B1",
"h.	c #808080",
"i.	c #3E3A39",
"j.	c #F8E44D",
"k.	c #D6B83E",
"l.	c #645444",
"m.	c #D5B723",
"n.	c #E8DB4E",
"o.	c #463929",
"p.	c #AEACB1",
"q.	c #BABABA",
"r.	c #7C7C7C",
"s.	c #A7A7A7",
"t.	c #B8B8B8",
"u.	c #B7B7B7",
"v.	c #A0A0A0",
"w.	c #707674",
"x.	c #3D3835",
"y.	c #4D4A39",
"z.	c #5E5246",
"A.	c #474337",
"B.	c #3B3623",
"C.	c #8D919C",
"D.	c #C5CFDB",
"E.	c #888888",
"F.	c #828282",
"G.	c #A4A4A4",
"H.	c #B0B0B0",
"I.	c #AFAFAF",
"J.	c #AEAEAE",
"K.	c #A8A8A8",
"L.	c #929292",
"M.	c #979797",
"N.	c #A9B5A9",
"O.	c #9790A2",
"P.	c #6B6B63",
"Q.	c #535955",
"R.	c #757389",
"S.	c #ABA6AD",
"T.	c #CCD2C8",
"U.	c #95A193",
"V.	c #717171",
"W.	c #8E8E8E",
"X.	c #A9A9A9",
"Y.	c #8F8F8F",
"Z.	c #848C7F",
"`.	c #B29AA7",
" +	c #D4C7D1",
".+	c #D0DEE7",
"++	c #D5D2D9",
"@+	c #C5B8B0",
"#+	c #857C81",
"$+	c #676662",
"%+	c #999999",
"&+	c #A3A3A3",
"*+	c #9F9F9F",
"=+	c #9A9A9A",
"-+	c #7B7E77",
";+	c #6E6E76",
">+	c #555B4D",
",+	c #525B56",
"'+	c #505E5E",
")+	c #606456",
"!+	c #726E6B",
"~+	c #888694",
"{+	c #939393",
"]+	c #A1A1A1",
"^+	c #A2A2A2",
"/+	c #9E9E9E",
"(+	c #9D9D9D",
"_+	c #9C9C9C",
":+	c #898989",
"<+	c #818181",
"[+	c #9B9B9B",
"}+	c #959595",
"|+	c #F6FAFE",
"1+	c #EFF4F7",
"2+	c #E9EDEF",
"3+	c #E6EAEC",
"4+	c #E4E7E9",
"5+	c #DFE2E4",
"6+	c #D5D8D9",
"7+	c #C1C3C4",
"8+	c #B6B8B9",
"9+	c #B2B4B5",
"0+	c #B4B5B6",
"a+	c #B3B5B5",
"b+	c #B8B9BA",
"c+	c #C0C2C3",
"d+	c #C2C4C5",
"e+	c #CACCCD",
"f+	c #D4D7D8",
"g+	c #E1E4E6",
"h+	c #E7EBED",
"i+	c #E2E6E9",
"j+	c #DCDFE2",
"k+	c #D1D4D6",
"l+	c #B6B7B8",
"m+	c #6B6B70",
"n+	c #53525E",
"o+	c #777984",
"p+	c #AAABAC",
"q+	c #BEC0C2",
"r+	c #C3C5C7",
"s+	c #BFC1C2",
"t+	c #D2D5D7",
"u+	c #DEE2E4",
"v+	c #DCDFE1",
"w+	c #D0D2D4",
"x+	c #B0B1B1",
"y+	c #59575A",
"z+	c #6D6C73",
"A+	c #B1B2B3",
"B+	c #C3C5C6",
"C+	c #C8C9CA",
"D+	c #C9CBCC",
"E+	c #D3D5D7",
"F+	c #D5D8DB",
"G+	c #C1C2C4",
"H+	c #6D6D6D",
"I+	c #999786",
"J+	c #BFBFC0",
"K+	c #C4C5C6",
"L+	c #C7C8CA",
"M+	c #CDCED1",
"N+	c #CED0D3",
"O+	c #CFD2D4",
"P+	c #BEC0C1",
"Q+	c #4C4A4B",
"R+	c #687264",
"S+	c #C7C8C8",
"T+	c #C5C6C7",
"U+	c #CBCDCF",
"V+	c #CDCFD1",
"W+	c #C8CBCD",
"X+	c #BCBEBF",
"Y+	c #C7C8C9",
"Z+	c #C7C9CA",
"`+	c #C7C9CB",
" @	c #C2C4C6",
".@	c #BABBBC",
"+@	c #525152",
"@@	c #747665",
"#@	c #D7D7D7",
"$@	c #C9CACB",
"%@	c #BBBDBF",
"&@	c #B9BABB",
"*@	c #AAAAAA",
"=@	c #808082",
"-@	c #AEADAE",
";@	c #C8C9C9",
">@	c #BFC0C2",
",@	c #B5B7B7",
"'@	c #B7B9B9",
")@	c #6E736F",
"!@	c #898D96",
"~@	c #C4C5C5",
"{@	c #BDBEBE",
"]@	c #AEB0B0",
"^@	c #B0B2B2",
"/@	c #BABBBB",
"(@	c #BCBCBC",
"_@	c #93909D",
":@	c #6B6862",
"<@	c #737082",
"[@	c #A4A1A6",
"}@	c #CFD0D0",
"|@	c #B8B9B9",
"1@	c #A8A9AA",
"2@	c #A9AAAB",
"3@	c #AEAFAF",
"4@	c #B7B8B8",
"5@	c #AFAFB0",
"6@	c #ADADAE",
"7@	c #A1A2A3",
"8@	c #A2A3A4",
"9@	c #A6A7A8",
"0@	c #ACADAE",
"a@	c #B6B6B7",
"b@	c #C2C2C3",
"c@	c #C6C7C7",
"d@	c #C9CACA",
"e@	c #C0C0C1",
"f@	c #ABACAD",
"g@	c #A3A4A5",
"h@	c #9B9B9C",
". . . . . . . . . . . . . . . . . . ",
"+ + + + + + + + + + + + + + + + @ # ",
"$ $ % & * = - ; > , ' ) ! ~ { ] ^ / ",
"( ( _ % % : < [ } | 1 2 3 ( 4 5 6 6 ",
"7 8 4 $ 9 0 a b c d e f g h 6 6 5 5 ",
"i 6 j ( k l m n o p q r s t u v w x ",
"y 7 6 z A B C D E F G H I J x K L M ",
"N v O P Q R S T U V W X Y Z `  ...+.",
"@.v #.$.%.&.*.=.-.;.>.,.'.).!.L K K ",
"~.{.M ].^./.(._.:.<.[.}.|.1.2.`  .3.",
"4.w 5.].6.7.8.9.0.a.b.c.d.1.e.f.P P ",
"Z x g.$.h.i.j.k.l.m.n.o.p.q.r.s.g.g.",
"t.u.s.v.$.w.x.y.z.A.B.C.D.E.F.G.H.I.",
"J.g.K.L.M.N.O.P.Q.R.S.T.U.V.W.].f.X.",
"s.f.X.Y.2.Z.`. +.+++@+#+$+h.%+$.K.s.",
"&+*+v.=+L.-+;+>+,+'+)+!+~+{+A ]+^+^+",
"/+(+_+=+%+Y.:+<+r.r.<+:+Y.A _+[+/+/+",
"/+(+(+_+[+=+A }+{+{+}+A =+=+/+v.%+%+",
"+ + + + + + + + + + + + + + + + + + ",
". . . . . . . . . . . . . . . . . . ",
"+ + + + + + + + + + + + + + + + + + ",
"|+|+|+|+|+|+|+|+|+|+|+|+|+|+|+|+|+|+",
"1+1+1+1+1+1+1+1+1+1+1+1+1+1+1+1+1+1+",
"2+3+4+5+6+7+8+9+0+a+b+c+d+e+f+g+h+h+",
"i+j+k+l+%+M.m+n+o p o+p+q+r+s+t+u+u+",
"v+w+x+_+M.y+C D E F G z+A+B+C+D+E+E+",
"F+G+]+=+H+R S T U V W X I+J+K+L+M+N+",
"O+P+]+[+Q+&.*.=.-.;.>.,.R+K S+T+U+V+",
"W+X+G.v.^./.(._.:.<.[.}.|.~.#.Y+Z+`+",
" @.@].&++@7.8.9.0.a.b.c.@@t #@$@r+r+",
"%@&@*@G.=@i.j.k.l.m.n.o.-@u @.;@>@s+",
",@'@t.J.$.)@x.y.z.A.B.!@4.u @.~@{@{@",
"]@^@/@(@q. ._@:@Q.<@[@+.u / }@|@^@^@",
"1@2@3@(@Z +.~.1.{.{.N / / z 4@5@6@6@",
"7@7@8@9@0@a@{@b@c@d@c@e@0+f@9@g@8@8@",
"h@h@h@h@h@h@h@h@h@h@h@h@h@h@h@h@h@  ",
"}+}+}+}+}+}+}+}+}+}+}+}+}+}+}+}+}+  ",
"+ + + + + + + + + + + + + + + + + + "};
