/* XPM */
static char * closeI_xpm[] = {
"17 38 294 2",
"  	c None",
". 	c #4D4D4D",
"+ 	c #333333",
"@ 	c #F0F0F0",
"# 	c #F4F4F4",
"$ 	c #F7F7F7",
"% 	c #F5F5F5",
"& 	c #FDFDFD",
"* 	c #F9F9F9",
"= 	c #F8F8F8",
"- 	c #FCFCFC",
"; 	c #F2F2F2",
"> 	c #F1F1F1",
", 	c #E7E7E7",
"' 	c #EAEAEA",
") 	c #EDEDED",
"! 	c #EFEFEF",
"~ 	c #EEEEEE",
"{ 	c #E5E5E5",
"] 	c #E2E2E2",
"^ 	c #E9E9E9",
"/ 	c #ECECEC",
"( 	c #F3F3F3",
"_ 	c #D5D5D5",
": 	c #C4C4C4",
"< 	c #A9A9A9",
"[ 	c #A5A5A5",
"} 	c #B2B2B2",
"| 	c #C6C6C6",
"1 	c #CFCFCF",
"2 	c #DFDFDF",
"3 	c #E8E8E8",
"4 	c #E6E6E6",
"5 	c #CBCBCB",
"6 	c #9D9D9D",
"7 	c #6A6A6A",
"8 	c #545454",
"9 	c #3A3A3A",
"0 	c #555555",
"a 	c #787878",
"b 	c #B8B8B8",
"c 	c #CACACA",
"d 	c #D1D1D1",
"e 	c #DEDEDE",
"f 	c #EBEBEB",
"g 	c #9B9B9B",
"h 	c #5B5B5B",
"i 	c #5E5E5E",
"j 	c #717171",
"k 	c #5C5C5C",
"l 	c #3F3F3F",
"m 	c #6F6F6F",
"n 	c #C2C2C2",
"o 	c #DBDBDB",
"p 	c #DCDCDC",
"q 	c #E4E4E4",
"r 	c #DDDDDD",
"s 	c #666666",
"t 	c #434343",
"u 	c #B0B0B0",
"v 	c #848484",
"w 	c #727272",
"x 	c #B4B4B4",
"y 	c #3C3C3C",
"z 	c #959595",
"A 	c #CECECE",
"B 	c #D6D6D6",
"C 	c #D8D8D8",
"D 	c #E0E0E0",
"E 	c #CDCDCD",
"F 	c #A8A8A8",
"G 	c #515151",
"H 	c #565656",
"I 	c #878787",
"J 	c #999999",
"K 	c #B3B3B3",
"L 	c #7F7F7F",
"M 	c #4E4E4E",
"N 	c #6D6D6D",
"O 	c #D0D0D0",
"P 	c #BBBBBB",
"Q 	c #C5C5C5",
"R 	c #A3A3A3",
"S 	c #3D3D3D",
"T 	c #757575",
"U 	c #818181",
"V 	c #B6B6B6",
"W 	c #828282",
"X 	c #525252",
"Y 	c #595959",
"Z 	c #838383",
"` 	c #C3C3C3",
" .	c #575757",
"..	c #5A5A5A",
"+.	c #808080",
"@.	c #AEAEAE",
"#.	c #474747",
"$.	c #737373",
"%.	c #7E7E7E",
"&.	c #ACACAC",
"*.	c #BEBEBE",
"=.	c #ABABAB",
"-.	c #7B7B7B",
";.	c #ADADAD",
">.	c #8E8E8E",
",.	c #868686",
"'.	c #343434",
").	c #B9B9B9",
"!.	c #797979",
"~.	c #BABABA",
"{.	c #4B4B4B",
"].	c #535353",
"^.	c #313131",
"/.	c #939393",
"(.	c #909090",
"_.	c #AFAFAF",
":.	c #A6A6A6",
"<.	c #929292",
"[.	c #989898",
"}.	c #696969",
"|.	c #B1B1B1",
"1.	c #C9C9C9",
"2.	c #979797",
"3.	c #8F8F8F",
"4.	c #A7A7A7",
"5.	c #858585",
"6.	c #CCCCCC",
"7.	c #7A7A7A",
"8.	c #A1A1A1",
"9.	c #A0A0A0",
"0.	c #9E9E9E",
"a.	c #5D5D5D",
"b.	c #606060",
"c.	c #919191",
"d.	c #A2A2A2",
"e.	c #9A9A9A",
"f.	c #898989",
"g.	c #7C7C7C",
"h.	c #949494",
"i.	c #9F9F9F",
"j.	c #9C9C9C",
"k.	c #F6FAFE",
"l.	c #EFF4F7",
"m.	c #E9EDEF",
"n.	c #E6EAEC",
"o.	c #E4E7E9",
"p.	c #DFE2E4",
"q.	c #D5D8D9",
"r.	c #C1C3C4",
"s.	c #B6B8B9",
"t.	c #B2B4B5",
"u.	c #B4B5B6",
"v.	c #B3B5B5",
"w.	c #B8B9BA",
"x.	c #C0C2C3",
"y.	c #C2C4C5",
"z.	c #CACCCD",
"A.	c #D4D7D8",
"B.	c #E1E4E6",
"C.	c #E2E6E9",
"D.	c #DCDFE2",
"E.	c #D1D4D6",
"F.	c #B6B7B8",
"G.	c #6B6B70",
"H.	c #53525E",
"I.	c #3A3C39",
"J.	c #525355",
"K.	c #777984",
"L.	c #AAABAC",
"M.	c #BEC0C2",
"N.	c #C3C5C7",
"O.	c #BFC1C2",
"P.	c #D2D5D7",
"Q.	c #DCDFE1",
"R.	c #D0D2D4",
"S.	c #B0B1B1",
"T.	c #59575A",
"U.	c #403C33",
"V.	c #685E54",
"W.	c #827273",
"X.	c #5E4F52",
"Y.	c #4B4243",
"Z.	c #6D6C73",
"`.	c #B1B2B3",
" +	c #C3C5C6",
".+	c #C8C9CA",
"++	c #C9CBCC",
"@+	c #D5D8DB",
"#+	c #C1C2C4",
"$+	c #49334A",
"%+	c #EBF137",
"&+	c #C5B73A",
"*+	c #906A5D",
"=+	c #CBB93B",
"-+	c #E6DF5B",
";+	c #47392E",
">+	c #999786",
",+	c #BFBFC0",
"'+	c #C4C5C6",
")+	c #C7C8CA",
"!+	c #CFD2D4",
"~+	c #BEC0C1",
"{+	c #4C4A4B",
"]+	c #60625F",
"^+	c #D4B12F",
"/+	c #FDE044",
"(+	c #F2D843",
"_+	c #FFE040",
":+	c #D3B32A",
"<+	c #4D503F",
"[+	c #687264",
"}+	c #C7C8C8",
"|+	c #C5C6C7",
"1+	c #C8CBCD",
"2+	c #BCBEBF",
"3+	c #A4A4A4",
"4+	c #7B7670",
"5+	c #7E6376",
"6+	c #D4B735",
"7+	c #F3E638",
"8+	c #D8AE26",
"9+	c #6C4E68",
"0+	c #59506F",
"a+	c #4F5D5E",
"b+	c #D2D2D2",
"c+	c #C7C8C9",
"d+	c #C2C4C6",
"e+	c #BABBBC",
"f+	c #525152",
"g+	c #5A5559",
"h+	c #D7B925",
"i+	c #F3E24C",
"j+	c #D6BB26",
"k+	c #F9E04F",
"l+	c #D2B12E",
"m+	c #413B45",
"n+	c #747665",
"o+	c #DADADA",
"p+	c #D7D7D7",
"q+	c #C9CACB",
"r+	c #BBBDBF",
"s+	c #B9BABB",
"t+	c #AAAAAA",
"u+	c #808082",
"v+	c #3E3A39",
"w+	c #F8E44D",
"x+	c #D6B83E",
"y+	c #645444",
"z+	c #D5B723",
"A+	c #E8DB4E",
"B+	c #463929",
"C+	c #AEADAE",
"D+	c #C8C9C9",
"E+	c #B5B7B7",
"F+	c #B7B9B9",
"G+	c #6E736F",
"H+	c #3D3835",
"I+	c #4D4A39",
"J+	c #5E5246",
"K+	c #474337",
"L+	c #3B3623",
"M+	c #898D96",
"N+	c #C4C5C5",
"O+	c #AEB0B0",
"P+	c #B0B2B2",
"Q+	c #BABBBB",
"R+	c #BCBCBC",
"S+	c #93909D",
"T+	c #6B6862",
"U+	c #535955",
"V+	c #737082",
"W+	c #A4A1A6",
"X+	c #E1E1E1",
"Y+	c #CFD0D0",
"Z+	c #B8B9B9",
"`+	c #A8A9AA",
" @	c #A9AAAB",
".@	c #AEAFAF",
"+@	c #D9D9D9",
"@@	c #B7B8B8",
"#@	c #AFAFB0",
"$@	c #A1A2A3",
"%@	c #A2A3A4",
"&@	c #A6A7A8",
"*@	c #ACADAE",
"=@	c #B6B6B7",
"-@	c #BDBEBE",
";@	c #C2C2C3",
">@	c #C6C7C7",
",@	c #C9CACA",
"'@	c #C0C0C1",
")@	c #ABACAD",
"!@	c #A3A4A5",
"~@	c #9B9B9C",
". . . . . . . . . . . . . . . . . ",
"+ + + + + + + + + + + + + + + + + ",
"@ # # $ % & * & = & * - * ; > # ; ",
", ' ) ; * ! ~ , { ] , ^ ! ) ^ ' / ",
"' ' @ ( ~ _ : < [ } | 1 2 3 ~ 4 / ",
"3 , ! 4 5 6 7 8 9 0 a b c d ] e ] ",
"] , f d g h 9 i j k l m b n 5 o p ",
"o q r b s t u v w v x y z | u A B ",
"C D E F G H I } J K L M N O g P A ",
"E r Q R S w T U V W k X Y e Z K ` ",
"| E V F  ...+.u Z @.L #.$.d %.&.*.",
": Q @.=.-.S ;.>. .,.;.'.K ).!.R b ",
"~.P < 6 ;.w 9 {.].l ^./.5 (.L R } ",
"_._.:.<.J =.[.}. .-.|.1.2.j 3.4.@.",
"< :.[ [.+.5.:.5 r 6.K v m 7.J R =.",
"8.9.0.g (.W s a.Y h b.w L c.g 6 R ",
"6 d.J e.[.>.f.Z -.g.5.v h.2.g i.j.",
"6 6 6 6 g J 2.z h.h.z z e.e.J 9.6 ",
"+ + + + + + + + + + + + + + + + + ",
". . . . . . . . . . . . . . . . . ",
"+ + + + + + + + + + + + + + + + + ",
"k.k.k.k.k.k.k.k.k.k.k.k.k.k.k.k.k.",
"l.l.l.l.l.l.l.l.l.l.l.l.l.l.l.l.l.",
"m.n.o.p.q.r.s.t.u.v.w.x.y.z.A.B.m.",
"C.D.E.F.J 2.G.H.I.J.K.L.M.N.O.P.C.",
"Q.R.S.j.2.T.U.V.W.X.Y.Z.`. +.+++Q.",
"@+#+8.e.N $+%+&+*+=+-+;+>+,+'+)+@+",
"!+~+8.g {+]+^+/+(+_+:+<+[+Q }+|+!+",
"1+2+3+9.#.4+5+6+7+8+9+0+a+b+E c+1+",
"d+e+[ R f+g+h+i+j+k+l+m+n+o+p+q+d+",
"r+s+t+3+u+v+w+x+y+z+A+B+C+2 C D+r+",
"E+F+b @.:.G+H+I+J+K+L+M+6.2 C N+E+",
"O+P+Q+R+~.*.S+T+U+V+W+5 2 X+Y+Z+O+",
"`+ @.@R+: 5 b++@B B r X+X+O @@#@`+",
"$@$@%@&@*@=@-@;@>@,@>@'@u.)@&@!@$@",
"~@~@~@~@~@~@~@~@~@~@~@~@~@~@~@~@~@",
"z z z z z z z z z z z z z z z z z ",
"+ + + + + + + + + + + + + + + + + "};
