/* XPM */
static char * hideI_xpm[] = {
"17 38 287 2",
"  	c None",
". 	c #4D4D4D",
"+ 	c #333333",
"@ 	c #F0F0F0",
"# 	c #F4F4F4",
"$ 	c #F7F7F7",
"% 	c #F5F5F5",
"& 	c #FDFDFD",
"* 	c #F9F9F9",
"= 	c #F8F8F8",
"- 	c #FCFCFC",
"; 	c #F2F2F2",
"> 	c #F1F1F1",
", 	c #E7E7E7",
"' 	c #EAEAEA",
") 	c #EDEDED",
"! 	c #EFEFEF",
"~ 	c #EEEEEE",
"{ 	c #E5E5E5",
"] 	c #E2E2E2",
"^ 	c #E9E9E9",
"/ 	c #ECECEC",
"( 	c #F3F3F3",
"_ 	c #D5D5D5",
": 	c #C4C4C4",
"< 	c #A9A9A9",
"[ 	c #A5A5A5",
"} 	c #B2B2B2",
"| 	c #C6C6C6",
"1 	c #CFCFCF",
"2 	c #DFDFDF",
"3 	c #E8E8E8",
"4 	c #E6E6E6",
"5 	c #CBCBCB",
"6 	c #9D9D9D",
"7 	c #6A6A6A",
"8 	c #545454",
"9 	c #3A3A3A",
"0 	c #555555",
"a 	c #787878",
"b 	c #B8B8B8",
"c 	c #CACACA",
"d 	c #D1D1D1",
"e 	c #DEDEDE",
"f 	c #EBEBEB",
"g 	c #9B9B9B",
"h 	c #5B5B5B",
"i 	c #5E5E5E",
"j 	c #717171",
"k 	c #5C5C5C",
"l 	c #3F3F3F",
"m 	c #6F6F6F",
"n 	c #C2C2C2",
"o 	c #DBDBDB",
"p 	c #DCDCDC",
"q 	c #E4E4E4",
"r 	c #DDDDDD",
"s 	c #666666",
"t 	c #434343",
"u 	c #6E6E6E",
"v 	c #8A8A8A",
"w 	c #989898",
"x 	c #838383",
"y 	c #3C3C3C",
"z 	c #959595",
"A 	c #B0B0B0",
"B 	c #CECECE",
"C 	c #D6D6D6",
"D 	c #D8D8D8",
"E 	c #E0E0E0",
"F 	c #CDCDCD",
"G 	c #A8A8A8",
"H 	c #515151",
"I 	c #565656",
"J 	c #9A9A9A",
"K 	c #A7A7A7",
"L 	c #B3B3B3",
"M 	c #797979",
"N 	c #4E4E4E",
"O 	c #6D6D6D",
"P 	c #D0D0D0",
"Q 	c #BBBBBB",
"R 	c #C5C5C5",
"S 	c #A3A3A3",
"T 	c #3D3D3D",
"U 	c #727272",
"V 	c #8F8F8F",
"W 	c #B6B6B6",
"X 	c #7E7E7E",
"Y 	c #525252",
"Z 	c #595959",
"` 	c #C3C3C3",
" .	c #575757",
"..	c #5A5A5A",
"+.	c #7F7F7F",
"@.	c #AEAEAE",
"#.	c #7A7A7A",
"$.	c #474747",
"%.	c #737373",
"&.	c #ACACAC",
"*.	c #BEBEBE",
"=.	c #ABABAB",
"-.	c #7B7B7B",
";.	c #929292",
">.	c #6B6B6B",
",.	c #343434",
"'.	c #B9B9B9",
").	c #BABABA",
"!.	c #ADADAD",
"~.	c #494949",
"{.	c #313131",
"].	c #939393",
"^.	c #909090",
"/.	c #AFAFAF",
"(.	c #A6A6A6",
"_.	c #999999",
":.	c #696969",
"<.	c #B1B1B1",
"[.	c #C9C9C9",
"}.	c #979797",
"|.	c #808080",
"1.	c #858585",
"2.	c #CCCCCC",
"3.	c #848484",
"4.	c #A1A1A1",
"5.	c #A0A0A0",
"6.	c #9E9E9E",
"7.	c #828282",
"8.	c #5D5D5D",
"9.	c #606060",
"0.	c #919191",
"a.	c #A2A2A2",
"b.	c #8E8E8E",
"c.	c #898989",
"d.	c #7C7C7C",
"e.	c #949494",
"f.	c #9F9F9F",
"g.	c #9C9C9C",
"h.	c #F6FAFE",
"i.	c #EFF4F7",
"j.	c #E9EDEF",
"k.	c #E6EAEC",
"l.	c #E4E7E9",
"m.	c #DFE2E4",
"n.	c #D5D8D9",
"o.	c #C1C3C4",
"p.	c #B6B8B9",
"q.	c #B2B4B5",
"r.	c #B4B5B6",
"s.	c #B3B5B5",
"t.	c #B8B9BA",
"u.	c #C0C2C3",
"v.	c #C2C4C5",
"w.	c #CACCCD",
"x.	c #D4D7D8",
"y.	c #E1E4E6",
"z.	c #E7EBED",
"A.	c #E2E6E9",
"B.	c #DCDFE2",
"C.	c #D1D4D6",
"D.	c #B6B7B8",
"E.	c #6B6B70",
"F.	c #53525E",
"G.	c #3A3C39",
"H.	c #525355",
"I.	c #777984",
"J.	c #AAABAC",
"K.	c #BEC0C2",
"L.	c #C3C5C7",
"M.	c #BFC1C2",
"N.	c #D2D5D7",
"O.	c #DEE2E4",
"P.	c #DCDFE1",
"Q.	c #D0D2D4",
"R.	c #B0B1B1",
"S.	c #59575A",
"T.	c #403C33",
"U.	c #685E54",
"V.	c #827273",
"W.	c #5E4F52",
"X.	c #4B4243",
"Y.	c #6D6C73",
"Z.	c #B1B2B3",
"`.	c #C3C5C6",
" +	c #C8C9CA",
".+	c #C9CBCC",
"++	c #D3D5D7",
"@+	c #D5D8DB",
"#+	c #C1C2C4",
"$+	c #49334A",
"%+	c #7B7670",
"&+	c #958E63",
"*+	c #C5BB4B",
"=+	c #47392E",
"-+	c #999786",
";+	c #BFBFC0",
">+	c #C4C5C6",
",+	c #C7C8CA",
"'+	c #CDCED1",
")+	c #CFD2D4",
"!+	c #BEC0C1",
"~+	c #4C4A4B",
"{+	c #60625F",
"]+	c #FDE044",
"^+	c #F2D843",
"/+	c #FFE040",
"(+	c #4D503F",
"_+	c #687264",
":+	c #C7C8C8",
"<+	c #C5C6C7",
"[+	c #CBCDCF",
"}+	c #C8CBCD",
"|+	c #BCBEBF",
"1+	c #A4A4A4",
"2+	c #DFC935",
"3+	c #F3E638",
"4+	c #E1C32C",
"5+	c #59506F",
"6+	c #4F5D5E",
"7+	c #D2D2D2",
"8+	c #C7C8C9",
"9+	c #C7C9CA",
"0+	c #C2C4C6",
"a+	c #BABBBC",
"b+	c #525152",
"c+	c #5A5559",
"d+	c #A9A159",
"e+	c #F3E24C",
"f+	c #D6BB26",
"g+	c #F9E04F",
"h+	c #413B45",
"i+	c #747665",
"j+	c #DADADA",
"k+	c #D7D7D7",
"l+	c #C9CACB",
"m+	c #BBBDBF",
"n+	c #B9BABB",
"o+	c #AAAAAA",
"p+	c #808082",
"q+	c #3E3A39",
"r+	c #B9B051",
"s+	c #463929",
"t+	c #AEADAE",
"u+	c #C8C9C9",
"v+	c #BFC0C2",
"w+	c #B5B7B7",
"x+	c #B7B9B9",
"y+	c #6E736F",
"z+	c #3D3835",
"A+	c #4D4A39",
"B+	c #5E5246",
"C+	c #474337",
"D+	c #3B3623",
"E+	c #898D96",
"F+	c #C4C5C5",
"G+	c #BDBEBE",
"H+	c #AEB0B0",
"I+	c #B0B2B2",
"J+	c #BABBBB",
"K+	c #BCBCBC",
"L+	c #93909D",
"M+	c #6B6862",
"N+	c #535955",
"O+	c #737082",
"P+	c #A4A1A6",
"Q+	c #E1E1E1",
"R+	c #CFD0D0",
"S+	c #B8B9B9",
"T+	c #A8A9AA",
"U+	c #A9AAAB",
"V+	c #AEAFAF",
"W+	c #D9D9D9",
"X+	c #B7B8B8",
"Y+	c #AFAFB0",
"Z+	c #ADADAE",
"`+	c #A1A2A3",
" @	c #A2A3A4",
".@	c #A6A7A8",
"+@	c #ACADAE",
"@@	c #B6B6B7",
"#@	c #C2C2C3",
"$@	c #C6C7C7",
"%@	c #C9CACA",
"&@	c #C0C0C1",
"*@	c #ABACAD",
"=@	c #A3A4A5",
"-@	c #9B9B9C",
". . . . . . . . . . . . . . . . . ",
"+ + + + + + + + + + + + + + + + + ",
"@ # # $ % & * & = & * - * ; > # ; ",
", ' ) ; * ! ~ , { ] , ^ ! ) ^ ' / ",
"' ' @ ( ~ _ : < [ } | 1 2 3 ~ 4 / ",
"3 , ! 4 5 6 7 8 9 0 a b c d ] e ] ",
"] , f d g h 9 i j k l m b n 5 o p ",
"o q r b s t u v w x s y z | A B C ",
"D E F G H I J } K L M N O P g Q B ",
"F r R S T U V w W V X Y Z e x L ` ",
"| F W G  ...+.A S @.#.$.%.d X &.*.",
": R @.=.-.t k #.;.z >.,.L '.M S b ",
").Q < 6 !.U N 8 8 ~.{.].5 ^.+.S } ",
"/./.(.;._.=.w :. .-.<.[.}.j V K @.",
"< (.[ w |.1.(.5 r 2.L 3.m #._.S =.",
"4.5.6.g ^.7.s 8.Z h 9.U +.0.g 6 S ",
"6 a._.J w b.c.x -.d.1.3.e.}.g f.g.",
"6 6 6 6 g _.}.z e.e.z z J J _.5.6 ",
"+ + + + + + + + + + + + + + + + + ",
". . . . . . . . . . . . . . . . . ",
"+ + + + + + + + + + + + + + + + + ",
"h.h.h.h.h.h.h.h.h.h.h.h.h.h.h.h.h.",
"i.i.i.i.i.i.i.i.i.i.i.i.i.i.i.i.i.",
"j.k.l.m.n.o.p.q.r.s.t.u.v.w.x.y.z.",
"A.B.C.D._.}.E.F.G.H.I.J.K.L.M.N.O.",
"P.Q.R.g.}.S.T.U.V.W.X.Y.Z.`. +.+++",
"@+#+4.J O $+%+&+*+&+%+=+-+;+>+,+'+",
")+!+4.g ~+{+&+]+^+/+&+(+_+R :+<+[+",
"}+|+1+5.$.%+*+2+3+4+*+5+6+7+F 8+9+",
"0+a+[ S b+c+d+e+f+g+&+h+i+j+k+l+L.",
"m+n+o+1+p+q+%+&+r+d+%+s+t+2 D u+v+",
"w+x+b @.(.y+z+A+B+C+D+E+2.2 D F+G+",
"H+I+J+K+).*.L+M+N+O+P+5 2 Q+R+S+I+",
"T+U+V+K+: 5 7+W+C C r Q+Q+P X+Y+Z+",
"`+`+ @.@+@@@G+#@$@%@$@&@r.*@.@=@ @",
"-@-@-@-@-@-@-@-@-@-@-@-@-@-@-@-@-@",
"z z z z z z z z z z z z z z z z z ",
"+ + + + + + + + + + + + + + + + + "};
