/* XPM */
static char * hideA_xpm[] = {
"18 38 321 2",
"  	c None",
". 	c #4D4D4D",
"+ 	c #333333",
"@ 	c #363636",
"# 	c #4C4C4C",
"$ 	c #F5F5F5",
"% 	c #F4F4F4",
"& 	c #F6F6F6",
"* 	c #F8F8F8",
"= 	c #F6F8EA",
"- 	c #FDFFFE",
"; 	c #FCFEFD",
"> 	c #F6FBF5",
", 	c #F8FCFF",
"' 	c #F8F9FE",
") 	c #F9F9F9",
"! 	c #FAFAFA",
"~ 	c #F7F7F7",
"{ 	c #F2F2F2",
"] 	c #F0F0F0",
"^ 	c #F3F3F3",
"/ 	c #E1E1E1",
"( 	c #EBEBEB",
"_ 	c #EDEDED",
": 	c #F7EDEB",
"< 	c #F2E8F3",
"[ 	c #ECE7EB",
"} 	c #E6E4E9",
"| 	c #DBD7EE",
"1 	c #ECE9F2",
"2 	c #ECE7E1",
"3 	c #F4EAF5",
"4 	c #EEEEEE",
"5 	c #EAEAEA",
"6 	c #E9E9E9",
"7 	c #E7E7E7",
"8 	c #E8E8E8",
"9 	c #ECECEC",
"0 	c #E1D8DB",
"a 	c #CAC6BB",
"b 	c #ABABA1",
"c 	c #9E9E9C",
"d 	c #BDBEB6",
"e 	c #C5C8B7",
"f 	c #CCCCC0",
"g 	c #E4E4DA",
"h 	c #E4E4E4",
"i 	c #E6E6E6",
"j 	c #EFEFEF",
"k 	c #CECECE",
"l 	c #979C95",
"m 	c #65656F",
"n 	c #545460",
"o 	c #3A3C39",
"p 	c #525355",
"q 	c #6F737C",
"r 	c #B2BABC",
"s 	c #BDC9BD",
"t 	c #DADADA",
"u 	c #DFDFDF",
"v 	c #E3E3E3",
"w 	c #CFCFCF",
"x 	c #C6C6C6",
"y 	c #E2E2E2",
"z 	c #D0D0D0",
"A 	c #989898",
"B 	c #5A585B",
"C 	c #403C33",
"D 	c #685E54",
"E 	c #827273",
"F 	c #5E4F52",
"G 	c #4B4243",
"H 	c #6D6D75",
"I 	c #B7BCD0",
"J 	c #BFBFBF",
"K 	c #C5C5C5",
"L 	c #C2C2C2",
"M 	c #C3C3C3",
"N 	c #DDDDDD",
"O 	c #E0E0E0",
"P 	c #B6B6B6",
"Q 	c #6A6A6A",
"R 	c #49334A",
"S 	c #7B7670",
"T 	c #958E63",
"U 	c #B4AC54",
"V 	c #47392E",
"W 	c #989380",
"X 	c #C4C4C4",
"Y 	c #B5B5B5",
"Z 	c #BEBEBE",
"` 	c #C1C1C1",
" .	c #CBCBCB",
"..	c #D8D8D8",
"+.	c #CDCDCD",
"@.	c #A6A6A6",
"#.	c #4B4B4B",
"$.	c #60625F",
"%.	c #F9E23F",
"&.	c #F2DB40",
"*.	c #FAE23D",
"=.	c #687363",
"-.	c #D5D5D5",
";.	c #969696",
">.	c #D2D2D2",
",.	c #D6D6D6",
"'.	c #A5A5A5",
").	c #474747",
"!.	c #DFC935",
"~.	c #F3E638",
"{.	c #E4CA2E",
"].	c #BCA84A",
"^.	c #4F5D5E",
"/.	c #D9D9D9",
"(.	c #848484",
"_.	c #BDBDBD",
":.	c #CCCCCC",
"<.	c #BBBBBB",
"[.	c #525252",
"}.	c #F3E343",
"|.	c #E1CB2C",
"1.	c #F6E245",
"2.	c #757761",
"3.	c #7B7B7B",
"4.	c #ABABAB",
"5.	c #B1B1B1",
"6.	c #808080",
"7.	c #3E3A39",
"8.	c #BAB051",
"9.	c #AEACB1",
"0.	c #BABABA",
"a.	c #7C7C7C",
"b.	c #A7A7A7",
"c.	c #B8B8B8",
"d.	c #B7B7B7",
"e.	c #A0A0A0",
"f.	c #707674",
"g.	c #3D3835",
"h.	c #474337",
"i.	c #3B3623",
"j.	c #8D919C",
"k.	c #C5CFDB",
"l.	c #888888",
"m.	c #828282",
"n.	c #A4A4A4",
"o.	c #B0B0B0",
"p.	c #AFAFAF",
"q.	c #AEAEAE",
"r.	c #A8A8A8",
"s.	c #929292",
"t.	c #979797",
"u.	c #A9B5A9",
"v.	c #9790A2",
"w.	c #6B6B63",
"x.	c #535955",
"y.	c #757389",
"z.	c #ABA6AD",
"A.	c #CCD2C8",
"B.	c #95A193",
"C.	c #717171",
"D.	c #8E8E8E",
"E.	c #A9A9A9",
"F.	c #8F8F8F",
"G.	c #848C7F",
"H.	c #B29AA7",
"I.	c #D4C7D1",
"J.	c #D0DEE7",
"K.	c #D5D2D9",
"L.	c #C5B8B0",
"M.	c #857C81",
"N.	c #676662",
"O.	c #999999",
"P.	c #A3A3A3",
"Q.	c #9F9F9F",
"R.	c #9A9A9A",
"S.	c #7B7E77",
"T.	c #6E6E76",
"U.	c #555B4D",
"V.	c #525B56",
"W.	c #505E5E",
"X.	c #606456",
"Y.	c #726E6B",
"Z.	c #888694",
"`.	c #939393",
" +	c #A1A1A1",
".+	c #A2A2A2",
"++	c #9E9E9E",
"@+	c #9D9D9D",
"#+	c #9C9C9C",
"$+	c #898989",
"%+	c #818181",
"&+	c #9B9B9B",
"*+	c #959595",
"=+	c #F6FAFE",
"-+	c #EFF4F7",
";+	c #E9EDEF",
">+	c #E6EAEC",
",+	c #E4E7E9",
"'+	c #DFE2E4",
")+	c #D5D8D9",
"!+	c #C1C3C4",
"~+	c #B6B8B9",
"{+	c #B2B4B5",
"]+	c #B4B5B6",
"^+	c #B3B5B5",
"/+	c #B8B9BA",
"(+	c #C0C2C3",
"_+	c #C2C4C5",
":+	c #CACCCD",
"<+	c #D4D7D8",
"[+	c #E1E4E6",
"}+	c #E7EBED",
"|+	c #E2E6E9",
"1+	c #DCDFE2",
"2+	c #D1D4D6",
"3+	c #B6B7B8",
"4+	c #6B6B70",
"5+	c #53525E",
"6+	c #777984",
"7+	c #AAABAC",
"8+	c #BEC0C2",
"9+	c #C3C5C7",
"0+	c #BFC1C2",
"a+	c #D2D5D7",
"b+	c #DEE2E4",
"c+	c #DCDFE1",
"d+	c #D0D2D4",
"e+	c #B0B1B1",
"f+	c #59575A",
"g+	c #6D6C73",
"h+	c #B1B2B3",
"i+	c #C3C5C6",
"j+	c #C8C9CA",
"k+	c #C9CBCC",
"l+	c #D3D5D7",
"m+	c #D5D8DB",
"n+	c #C1C2C4",
"o+	c #6D6D6D",
"p+	c #C5BB4B",
"q+	c #999786",
"r+	c #BFBFC0",
"s+	c #C4C5C6",
"t+	c #C7C8CA",
"u+	c #CDCED1",
"v+	c #CED0D3",
"w+	c #CFD2D4",
"x+	c #BEC0C1",
"y+	c #4C4A4B",
"z+	c #FDE044",
"A+	c #F2D843",
"B+	c #FFE040",
"C+	c #4D503F",
"D+	c #687264",
"E+	c #C7C8C8",
"F+	c #C5C6C7",
"G+	c #CBCDCF",
"H+	c #CDCFD1",
"I+	c #C8CBCD",
"J+	c #BCBEBF",
"K+	c #E1C32C",
"L+	c #59506F",
"M+	c #C7C8C9",
"N+	c #C7C9CA",
"O+	c #C7C9CB",
"P+	c #C2C4C6",
"Q+	c #BABBBC",
"R+	c #525152",
"S+	c #5A5559",
"T+	c #A9A159",
"U+	c #F3E24C",
"V+	c #D6BB26",
"W+	c #F9E04F",
"X+	c #413B45",
"Y+	c #747665",
"Z+	c #D7D7D7",
"`+	c #C9CACB",
" @	c #BBBDBF",
".@	c #B9BABB",
"+@	c #AAAAAA",
"@@	c #808082",
"#@	c #B9B051",
"$@	c #463929",
"%@	c #AEADAE",
"&@	c #C8C9C9",
"*@	c #BFC0C2",
"=@	c #B5B7B7",
"-@	c #B7B9B9",
";@	c #6E736F",
">@	c #4D4A39",
",@	c #5E5246",
"'@	c #898D96",
")@	c #C4C5C5",
"!@	c #BDBEBE",
"~@	c #AEB0B0",
"{@	c #B0B2B2",
"]@	c #BABBBB",
"^@	c #BCBCBC",
"/@	c #93909D",
"(@	c #6B6862",
"_@	c #737082",
":@	c #A4A1A6",
"<@	c #CFD0D0",
"[@	c #B8B9B9",
"}@	c #A8A9AA",
"|@	c #A9AAAB",
"1@	c #AEAFAF",
"2@	c #B7B8B8",
"3@	c #AFAFB0",
"4@	c #ADADAE",
"5@	c #A1A2A3",
"6@	c #A2A3A4",
"7@	c #A6A7A8",
"8@	c #ACADAE",
"9@	c #B6B6B7",
"0@	c #C2C2C3",
"a@	c #C6C7C7",
"b@	c #C9CACA",
"c@	c #C0C0C1",
"d@	c #ABACAD",
"e@	c #A3A4A5",
"f@	c #9B9B9C",
". . . . . . . . . . . . . . . . . . ",
"+ + + + + + + + + + + + + + + + @ # ",
"$ $ % & * = - ; > , ' ) ! ~ { ] ^ / ",
"( ( _ % % : < [ } | 1 2 3 ( 4 5 6 6 ",
"7 8 4 $ 9 0 a b c d e f g h 6 6 5 5 ",
"i 6 j ( k l m n o p q r s t u v w x ",
"y 7 6 z A B C D E F G H I J x K L M ",
"N v O P Q R S T U T S V W X Y Z `  .",
"..v +.@.#.$.T %.&.*.T S =.-.;.L K K ",
">.,.M '.).S U !.~.{.].S ^./.(.Y Z _.",
":.w <.'.[.S T }.|.1.T S 2./.3.4.P P ",
"X x 5.@.6.7.S T 8.T S S 9.0.a.b.5.5.",
"c.d.b.e.@.f.g.S S h.i.j.k.l.m.n.o.p.",
"q.5.r.s.t.u.v.w.x.y.z.A.B.C.D.'.4.E.",
"b.4.E.F.(.G.H.I.J.K.L.M.N.6.O.@.r.b.",
"P.Q.e.R.s.S.T.U.V.W.X.Y.Z.`.A  +.+.+",
"++@+#+R.O.F.$+%+a.a.%+$+F.A #+&+++++",
"++@+@+#+&+R.A *+`.`.*+A R.R.++e.O.O.",
"+ + + + + + + + + + + + + + + + + + ",
". . . . . . . . . . . . . . . . . . ",
"+ + + + + + + + + + + + + + + + + + ",
"=+=+=+=+=+=+=+=+=+=+=+=+=+=+=+=+=+=+",
"-+-+-+-+-+-+-+-+-+-+-+-+-+-+-+-+-+-+",
";+>+,+'+)+!+~+{+]+^+/+(+_+:+<+[+}+}+",
"|+1+2+3+O.t.4+5+o p 6+7+8+9+0+a+b+b+",
"c+d+e+#+t.f+C D E F G g+h+i+j+k+l+l+",
"m+n+ +R.o+R S T p+T S V q+r+s+t+u+v+",
"w+x+ +&+y+$.T z+A+B+T C+D+K E+F+G+H+",
"I+J+n.e.).S p+!.~.K+p+L+^.>.+.M+N+O+",
"P+Q+'.P.R+S+T+U+V+W+T X+Y+t Z+`+9+9+",
" @.@+@n.@@7.S T #@T+S $@%@u ..&@*@0+",
"=@-@c.q.@.;@g.>@,@h.i.'@:.u ..)@!@!@",
"~@{@]@^@0.Z /@(@x._@:@ .u / <@[@{@{@",
"}@|@1@^@X  .>./.,.,.N / / z 2@3@4@4@",
"5@5@6@7@8@9@!@0@a@b@a@c@]+d@7@e@6@6@",
"f@f@f@f@f@f@f@f@f@f@f@f@f@f@f@f@f@  ",
"*+*+*+*+*+*+*+*+*+*+*+*+*+*+*+*+*+  ",
"+ + + + + + + + + + + + + + + + + + "};
