/* XPM */
static char * maximizeI_xpm[] = {
"17 38 289 2",
"  	c None",
". 	c #4D4D4D",
"+ 	c #333333",
"@ 	c #F3F3F3",
"# 	c #F5F5F5",
"$ 	c #F6F6F6",
"% 	c #F8F8F8",
"& 	c #FDFDFD",
"* 	c #FAFAFA",
"= 	c #FFFFFF",
"- 	c #F4F4F4",
"; 	c #F2F2F2",
"> 	c #ECECEC",
", 	c #EDEDED",
"' 	c #EFEFEF",
") 	c #E8E8E8",
"! 	c #E2E2E2",
"~ 	c #E1E1E1",
"{ 	c #E6E6E6",
"] 	c #EAEAEA",
"^ 	c #E7E7E7",
"/ 	c #E9E9E9",
"( 	c #EEEEEE",
"_ 	c #D4D4D4",
": 	c #C2C2C2",
"< 	c #B0B0B0",
"[ 	c #9D9D9D",
"} 	c #B5B5B5",
"| 	c #C8C8C8",
"1 	c #D2D2D2",
"2 	c #DDDDDD",
"3 	c #EBEBEB",
"4 	c #F0F0F0",
"5 	c #9B9B9B",
"6 	c #696969",
"7 	c #4E4E4E",
"8 	c #3B3B3B",
"9 	c #565656",
"0 	c #787878",
"a 	c #AEAEAE",
"b 	c #C9C9C9",
"c 	c #E3E3E3",
"d 	c #DFDFDF",
"e 	c #DADADA",
"f 	c #CBCBCB",
"g 	c #898989",
"h 	c #525252",
"i 	c #3D3D3D",
"j 	c #5A5A5A",
"k 	c #545454",
"l 	c #373737",
"m 	c #686868",
"n 	c #BCBCBC",
"o 	c #BEBEBE",
"p 	c #CECECE",
"q 	c #D6D6D6",
"r 	c #B6B6B6",
"s 	c #656565",
"t 	c #3F3F3F",
"u 	c #666666",
"v 	c #ACACAC",
"w 	c #575757",
"x 	c #393939",
"y 	c #939393",
"z 	c #C3C3C3",
"A 	c #B1B1B1",
"B 	c #CFCFCF",
"C 	c #D5D5D5",
"D 	c #DCDCDC",
"E 	c #A4A4A4",
"F 	c #4C4C4C",
"G 	c #555555",
"H 	c #A8A8A8",
"I 	c #474747",
"J 	c #6B6B6B",
"K 	c #D3D3D3",
"L 	c #979797",
"M 	c #BDBDBD",
"N 	c #D1D1D1",
"O 	c #A0A0A0",
"P 	c #9C9C9C",
"Q 	c #838383",
"R 	c #C7C7C7",
"S 	c #ABABAB",
"T 	c #515151",
"U 	c #5D5D5D",
"V 	c #4B4B4B",
"W 	c #454545",
"X 	c #757575",
"Y 	c #D7D7D7",
"Z 	c #797979",
"` 	c #A5A5A5",
" .	c #B7B7B7",
"..	c #C0C0C0",
"+.	c #B4B4B4",
"@.	c #767676",
"#.	c #535353",
"$.	c #5E5E5E",
"%.	c #444444",
"&.	c #ADADAD",
"*.	c #B8B8B8",
"=.	c #7E7E7E",
"-.	c #B9B9B9",
";.	c #B3B3B3",
">.	c #949494",
",.	c #676767",
"'.	c #6C6C6C",
").	c #7F7F7F",
"!.	c #D0D0D0",
"~.	c #828282",
"{.	c #A6A6A6",
"].	c #969696",
"^.	c #AFAFAF",
"/.	c #7C7C7C",
"(.	c #8C8C8C",
"_.	c #CACACA",
":.	c #707070",
"<.	c #AAAAAA",
"[.	c #858585",
"}.	c #868686",
"|.	c #7D7D7D",
"1.	c #9A9A9A",
"2.	c #A2A2A2",
"3.	c #8B8B8B",
"4.	c #595959",
"5.	c #5B5B5B",
"6.	c #606060",
"7.	c #909090",
"8.	c #A1A1A1",
"9.	c #8A8A8A",
"0.	c #818181",
"a.	c #7A7A7A",
"b.	c #888888",
"c.	c #929292",
"d.	c #989898",
"e.	c #9E9E9E",
"f.	c #999999",
"g.	c #959595",
"h.	c #F6FAFE",
"i.	c #EFF4F7",
"j.	c #E9EDEF",
"k.	c #E6EAEC",
"l.	c #E4E7E9",
"m.	c #DFE2E4",
"n.	c #D5D8D9",
"o.	c #C1C3C4",
"p.	c #B6B8B9",
"q.	c #B2B4B5",
"r.	c #B4B5B6",
"s.	c #B3B5B5",
"t.	c #B8B9BA",
"u.	c #C0C2C3",
"v.	c #C2C4C5",
"w.	c #CACCCD",
"x.	c #D4D7D8",
"y.	c #E1E4E6",
"z.	c #E2E6E9",
"A.	c #DCDFE2",
"B.	c #D1D4D6",
"C.	c #B6B7B8",
"D.	c #737373",
"E.	c #534B56",
"F.	c #3C3B39",
"G.	c #555857",
"H.	c #80808D",
"I.	c #AAABAC",
"J.	c #BEC0C2",
"K.	c #C3C5C7",
"L.	c #BFC1C2",
"M.	c #D2D5D7",
"N.	c #DCDFE1",
"O.	c #D0D2D4",
"P.	c #B0B1B1",
"Q.	c #6C573C",
"R.	c #D1C883",
"S.	c #5D5443",
"T.	c #3B363A",
"U.	c #6E6C70",
"V.	c #B1B2B3",
"W.	c #C3C5C6",
"X.	c #C8C9CA",
"Y.	c #C9CBCC",
"Z.	c #D5D8DB",
"`.	c #C1C2C4",
" +	c #717171",
".+	c #E8C766",
"++	c #E2CB63",
"@+	c #CEC068",
"#+	c #63554A",
"$+	c #3E3838",
"%+	c #9B9D8E",
"&+	c #BFBFC0",
"*+	c #C4C5C6",
"=+	c #C7C8CA",
"-+	c #CFD2D4",
";+	c #BEC0C1",
">+	c #56484F",
",+	c #66542E",
"'+	c #DFCD81",
")+	c #E0C957",
"!+	c #E0C844",
"~+	c #E4BF57",
"{+	c #D7B44C",
"]+	c #5A403F",
"^+	c #6B6D6E",
"/+	c #C5C5C5",
"(+	c #C7C8C8",
"_+	c #C5C6C7",
":+	c #C8CBCD",
"<+	c #BCBEBF",
"[+	c #4E492C",
"}+	c #CDC682",
"|+	c #D5CD68",
"1+	c #E7C15E",
"2+	c #E4B951",
"3+	c #DDB52F",
"4+	c #D3B725",
"5+	c #B1A93E",
"6+	c #595748",
"7+	c #CDCDCD",
"8+	c #C7C8C9",
"9+	c #C2C4C6",
"0+	c #BABBBC",
"a+	c #A3A3A3",
"b+	c #554F59",
"c+	c #5C534E",
"d+	c #675C4A",
"e+	c #D8BA48",
"f+	c #DAB936",
"g+	c #D7BB34",
"h+	c #604440",
"i+	c #484735",
"j+	c #717686",
"k+	c #C9CACB",
"l+	c #BBBDBF",
"m+	c #B9BABB",
"n+	c #828185",
"o+	c #545351",
"p+	c #615E59",
"q+	c #D8B533",
"r+	c #E1BB32",
"s+	c #CAAF22",
"t+	c #604B4A",
"u+	c #464832",
"v+	c #AEAFAC",
"w+	c #D8D8D8",
"x+	c #C8C9C9",
"y+	c #B5B7B7",
"z+	c #B7B9B9",
"A+	c #6A6D61",
"B+	c #6B6E65",
"C+	c #CEB534",
"D+	c #C0A520",
"E+	c #B4A32F",
"F+	c #534846",
"G+	c #808187",
"H+	c #CCCCCC",
"I+	c #C4C5C5",
"J+	c #AEB0B0",
"K+	c #B0B2B2",
"L+	c #BABBBB",
"M+	c #BABABA",
"N+	c #909199",
"O+	c #6B5662",
"P+	c #614C51",
"Q+	c #685F59",
"R+	c #9E9CA0",
"S+	c #CFD0D0",
"T+	c #B8B9B9",
"U+	c #A8A9AA",
"V+	c #A9AAAB",
"W+	c #AEAFAF",
"X+	c #C4C4C4",
"Y+	c #D9D9D9",
"Z+	c #B7B8B8",
"`+	c #AFAFB0",
" @	c #A1A2A3",
".@	c #A2A3A4",
"+@	c #A6A7A8",
"@@	c #ACADAE",
"#@	c #B6B6B7",
"$@	c #BDBEBE",
"%@	c #C2C2C3",
"&@	c #C6C7C7",
"*@	c #C9CACA",
"=@	c #C0C0C1",
"-@	c #ABACAD",
";@	c #A3A4A5",
">@	c #9B9B9C",
". . . . . . . . . . . . . . . . . ",
"+ + + + + + + + + + + + + + + + + ",
"@ @ # $ % # & * * = * @ % - ; $ - ",
"> > , ; - # ' ) ! ~ { ] ' , ^ > / ",
"{ / , # ( _ : < [ } | 1 2 3 ^ ^ { ",
"! 3 4 3 | 5 6 7 8 9 0 a b _ ~ c d ",
"e ) ^ f g h i j < k l m n o p d e ",
"q { d r s t u < < v w x y z A B C ",
"B D B E F G < < v H E I J K L M N ",
": d M E I < < v H E O P G D Q < R ",
"n B M S T G U H E O V W X Y Z ` o ",
" ...+.` @.#.$.E O P T %.&.*.=.E -.",
";.-.S P >.,.'.O P L V ).!.=.~.` < ",
"< ;.{.>.].^./.j h U (._.P :.(.` <.",
"<.H E >.[.).H R D !.} }.,.|.1.{.H ",
"O 2.2.P 3.).m U 4.5.6.6 ~.7.5 8.2.",
"1.8.5 P 1.7.9.0.a.0.~.b.c.1.d.e.[ ",
"[ [ [ [ [ f.L g.>.>.g.L f.[ [ [ [ ",
"+ + + + + + + + + + + + + + + + + ",
". . . . . . . . . . . . . . . . . ",
"+ + + + + + + + + + + + + + + + + ",
"h.h.h.h.h.h.h.h.h.h.h.h.h.h.h.h.h.",
"i.i.i.i.i.i.i.i.i.i.i.i.i.i.i.i.i.",
"j.k.l.m.n.o.p.q.r.s.t.u.v.w.x.y.j.",
"z.A.B.C.f.L D.E.F.G.H.I.J.K.L.M.z.",
"N.O.P.P L w i Q.R.S.T.U.V.W.X.Y.N.",
"Z.`.8.1. +t u .+++@+#+$+%+&+*+=+Z.",
"-+;+8.5 >+,+'+)+!+~+{+]+^+/+(+_+-+",
":+<+E O [+}+|+1+2+3+4+5+6+1 7+8+:+",
"9+0+` a+b+c+d+e+f+g+h+i+j+e Y k+9+",
"l+m+<.E n+o+p+q+r+s+t+u+v+d w+x+l+",
"y+z+*.a {.A+B+C+D+E+F+G+H+d w+I+y+",
"J+K+L+n M+o N+O+P+Q+R+f d ~ S+T+J+",
"U+V+W+n X+f 1 Y+q q 2 ~ ~ !.Z+`+U+",
" @ @.@+@@@#@$@%@&@*@&@=@r.-@+@;@ @",
">@>@>@>@>@>@>@>@>@>@>@>@>@>@>@>@>@",
"g.g.g.g.g.g.g.g.g.g.g.g.g.g.g.g.g.",
"+ + + + + + + + + + + + + + + + + "};
