/* XPM */
static char * maximizeA_xpm[] = {
"17 38 347 2",
"  	c None",
". 	c #4D4D4D",
"+ 	c #333333",
"@ 	c #F4F4F4",
"# 	c #F3F3F3",
"$ 	c #F2F2F2",
"% 	c #F7F7F7",
"& 	c #F9F9F9",
"* 	c #F8F8F8",
"= 	c #FBFBFB",
"- 	c #FFFBFF",
"; 	c #FFF6FB",
"> 	c #FFFEFA",
", 	c #F7F4ED",
"' 	c #FCFBF9",
") 	c #F8F8F6",
"! 	c #F7F9F6",
"~ 	c #F0F3FA",
"{ 	c #F5F5F5",
"] 	c #F6F6F6",
"^ 	c #E9E9E9",
"/ 	c #EAEAEA",
"( 	c #EDEDED",
"_ 	c #F1F1F1",
": 	c #EEEEEE",
"< 	c #E2DEDB",
"[ 	c #F0EDE4",
"} 	c #D9DAD2",
"| 	c #EFF3E4",
"1 	c #E2E5DA",
"2 	c #EFF1EE",
"3 	c #ECEEEB",
"4 	c #E7E7EF",
"5 	c #EBEBEB",
"6 	c #ECECEC",
"7 	c #E5E5E5",
"8 	c #F0F0F0",
"9 	c #D9D9D9",
"0 	c #C2C2C2",
"a 	c #B2B3B8",
"b 	c #9B9EA5",
"c 	c #B1B8B0",
"d 	c #C3CBCE",
"e 	c #CDD5D7",
"f 	c #DCE2D8",
"g 	c #E2E3E8",
"h 	c #EDEBEC",
"i 	c #E6E6E6",
"j 	c #E8E8E8",
"k 	c #E1E1E1",
"l 	c #D2D2D2",
"m 	c #989898",
"n 	c #696969",
"o 	c #514B57",
"p 	c #3C3B39",
"q 	c #545859",
"r 	c #75778C",
"s 	c #ABAEBD",
"t 	c #C6CBC7",
"u 	c #D4D4D6",
"v 	c #E6E1E5",
"w 	c #DEDEDE",
"x 	c #D0D0D0",
"y 	c #979797",
"z 	c #525252",
"A 	c #3D3D3D",
"B 	c #6C573C",
"C 	c #D1C883",
"D 	c #5D5443",
"E 	c #3B363A",
"F 	c #69686D",
"G 	c #BCBBC3",
"H 	c #C0C1AF",
"I 	c #CDC7D5",
"J 	c #D8D8D8",
"K 	c #DFDFDF",
"L 	c #D7D7D7",
"M 	c #E0E0E0",
"N 	c #B9B9B9",
"O 	c #3F3F3F",
"P 	c #666666",
"Q 	c #E8C766",
"R 	c #E2CB63",
"S 	c #CEC068",
"T 	c #63554A",
"U 	c #3E3838",
"V 	c #94977C",
"W 	c #C5C3C6",
"X 	c #B4B1B8",
"Y 	c #CFCFCF",
"Z 	c #CCCEC9",
"` 	c #DFE4DE",
" .	c #C7C7D1",
"..	c #ADA5BC",
"+.	c #57484F",
"@.	c #66542E",
"#.	c #DFCD81",
"$.	c #E0C957",
"%.	c #E0C844",
"&.	c #E4BF57",
"*.	c #D7B44C",
"=.	c #5A403F",
"-.	c #6B6C6E",
";.	c #CDD6D5",
">.	c #9B969A",
",.	c #CBCBCB",
"'.	c #C3C3C1",
").	c #D6D9D2",
"!.	c #CBCDC8",
"~.	c #9F9E99",
"{.	c #4E492C",
"].	c #CDC682",
"^.	c #D5CD68",
"/.	c #E7C15E",
"(.	c #E4B951",
"_.	c #DDB52F",
":.	c #D3B725",
"<.	c #B1A93E",
"[.	c #595748",
"}.	c #DDDBE0",
"|.	c #8B817F",
"1.	c #B2B2B2",
"2.	c #C7C7C7",
"3.	c #BBBCB6",
"4.	c #C9CBCA",
"5.	c #B7BAC3",
"6.	c #AAA9B9",
"7.	c #554F5B",
"8.	c #5C534E",
"9.	c #675C4A",
"0.	c #D8BA48",
"a.	c #DAB936",
"b.	c #D7BB34",
"c.	c #604440",
"d.	c #484735",
"e.	c #707589",
"f.	c #D2DBD6",
"g.	c #757984",
"h.	c #A8A8A8",
"i.	c #BEBEBE",
"j.	c #BDBBBE",
"k.	c #C6C7CC",
"l.	c #ACAFB6",
"m.	c #A6A9AE",
"n.	c #7D7E80",
"o.	c #545351",
"p.	c #615E59",
"q.	c #D8B533",
"r.	c #E1BB32",
"s.	c #CAAF22",
"t.	c #604B4A",
"u.	c #464832",
"v.	c #AEADB3",
"w.	c #BABBAB",
"x.	c #7F7F7D",
"y.	c #B6B6B6",
"z.	c #B5B3B4",
"A.	c #ABADA8",
"B.	c #969C90",
"C.	c #A6AC9E",
"D.	c #666A5C",
"E.	c #6B6E65",
"F.	c #CEB534",
"G.	c #C0A520",
"H.	c #B4A32F",
"I.	c #534846",
"J.	c #7C7F88",
"K.	c #CFD1D0",
"L.	c #808074",
"M.	c #87868E",
"N.	c #A5A5A5",
"O.	c #ABACA7",
"P.	c #ACACAA",
"Q.	c #ABABAD",
"R.	c #95969B",
"S.	c #9494A0",
"T.	c #ACAABF",
"U.	c #7A7A92",
"V.	c #6A525F",
"W.	c #614C51",
"X.	c #665B55",
"Y.	c #8B8C90",
"Z.	c #C3CBD8",
"`.	c #96A098",
" +	c #6D746D",
".+	c #898E92",
"++	c #A3A3A3",
"@+	c #AEAEAE",
"#+	c #A7A6AB",
"$+	c #A2A0A1",
"%+	c #979596",
"&+	c #858587",
"*+	c #808080",
"=+	c #A3A5A2",
"-+	c #D2C4BB",
";+	c #E4DAD8",
">+	c #D5CED5",
",+	c #BAB4B8",
"'+	c #8A8490",
")+	c #65626B",
"!+	c #847E80",
"~+	c #9D919B",
"{+	c #A7A7A7",
"]+	c #A4A5A0",
"^+	c #A0A098",
"/+	c #A3A29D",
"(+	c #9D999A",
"_+	c #959396",
":+	c #807F7D",
"<+	c #6B6C64",
"[+	c #575B5C",
"}+	c #515C60",
"|+	c #546265",
"1+	c #5A5F58",
"2+	c #727560",
"3+	c #7F828B",
"4+	c #8F9392",
"5+	c #9D97A1",
"6+	c #A1A1A1",
"7+	c #9D9D9D",
"8+	c #9E9E9E",
"9+	c #9B9B9B",
"0+	c #969696",
"a+	c #8F8F8F",
"b+	c #8B8B8B",
"c+	c #7F7F7F",
"d+	c #828282",
"e+	c #888888",
"f+	c #909090",
"g+	c #9C9C9C",
"h+	c #9F9F9F",
"i+	c #999999",
"j+	c #959595",
"k+	c #949494",
"l+	c #9A9A9A",
"m+	c #F6FAFE",
"n+	c #EFF4F7",
"o+	c #E9EDEF",
"p+	c #E6EAEC",
"q+	c #E4E7E9",
"r+	c #DFE2E4",
"s+	c #D5D8D9",
"t+	c #C1C3C4",
"u+	c #B6B8B9",
"v+	c #B2B4B5",
"w+	c #B4B5B6",
"x+	c #B3B5B5",
"y+	c #B8B9BA",
"z+	c #C0C2C3",
"A+	c #C2C4C5",
"B+	c #CACCCD",
"C+	c #D4D7D8",
"D+	c #E1E4E6",
"E+	c #E2E6E9",
"F+	c #DCDFE2",
"G+	c #D1D4D6",
"H+	c #B6B7B8",
"I+	c #737373",
"J+	c #534B56",
"K+	c #555857",
"L+	c #80808D",
"M+	c #AAABAC",
"N+	c #BEC0C2",
"O+	c #C3C5C7",
"P+	c #BFC1C2",
"Q+	c #D2D5D7",
"R+	c #DCDFE1",
"S+	c #D0D2D4",
"T+	c #B0B1B1",
"U+	c #575757",
"V+	c #6E6C70",
"W+	c #B1B2B3",
"X+	c #C3C5C6",
"Y+	c #C8C9CA",
"Z+	c #C9CBCC",
"`+	c #D5D8DB",
" @	c #C1C2C4",
".@	c #717171",
"+@	c #9B9D8E",
"@@	c #BFBFC0",
"#@	c #C4C5C6",
"$@	c #C7C8CA",
"%@	c #CFD2D4",
"&@	c #BEC0C1",
"*@	c #56484F",
"=@	c #6B6D6E",
"-@	c #C5C5C5",
";@	c #C7C8C8",
">@	c #C5C6C7",
",@	c #C8CBCD",
"'@	c #BCBEBF",
")@	c #A4A4A4",
"!@	c #A0A0A0",
"~@	c #CDCDCD",
"{@	c #C7C8C9",
"]@	c #C2C4C6",
"^@	c #BABBBC",
"/@	c #554F59",
"(@	c #717686",
"_@	c #DADADA",
":@	c #C9CACB",
"<@	c #BBBDBF",
"[@	c #B9BABB",
"}@	c #AAAAAA",
"|@	c #828185",
"1@	c #AEAFAC",
"2@	c #C8C9C9",
"3@	c #B5B7B7",
"4@	c #B7B9B9",
"5@	c #B8B8B8",
"6@	c #A6A6A6",
"7@	c #6A6D61",
"8@	c #808187",
"9@	c #CCCCCC",
"0@	c #C4C5C5",
"a@	c #AEB0B0",
"b@	c #B0B2B2",
"c@	c #BABBBB",
"d@	c #BCBCBC",
"e@	c #BABABA",
"f@	c #909199",
"g@	c #6B5662",
"h@	c #685F59",
"i@	c #9E9CA0",
"j@	c #CFD0D0",
"k@	c #B8B9B9",
"l@	c #A8A9AA",
"m@	c #A9AAAB",
"n@	c #AEAFAF",
"o@	c #C4C4C4",
"p@	c #D6D6D6",
"q@	c #DDDDDD",
"r@	c #B7B8B8",
"s@	c #AFAFB0",
"t@	c #A1A2A3",
"u@	c #A2A3A4",
"v@	c #A6A7A8",
"w@	c #ACADAE",
"x@	c #B6B6B7",
"y@	c #BDBEBE",
"z@	c #C2C2C3",
"A@	c #C6C7C7",
"B@	c #C9CACA",
"C@	c #C0C0C1",
"D@	c #ABACAD",
"E@	c #A3A4A5",
"F@	c #9B9B9C",
". . . . . . . . . . . . . . . . . ",
"+ + + + + + + + + + + + + + + + + ",
"@ # $ % & * = - ; > , ' ) ! ~ { ] ",
"^ / ( # ] _ : < [ } | 1 2 3 4 5 6 ",
"7 : 8 _ 8 9 0 a b c d e f g h i j ",
"k 6 ( ^ l m n o p q r s t u v k i ",
"w j 7 x y z A B C D E F G H I J K ",
"L 7 M N n O P Q R S T U V W X Y L ",
"Z `  ...+.@.#.$.%.&.*.=.-.;.>.0 ,.",
"'.).!.~.{.].^./.(._.:.<.[.}.|.1.2.",
"3.4.5.6.7.8.9.0.a.b.c.d.e.f.g.h.i.",
"j.k.l.m.n.o.p.q.r.s.t.u.v.w.x.h.y.",
"z.N A.B.C.D.E.F.G.H.I.J.K.L.M.N.1.",
"O.P.Q.R.S.T.U.V.W.X.Y.Z.`. +.+++@+",
"#+@+$+%+&+*+=+-+;+>+,+'+)+!+~+++{+",
"]+^+/+(+_+:+<+[+}+|+1+2+3+4+5+6+6+",
"7+8+8+9+0+a+b+*+c+c+d+e+f+y 9+g+7+",
"7+8+h+8+g+i+0+y j+k+k+y l+7+8+7+7+",
"+ + + + + + + + + + + + + + + + + ",
". . . . . . . . . . . . . . . . . ",
"+ + + + + + + + + + + + + + + + + ",
"m+m+m+m+m+m+m+m+m+m+m+m+m+m+m+m+m+",
"n+n+n+n+n+n+n+n+n+n+n+n+n+n+n+n+n+",
"o+p+q+r+s+t+u+v+w+x+y+z+A+B+C+D+o+",
"E+F+G+H+i+y I+J+p K+L+M+N+O+P+Q+E+",
"R+S+T+g+y U+A B C D E V+W+X+Y+Z+R+",
"`+ @6+l+.@O P Q R S T U +@@@#@$@`+",
"%@&@6+9+*@@.#.$.%.&.*.=.=@-@;@>@%@",
",@'@)@!@{.].^./.(._.:.<.[.l ~@{@,@",
"]@^@N.++/@8.9.0.a.b.c.d.(@_@L :@]@",
"<@[@}@)@|@o.p.q.r.s.t.u.1@K J 2@<@",
"3@4@5@@+6@7@E.F.G.H.I.8@9@K J 0@3@",
"a@b@c@d@e@i.f@g@W.h@i@,.K k j@k@a@",
"l@m@n@d@o@,.l 9 p@p@q@k k x r@s@l@",
"t@t@u@v@w@x@y@z@A@B@A@C@w+D@v@E@t@",
"F@F@F@F@F@F@F@F@F@F@F@F@F@F@F@F@F@",
"j+j+j+j+j+j+j+j+j+j+j+j+j+j+j+j+j+",
"+ + + + + + + + + + + + + + + + + "};
