/* XPM */
static char * menuButtonA_xpm[] = {
"21 38 448 2",
"  	c None",
". 	c #4D4D4D",
"+ 	c #333333",
"@ 	c #93ACD4",
"# 	c #99AFD6",
"$ 	c #99ADD2",
"% 	c #98ABD6",
"& 	c #95ACDE",
"* 	c #91A7D8",
"= 	c #96A8D6",
"- 	c #9BACD8",
"; 	c #98AAD8",
"> 	c #98AADA",
", 	c #94A9D8",
"' 	c #94ABD7",
") 	c #95ACD8",
"! 	c #93ABD9",
"~ 	c #92AAD8",
"{ 	c #96AEDC",
"] 	c #96B1E0",
"^ 	c #6382C6",
"/ 	c #6385C5",
"( 	c #6589C5",
"_ 	c #6C8ECE",
": 	c #6B8FC9",
"< 	c #7093CB",
"[ 	c #7F9FD2",
"} 	c #8CABDA",
"| 	c #8FAEDC",
"1 	c #90AFDE",
"2 	c #8EACDE",
"3 	c #88A8DB",
"4 	c #7B9ED6",
"5 	c #7195CF",
"6 	c #6990CB",
"7 	c #5F87C4",
"8 	c #5E87C5",
"9 	c #668FCD",
"0 	c #608DC8",
"a 	c #5E8CC0",
"b 	c #5D8AC1",
"c 	c #7C94C4",
"d 	c #8BA2CE",
"e 	c #9CB2D7",
"f 	c #ABBEDE",
"g 	c #B6C7E5",
"h 	c #B9C9EA",
"i 	c #ACBFE0",
"j 	c #9DAFD3",
"k 	c #8FA5D7",
"l 	c #7D96CC",
"m 	c #7491C9",
"n 	c #6D8DC8",
"o 	c #6286C4",
"p 	c #6080C1",
"q 	c #5A88C4",
"r 	c #5E8DC5",
"s 	c #6693CE",
"t 	c #849BCF",
"u 	c #9CB2E1",
"v 	c #B0C3EB",
"w 	c #B4C4E5",
"x 	c #A9B8D5",
"y 	c #99A8C5",
"z 	c #97A6C7",
"A 	c #A2B0D5",
"B 	c #90A3DB",
"C 	c #8197D1",
"D 	c #6C8ACA",
"E 	c #698CD0",
"F 	c #658BD2",
"G 	c #5D83CA",
"H 	c #5C7DBD",
"I 	c #5D86C8",
"J 	c #5E86C4",
"K 	c #6E91D5",
"L 	c #91AEDA",
"M 	c #A8C4EB",
"N 	c #A2BBD9",
"O 	c #768CA1",
"P 	c #435869",
"Q 	c #213647",
"R 	c #263A52",
"S 	c #445873",
"T 	c #748DB6",
"U 	c #809FCD",
"V 	c #6388BC",
"W 	c #517EB7",
"X 	c #5788C3",
"Y 	c #5283BE",
"Z 	c #587AB9",
"` 	c #577FB3",
" .	c #5C80B4",
"..	c #7998D1",
"+.	c #99ABDB",
"@.	c #A4B3DC",
"#.	c #7784A4",
"$.	c #333E54",
"%.	c #1C2536",
"&.	c #20283B",
"*.	c #212940",
"=.	c #222945",
"-.	c #334367",
";.	c #778DB6",
">.	c #6C88B7",
",.	c #5275AB",
"'.	c #5881B9",
").	c #567FB7",
"!.	c #5577B5",
"~.	c #557FB9",
"{.	c #557EB4",
"].	c #7498D2",
"^.	c #8BA6D1",
"/.	c #9FB1DF",
"(.	c #495175",
"_.	c #28263C",
":.	c #2B2A38",
"<.	c #2B333E",
"[.	c #1E2E3E",
"}.	c #243352",
"|.	c #402E3A",
"1.	c #59587A",
"2.	c #7F95C4",
"3.	c #426992",
"4.	c #4972A0",
"5.	c #5679B9",
"6.	c #5174B1",
"7.	c #527CB6",
"8.	c #527BB1",
"9.	c #6F93CD",
"0.	c #8FA2C2",
"a.	c #91A2CE",
"b.	c #56632B",
"c.	c #D7D727",
"d.	c #EEDD1D",
"e.	c #E5D01B",
"f.	c #EEDB1C",
"g.	c #F1D623",
"h.	c #C5D33E",
"i.	c #637539",
"j.	c #8FA7BF",
"k.	c #335585",
"l.	c #406697",
"m.	c #5175B1",
"n.	c #4E71AD",
"o.	c #4D77B1",
"p.	c #4E77AD",
"q.	c #668AC4",
"r.	c #6786C7",
"s.	c #8FABDD",
"t.	c #2C3A45",
"u.	c #847C33",
"v.	c #F3D829",
"w.	c #FFDF00",
"x.	c #FFDD0C",
"y.	c #FFDA1B",
"z.	c #788446",
"A.	c #3F4A50",
"B.	c #8C9DD1",
"C.	c #2C4975",
"D.	c #3F6184",
"E.	c #4F73A7",
"F.	c #4A6FA9",
"G.	c #4974AB",
"H.	c #4972A6",
"I.	c #5A7EB8",
"J.	c #5688AD",
"K.	c #7699C1",
"L.	c #4A6288",
"M.	c #202B3F",
"N.	c #807639",
"O.	c #F1DB26",
"P.	c #F9E335",
"Q.	c #7B6A32",
"R.	c #3F475E",
"S.	c #6B77A1",
"T.	c #7788B4",
"U.	c #26415C",
"V.	c #3A5B7A",
"W.	c #486BA3",
"X.	c #466CA5",
"Y.	c #4570A7",
"Z.	c #446DA1",
"`.	c #4E73AA",
" +	c #4A69AA",
".+	c #667DB3",
"++	c #738BB1",
"@+	c #3C5075",
"#+	c #404447",
"$+	c #7B732A",
"%+	c #73752A",
"&+	c #475464",
"*+	c #5B6C7C",
"=+	c #8294AC",
"-+	c #4A5D7D",
";+	c #2A4266",
">+	c #3D5C88",
",+	c #42679C",
"'+	c #4369A1",
")+	c #426DA4",
"!+	c #416A9E",
"~+	c #456AA1",
"{+	c #4863A8",
"]+	c #395E8B",
"^+	c #5D80AA",
"/+	c #7D94C0",
"(+	c #5C6689",
"_+	c #515D77",
":+	c #51637B",
"<+	c #668192",
"[+	c #8495C1",
"}+	c #55678D",
"|+	c #23355D",
"1+	c #2E4674",
"2+	c #3E5F92",
"3+	c #436D9F",
"4+	c #3F669D",
"5+	c #3E69A0",
"6+	c #3E689A",
"7+	c #3F649B",
"8+	c #3C6789",
"9+	c #275590",
"0+	c #245172",
"a+	c #4D6B85",
"b+	c #7080BE",
"c+	c #8AA1D3",
"d+	c #87A5BD",
"e+	c #6C80B3",
"f+	c #435873",
"g+	c #1E324A",
"h+	c #263C54",
"i+	c #38567A",
"j+	c #355D90",
"k+	c #3B64A2",
"l+	c #3B6399",
"m+	c #3C679C",
"n+	c #3D6799",
"o+	c #3C6198",
"p+	c #3B628D",
"q+	c #3D6088",
"r+	c #35527A",
"s+	c #2F4471",
"t+	c #283A62",
"u+	c #192E43",
"v+	c #203344",
"w+	c #1C294C",
"x+	c #1F3453",
"y+	c #2A3C64",
"z+	c #354A75",
"A+	c #3C5C85",
"B+	c #386493",
"C+	c #36639E",
"D+	c #376094",
"E+	c #3C6297",
"F+	c #3D649B",
"G+	c #33609A",
"H+	c #3A5E96",
"I+	c #405F98",
"J+	c #385791",
"K+	c #335688",
"L+	c #34547D",
"M+	c #334D72",
"N+	c #304B70",
"O+	c #2D4B6E",
"P+	c #2D5284",
"Q+	c #325788",
"R+	c #375C8F",
"S+	c #3B6094",
"T+	c #3B5F95",
"U+	c #3B5F97",
"V+	c #376095",
"W+	c #3C6094",
"X+	c #385B8D",
"Y+	c #395C8F",
"Z+	c #385C8F",
"`+	c #375D8D",
" @	c #375E8C",
".@	c #385D8D",
"+@	c #385B90",
"@@	c #36598F",
"#@	c #385B8E",
"$@	c #385D8F",
"%@	c #385C8E",
"&@	c #395D8F",
"*@	c #91ACDB",
"=@	c #90ABDA",
"-@	c #6281C5",
";@	c #6180C2",
">@	c #6180C4",
",@	c #5B7CBC",
"'@	c #5878B5",
")@	c #506DA7",
"!@	c #405A8B",
"~@	c #364F78",
"{@	c #334973",
"]@	c #344D71",
"^@	c #324B70",
"/@	c #395080",
"(@	c #415B8F",
"_@	c #456395",
":@	c #4F70A6",
"<@	c #5576B2",
"[@	c #5D7DBF",
"}@	c #597ABB",
"|@	c #4E70AC",
"1@	c #3C5982",
"2@	c #20364E",
"3@	c #1D3149",
"4@	c #1E3249",
"5@	c #263B56",
"6@	c #2D4061",
"7@	c #314A6C",
"8@	c #3D5C8A",
"9@	c #4266A2",
"0@	c #476F9B",
"a@	c #5677B5",
"b@	c #5175AF",
"c@	c #375785",
"d@	c #243D5E",
"e@	c #1E324E",
"f@	c #213646",
"g@	c #263A51",
"h@	c #3B4F69",
"i@	c #3C5374",
"j@	c #3A557C",
"k@	c #46699E",
"l@	c #5371B3",
"m@	c #5174B0",
"n@	c #5678B7",
"o@	c #47689E",
"p@	c #2B4568",
"q@	c #213A58",
"r@	c #1E324C",
"s@	c #334368",
"t@	c #465D7F",
"u@	c #5B74A6",
"v@	c #5978B5",
"w@	c #5477B2",
"x@	c #5376B3",
"y@	c #47679C",
"z@	c #2A4667",
"A@	c #243B58",
"B@	c #23374E",
"C@	c #4F5678",
"D@	c #6D8BB2",
"E@	c #6991BA",
"F@	c #597CB7",
"G@	c #5074B0",
"H@	c #496BA0",
"I@	c #304C71",
"J@	c #2A4260",
"K@	c #2B3F51",
"L@	c #54612C",
"M@	c #5F7239",
"N@	c #8FA7D4",
"O@	c #829CD2",
"P@	c #6487BF",
"Q@	c #496BA3",
"R@	c #324E74",
"S@	c #2F4967",
"T@	c #33485C",
"U@	c #2E3C44",
"V@	c #3F4A4E",
"W@	c #A1B3DC",
"X@	c #98ADD4",
"Y@	c #7090C7",
"Z@	c #4C6FAA",
"`@	c #395880",
" #	c #314B6B",
".#	c #324761",
"+#	c #4B5E7F",
"@#	c #626D95",
"##	c #ABBEE7",
"$#	c #98B0DB",
"%#	c #7091C9",
"&#	c #4C73AB",
"*#	c #4D74A9",
"=#	c #405F8A",
"-#	c #364E6D",
";#	c #4F6486",
">#	c #3B4F74",
",#	c #596A7A",
"'#	c #8999B9",
")#	c #ACBEE6",
"!#	c #9BB0DD",
"~#	c #6A8BC2",
"{#	c #456DA5",
"]#	c #527CB7",
"^#	c #577DB6",
"/#	c #5976A7",
"(#	c #637DAA",
"_#	c #7088B1",
":#	c #546182",
"<#	c #4F5B75",
"[#	c #4F6178",
"}#	c #5C7586",
"|#	c #8499B6",
"1#	c #A9BFE2",
"2#	c #ACC3EB",
"3#	c #87A4D2",
"4#	c #5479B6",
"5#	c #446AA3",
"6#	c #4A70AB",
"7#	c #5D81C1",
"8#	c #6B89C9",
"9#	c #8096D0",
"0#	c #A3B1D6",
"a#	c #9CACCF",
"b#	c #9DADCC",
"c#	c #AAB9D9",
"d#	c #B2C3E7",
"e#	c #8BA5D4",
"f#	c #5C7CB2",
"g#	c #4870A8",
"h#	c #3C639A",
"i#	c #40679E",
"j#	c #4268A0",
"k#	c #466CA4",
"l#	c #4F73AA",
"m#	c #5E7EB5",
"n#	c #6E8BBE",
"o#	c #7993BF",
"p#	c #819CC6",
"q#	c #88A1CC",
"r#	c #839DC7",
"s#	c #7592BF",
"t#	c #5F80B1",
"u#	c #4D71A5",
"v#	c #43699E",
"w#	c #3D659B",
"x#	c #386196",
"y#	c #3A6297",
"z#	c #3A6298",
"A#	c #396197",
"B#	c #386096",
"C#	c #395E91",
"D#	c #375B8D",
"E#	c #355B89",
"F#	c #375E8E",
"G#	c #385D8E",
"H#	c #3B6097",
"I#	c #3B6197",
"J#	c #36598B",
"K#	c #375A8B",
"L#	c #385B8C",
"M#	c #395C90",
"N#	c #3A5E93",
"O#	c #3A5F95",
". . . . . . . . . . . . . . . . . . . . . ",
"+ + + + + + + + + + + + + + + + + + + + + ",
"@ @ # $ % & * = - - ; > , ' ) ! ~ { ] ) ) ",
"^ ^ / ( _ : < [ } | 1 2 3 4 5 6 7 8 9 ^ ^ ",
"^ ^ 0 a b c d e f g h i j k l m n o o ^ ^ ",
"p p q r s t u v w x y z A B C D E F G p p ",
"H H I J K L M N O P Q R S T U V W X Y H H ",
"Z Z `  ...+.@.#.$.%.&.*.=.-.;.>.,.'.).Z Z ",
"!.!.~.{.].^./.(._.:.<.[.}.|.1.2.3.4.5.!.!.",
"6.6.7.8.9.0.a.b.c.d.e.f.g.h.i.j.k.l.m.6.6.",
"n.n.o.p.q.r.s.t.u.v.w.x.y.z.A.B.C.D.E.n.n.",
"F.F.G.H.I.J.K.L.M.N.O.P.Q.R.S.T.U.V.W.F.F.",
"X.X.Y.Z.`. +.+++@+#+$+%+&+*+=+-+;+>+,+X.X.",
"'+'+)+!+~+{+]+^+/+(+_+:+<+[+}+|+1+2+3+'+'+",
"4+4+5+6+7+8+9+0+a+b+c+d+e+f+g+h+i+j+k+4+4+",
"l+l+m+n+o+p+q+r+s+t+u+v+w+x+y+z+A+B+C+l+l+",
"D+D+E+F+G+H+I+J+K+L+M+N+O+P+Q+R+S+T+U+V+V+",
"D+D+W+X+Y+Z+`+ @.@+@@@#@$@X+%@Y+&@Y+Y+D+D+",
"+ + + + + + + + + + + + + + + + + + + + + ",
". . . . . . . . . . . . . . . . . . . . . ",
"+ + + + + + + + + + + + + + + + + + + + + ",
"@ @ % & * = - - ; > , ' ) ! ~ { ] *@=@) ) ",
"^ ^ ^ ^ ^ -@;@;@;@;@;@-@^ ^ ^ ^ ^ ^ ^ ^ ^ ",
"^ ^ ^ >@,@'@)@!@~@{@]@^@/@(@_@:@<@[@^ ^ ^ ",
"p p p }@|@1@2@g+g+3@4@5@6@7@8@9@0@a@p p p ",
"H H ,@b@c@d@e@g+g+g+f@g@h@i@j@k@l@m@H H H ",
"Z Z n@o@p@q@r@g+g+%.&.*.=.s@t@u@v@w@Z Z Z ",
"!.!.x@y@z@A@B@g+_.:.<.[.}.|.C@D@E@F@!.!.!.",
"6.6.G@H@I@J@K@L@c.d.e.f.g.h.M@N@O@P@6.6.6.",
"n.n.n.Q@R@S@T@U@u.v.w.x.y.z.V@W@X@Y@n.n.n.",
"F.F.F.Z@`@ #.#+#M.N.O.P.Q.R.@###$#%#F.F.F.",
"X.X.X.&#*#=#-#;#>##+$+%+&+,#'#)#!#~#X.X.X.",
"'+'+'+{#]#^#/#(#_#:#<#[#}#|#1#2#3#4#'+'+'+",
"4+4+4+5#6#7#8#9#B 0#a#b#c#d#v e#f#g#4+4+4+",
"l+l+h#i#j#k#l#m#n#o#p#q#r#s#t#u#v#w#h#l+l+",
"D+D+x#y#x#F+F+w#F+F+F+F+F+l+z#z#A#B#B#V+V+",
"D+D+C#D#E#F#G#H#I#R+D#J#K#L#X+X+M#N#O#D+D+",
"+ + + + + + + + + + + + + + + + + + + + + "};
