/* XPM */
static char * menuButtonI_xpm[] = {
"21 38 158 2",
"  	c None",
". 	c #4F4F4F",
"+ 	c #4E4E4E",
"@ 	c #323232",
"# 	c #333333",
"$ 	c #B7B7B7",
"% 	c #B6B6B6",
"& 	c #B9B9B9",
"* 	c #B8B8B8",
"= 	c #B5B5B5",
"- 	c #949494",
"; 	c #959595",
"> 	c #969696",
", 	c #979797",
"' 	c #9C9C9C",
") 	c #A6A6A6",
"! 	c #AFAFAF",
"~ 	c #B1B1B1",
"{ 	c #ACACAC",
"] 	c #A5A5A5",
"^ 	c #9E9E9E",
"/ 	c #989898",
"( 	c #909090",
"_ 	c #939393",
": 	c #9F9F9F",
"< 	c #BFBFBF",
"[ 	c #C9C9C9",
"} 	c #CDCDCD",
"| 	c #C4C4C4",
"1 	c #BDBDBD",
"2 	c #B3B3B3",
"3 	c #8D8D8D",
"4 	c #999999",
"5 	c #ABABAB",
"6 	c #BEBEBE",
"7 	c #C8C8C8",
"8 	c #BCBCBC",
"9 	c #BABABA",
"0 	c #A4A4A4",
"a 	c #9A9A9A",
"b 	c #929292",
"c 	c #8A8A8A",
"d 	c #8E8E8E",
"e 	c #C3C3C3",
"f 	c #C6C6C6",
"g 	c #8F8F8F",
"h 	c #575757",
"i 	c #353535",
"j 	c #383838",
"k 	c #5B5B5B",
"l 	c #8B8B8B",
"m 	c #888888",
"n 	c #878787",
"o 	c #898989",
"p 	c #8C8C8C",
"q 	c #404040",
"r 	c #303030",
"s 	c #2C2C2C",
"t 	c #2D2D2D",
"u 	c #4B4B4B",
"v 	c #808080",
"w 	c #848484",
"x 	c #858585",
"y 	c #AEAEAE",
"z 	c #585858",
"A 	c #2F2F2F",
"B 	c #363636",
"C 	c #343434",
"D 	c #313131",
"E 	c #686868",
"F 	c #707070",
"G 	c #777777",
"H 	c #818181",
"I 	c #828282",
"J 	c #A8A8A8",
"K 	c #464646",
"L 	c #A0A0A0",
"M 	c #A3A3A3",
"N 	c #5D5D5D",
"O 	c #AAAAAA",
"P 	c #6E6E6E",
"Q 	c #7F7F7F",
"R 	c #7E7E7E",
"S 	c #B2B2B2",
"T 	c #3C3C3C",
"U 	c #7B7B7B",
"V 	c #A1A1A1",
"W 	c #505050",
"X 	c #B0B0B0",
"Y 	c #636363",
"Z 	c #797979",
"` 	c #7A7A7A",
" .	c #838383",
"..	c #6A6A6A",
"+.	c #515151",
"@.	c #5E5E5E",
"#.	c #737373",
"$.	c #757575",
"%.	c #787878",
"&.	c #5A5A5A",
"*.	c #676767",
"=.	c #767676",
"-.	c #747474",
";.	c #6B6B6B",
">.	c #9D9D9D",
",.	c #6F6F6F",
"'.	c #6D6D6D",
").	c #717171",
"!.	c #646464",
"~.	c #666666",
"{.	c #5F5F5F",
"].	c #868686",
"^.	c #6C6C6C",
"/.	c #696969",
"(.	c #616161",
"_.	c #565656",
":.	c #424242",
"<.	c #595959",
"[.	c #656565",
"}.	c #3E3E3E",
"|.	c #3A3A3A",
"1.	c #373737",
"2.	c #444444",
"3.	c #626262",
"4.	c #545454",
"5.	c #4D4D4D",
"6.	c #494949",
"7.	c #474747",
"8.	c #606060",
"9.	c #A7A7A7",
"0.	c #A9A9A9",
"a.	c #7C7C7C",
"b.	c #555555",
"c.	c #525252",
"d.	c #7D7D7D",
"e.	c #393939",
"f.	c #414141",
"g.	c #434343",
"h.	c #3B3B3B",
"i.	c #3F3F3F",
"j.	c #4C4C4C",
"k.	c #3D3D3D",
"l.	c #484848",
"m.	c #C5C5C5",
"n.	c #CECECE",
"o.	c #CCCCCC",
"p.	c #C0C0C0",
"q.	c #D1D1D1",
"r.	c #ADADAD",
"s.	c #919191",
"t.	c #727272",
"u.	c #5C5C5C",
"v.	c #CFCFCF",
"w.	c #D7D7D7",
"x.	c #535353",
"y.	c #C2C2C2",
"z.	c #BBBBBB",
"A.	c #A2A2A2",
". + + . + . + . + . + . . + . + . + . . + ",
"@ # # @ # @ # @ # @ # @ @ # @ # @ # @ @ # ",
"$ % % % & * = = % $ $ % $ % % $ $ % % $ % ",
"- - ; > > , ' ) ! * = ~ { ] ^ / , - - - - ",
"( ( - _ > : ! < [ } [ | 1 2 ) ' , _ _ ( ( ",
"3 3 ( ( 4 5 6 7 [ 8 9 & $ ! 0 a > b b 3 3 ",
"c c d _ , $ e f g h i j k - 0 - l d m c c ",
"n n o p ) $ 1 ; q r s t r u / 3 v w 3 n n ",
"w w c x : y & z r A A B C D E , F G m w w ",
"H H v I , J $ K L M : : 0 ' N O z P Q H H ",
"R R H x g / S T U V M J ' U W X . Y Z R R ",
"` ` Z ` o  .L ..z U V M Z +.R p K @.#.` ` ",
"G G Z $.%.G p d &.*.=.%.-.;.>.E K Y ,.G G ",
"-.-.-.=.'.).!.m > $.~.{.].: F C W ~.P -.-.",
").).,.^.)./.(.. P d M O c _.j :.<...^.).).",
"P P E ,.[.;.Y _.+.}.|.i @ 1.2._.3.E /.P P ",
";.;.....!...[.!.4.5.6.7.6.W <.8.Y ~.*.;.;.",
";.;.!.{.[.{.N {.@.@.N @.Y Y Y Y Y [.{.;.;.",
"# # # # # # # # # # # # # # # # # # # # # ",
". + 5.5.5.5.5.5.5.5.5.5.5.5.5.5.5.5.5.. + ",
"@ # # # # # # # # # # # # # # # # # # @ # ",
"$ ~ { O ] 9.5 5 0.0.9.J 0.J 9.5 y 0.5 ~ % ",
"- g m ].].x  . . . . .x ].].].].].].m p - ",
"( p n w Q a.).{.b.W c.W h 8.*.#.Z v ].c ( ",
"3 o w d.#.N T e.e.j e.f.7.. {./.P `  .n 3 ",
"c x H G k g.|.e.e.e.h.q 4.z &.^.=.G v w c ",
"n I d.^.u i.e.e.e.A @ C C j.(.Z a.Z d.H n ",
"w Q U ;.u f.k.e.C B h.i h.}.{.p d d.` R w ",
"H a.%.'.W l.2.{.m.n.| } o.p.'.J ^ m G U H ",
"R ` $.'.c.5.j.:.a.n.q.q.q.Q W = r.s.-.%.R ",
"` =.t.).u.. j.Y C Z v.w.,.W $.6 X b F -.` ",
"G #.P -.$.3.x./._.j.-.#.&.'.' < ~ p '.).G ",
"-.F ^.P a.d.Z v l E 3.~.=.a 6 y.0 U ..P -.",
").'./.^.t. .p a 9.2 y y z.e e ) R ).E ;.).",
"P ..~./...'.$.v p ; ' A.>._ H t.;.~.!.E P ",
";.*.Y Y 3.~.~.~.~.~.~.~.~.!.Y Y 3.(.(.[.;.",
";.~.3.N N {.{.3.Y @.N N N N @.@.{.(.(.[.;.",
"# # # # # # # # # # # # # # # # # # # # # "};
