/* XPM */
static char * minimizeI_xpm[] = {
"17 38 283 2",
"  	c None",
". 	c #4D4D4D",
"+ 	c #333333",
"@ 	c #F3F3F3",
"# 	c #F5F5F5",
"$ 	c #F6F6F6",
"% 	c #F8F8F8",
"& 	c #FDFDFD",
"* 	c #FAFAFA",
"= 	c #FFFFFF",
"- 	c #F4F4F4",
"; 	c #F2F2F2",
"> 	c #ECECEC",
", 	c #EDEDED",
"' 	c #EFEFEF",
") 	c #E8E8E8",
"! 	c #E2E2E2",
"~ 	c #E1E1E1",
"{ 	c #E6E6E6",
"] 	c #EAEAEA",
"^ 	c #E7E7E7",
"/ 	c #E9E9E9",
"( 	c #EEEEEE",
"_ 	c #D4D4D4",
": 	c #C2C2C2",
"< 	c #ADADAD",
"[ 	c #A2A2A2",
"} 	c #B1B1B1",
"| 	c #C8C8C8",
"1 	c #D2D2D2",
"2 	c #DDDDDD",
"3 	c #EBEBEB",
"4 	c #F0F0F0",
"5 	c #9E9E9E",
"6 	c #686868",
"7 	c #4A4A4A",
"8 	c #3E3E3E",
"9 	c #565656",
"0 	c #808080",
"a 	c #AAAAAA",
"b 	c #CACACA",
"c 	c #E3E3E3",
"d 	c #DFDFDF",
"e 	c #DADADA",
"f 	c #CBCBCB",
"g 	c #878787",
"h 	c #4F4F4F",
"i 	c #767676",
"j 	c #B2B2B2",
"k 	c #A4A4A4",
"l 	c #696969",
"m 	c #6E6E6E",
"n 	c #B8B8B8",
"o 	c #BEBEBE",
"p 	c #CFCFCF",
"q 	c #D6D6D6",
"r 	c #B6B6B6",
"s 	c #5F5F5F",
"t 	c #6F6F6F",
"u 	c #B4B4B4",
"v 	c #ACACAC",
"w 	c #5D5D5D",
"x 	c #535353",
"y 	c #909090",
"z 	c #D5D5D5",
"A 	c #DCDCDC",
"B 	c #494949",
"C 	c #545454",
"D 	c #6D6D6D",
"E 	c #AEAEAE",
"F 	c #575757",
"G 	c #434343",
"H 	c #707070",
"I 	c #979797",
"J 	c #BDBDBD",
"K 	c #D1D1D1",
"L 	c #3C3C3C",
"M 	c #B3B3B3",
"N 	c #A9A9A9",
"O 	c #A0A0A0",
"P 	c #9F9F9F",
"Q 	c #929292",
"R 	c #848484",
"S 	c #B0B0B0",
"T 	c #C7C7C7",
"U 	c #BCBCBC",
"V 	c #ABABAB",
"W 	c #4C4C4C",
"X 	c #AFAFAF",
"Y 	c #A1A1A1",
"Z 	c #9D9D9D",
"` 	c #3D3D3D",
" .	c #757575",
"..	c #7D7D7D",
"+.	c #A5A5A5",
"@.	c #B7B7B7",
"#.	c #C0C0C0",
"$.	c #6B6B6B",
"%.	c #585858",
"&.	c #999999",
"*.	c #989898",
"=.	c #393939",
"-.	c #BBBBBB",
";.	c #7E7E7E",
">.	c #B9B9B9",
",.	c #9C9C9C",
"'.	c #656565",
").	c #373737",
"!.	c #404040",
"~.	c #3A3A3A",
"{.	c #727272",
"].	c #CECECE",
"^.	c #8B8B8B",
"/.	c #818181",
"(.	c #A6A6A6",
"_.	c #949494",
":.	c #969696",
"<.	c #737373",
"[.	c #8C8C8C",
"}.	c #A8A8A8",
"|.	c #858585",
"1.	c #7F7F7F",
"2.	c #9A9A9A",
"3.	c #595959",
"4.	c #5B5B5B",
"5.	c #606060",
"6.	c #828282",
"7.	c #9B9B9B",
"8.	c #8A8A8A",
"9.	c #7A7A7A",
"0.	c #888888",
"a.	c #959595",
"b.	c #F6FAFE",
"c.	c #EFF4F7",
"d.	c #E9EDEF",
"e.	c #E6EAEC",
"f.	c #E4E7E9",
"g.	c #DFE2E4",
"h.	c #D5D8D9",
"i.	c #C1C3C4",
"j.	c #B6B8B9",
"k.	c #B2B4B5",
"l.	c #B4B5B6",
"m.	c #B3B5B5",
"n.	c #B8B9BA",
"o.	c #C0C2C3",
"p.	c #C2C4C5",
"q.	c #CACCCD",
"r.	c #D4D7D8",
"s.	c #E1E4E6",
"t.	c #E2E6E9",
"u.	c #DCDFE2",
"v.	c #D1D4D6",
"w.	c #B6B7B8",
"x.	c #654F52",
"y.	c #4C3932",
"z.	c #635C4A",
"A.	c #8E8B90",
"B.	c #AAABAC",
"C.	c #BEC0C2",
"D.	c #C3C5C7",
"E.	c #BFC1C2",
"F.	c #D2D5D7",
"G.	c #DCDFE1",
"H.	c #D0D2D4",
"I.	c #B0B1B1",
"J.	c #DCC15A",
"K.	c #DDCB5F",
"L.	c #C9C258",
"M.	c #766F52",
"N.	c #7F7C7D",
"O.	c #B1B2B3",
"P.	c #C3C5C6",
"Q.	c #C8C9CA",
"R.	c #C9CBCC",
"S.	c #D5D8DB",
"T.	c #C1C2C4",
"U.	c #7B7B7B",
"V.	c #EBC268",
"W.	c #E8CB67",
"X.	c #D5C563",
"Y.	c #6A5A4D",
"Z.	c #4F4752",
"`.	c #BFBFC0",
" +	c #C4C5C6",
".+	c #C7C8CA",
"++	c #CFD2D4",
"@+	c #BEC0C1",
"#+	c #534C50",
"$+	c #69555E",
"%+	c #766063",
"&+	c #E2C569",
"*+	c #E7C44C",
"=+	c #DFBE53",
"-+	c #644E40",
";+	c #4C4D45",
">+	c #727670",
",+	c #C5C5C5",
"'+	c #C7C8C8",
")+	c #C5C6C7",
"!+	c #C8CBCD",
"~+	c #BCBEBF",
"{+	c #484330",
"]+	c #C4C076",
"^+	c #D4D166",
"/+	c #DCBF59",
"(+	c #DFC236",
"_+	c #DEB644",
":+	c #D7B937",
"<+	c #B0AA32",
"[+	c #575664",
"}+	c #CDCDCD",
"|+	c #C7C8C9",
"1+	c #C2C4C6",
"2+	c #BABBBC",
"3+	c #A3A3A3",
"4+	c #57534E",
"5+	c #5D592C",
"6+	c #C7C767",
"7+	c #E4C12F",
"8+	c #DBB53A",
"9+	c #DAB62A",
"0+	c #C6AB28",
"a+	c #543F3C",
"b+	c #7A7D75",
"c+	c #D7D7D7",
"d+	c #C9CACB",
"e+	c #BBBDBF",
"f+	c #B9BABB",
"g+	c #88858B",
"h+	c #3A3136",
"i+	c #665B5F",
"j+	c #D7B643",
"k+	c #D7B728",
"l+	c #CDB628",
"m+	c #543E4B",
"n+	c #322B4A",
"o+	c #AFB2A6",
"p+	c #D8D8D8",
"q+	c #C8C9C9",
"r+	c #B5B7B7",
"s+	c #B7B9B9",
"t+	c #797772",
"u+	c #373133",
"v+	c #544143",
"w+	c #BCB63C",
"x+	c #4C3231",
"y+	c #3F3130",
"z+	c #8D8B85",
"A+	c #CCCCCC",
"B+	c #C4C5C5",
"C+	c #AEB0B0",
"D+	c #B0B2B2",
"E+	c #BABBBB",
"F+	c #BABABA",
"G+	c #AAACA2",
"H+	c #747579",
"I+	c #525065",
"J+	c #7D7D76",
"K+	c #B4AFB2",
"L+	c #CFD0D0",
"M+	c #B8B9B9",
"N+	c #A8A9AA",
"O+	c #A9AAAB",
"P+	c #AEAFAF",
"Q+	c #C4C4C4",
"R+	c #D9D9D9",
"S+	c #D0D0D0",
"T+	c #B7B8B8",
"U+	c #AFAFB0",
"V+	c #A1A2A3",
"W+	c #A2A3A4",
"X+	c #A6A7A8",
"Y+	c #ACADAE",
"Z+	c #B6B6B7",
"`+	c #BDBEBE",
" @	c #C2C2C3",
".@	c #C6C7C7",
"+@	c #C9CACA",
"@@	c #C0C0C1",
"#@	c #ABACAD",
"$@	c #A3A4A5",
"%@	c #9B9B9C",
". . . . . . . . . . . . . . . . . ",
"+ + + + + + + + + + + + + + + + + ",
"@ @ # $ % # & * * = * @ % - ; $ - ",
"> > , ; - # ' ) ! ~ { ] ' , ^ > / ",
"{ / , # ( _ : < [ } | 1 2 3 ^ ^ { ",
"! 3 4 3 | 5 6 7 8 9 0 a b _ ~ c d ",
"e ) ^ f g h i } j k l m n o p d e ",
"q { d r s 9 t u r v w x y : } p z ",
"p A p k B C D u E a F G H _ I J K ",
": d J k L M n v N O P Q F d R S T ",
"U p J V W C X a Y Z I `  .z ..+.o ",
"@.#.u +.$.` %.[ &.*.G =.v -.;.k >.",
"M >.V ,.y '.).7 y !.~.{.].^./.+.S ",
"S M (._.:.j Q D 9 <.N q I H [.+.a ",
"a }.k _.|.1.a | A 1 u |.l ..2.(.}.",
"O [ [ ,.^.1.6 w 3.4.5.l 6.y 7.Y [ ",
"2.Y 7.,.2.y 8./.9./.6.0.Q 2.*.5 Z ",
"Z Z Z Z Z &.I a._._.a.I &.Z Z Z Z ",
"+ + + + + + + + + + + + + + + + + ",
". . . . . . . . . . . . . . . . . ",
"+ + + + + + + + + + + + + + + + + ",
"b.b.b.b.b.b.b.b.b.b.b.b.b.b.b.b.b.",
"c.c.c.c.c.c.c.c.c.c.c.c.c.c.c.c.c.",
"d.e.f.g.h.i.j.k.l.m.n.o.p.q.r.s.d.",
"t.u.v.w.&.I 0 x.y.z.A.B.C.D.E.F.t.",
"G.H.I.,.I l m J.K.L.M.N.O.P.Q.R.G.",
"S.T.Y 2.U.. {.V.W.X.Y.Z.k `. +.+S.",
"++@+Y 7.#+$+%+&+*+=+-+;+>+,+'+)+++",
"!+~+k O {+]+^+/+(+_+:+<+[+1 }+|+!+",
"1+2++.3+4+5+6+7+8+9+0+a+b+e c+d+1+",
"e+f+a k g+h+i+j+k+l+m+n+o+d p+q+e+",
"r+s+n E (.t+u+v+w+x+y+z+A+d p+B+r+",
"C+D+E+U F+o G+H+I+J+K+f d ~ L+M+C+",
"N+O+P+U Q+f 1 R+q q 2 ~ ~ S+T+U+N+",
"V+V+W+X+Y+Z+`+ @.@+@.@@@l.#@X+$@V+",
"%@%@%@%@%@%@%@%@%@%@%@%@%@%@%@%@%@",
"a.a.a.a.a.a.a.a.a.a.a.a.a.a.a.a.a.",
"+ + + + + + + + + + + + + + + + + "};
