/* XPM */
static char * minimizeA_xpm[] = {
"17 38 346 2",
"  	c None",
". 	c #4D4D4D",
"+ 	c #333333",
"@ 	c #F4F4F4",
"# 	c #F2F2F2",
"$ 	c #F5F5F5",
"% 	c #FBFBFB",
"& 	c #F9F9F9",
"* 	c #F9FCFF",
"= 	c #F6FBFE",
"- 	c #F3F6FF",
"; 	c #FCFFFD",
"> 	c #FDFEFF",
", 	c #F5F5F7",
"' 	c #F1F0EE",
") 	c #FBF9FC",
"! 	c #F1F1F1",
"~ 	c #E9E9E9",
"{ 	c #ECECEC",
"] 	c #E1E5E4",
"^ 	c #E0E8DD",
"/ 	c #E1E9DE",
"( 	c #E4EADC",
"_ 	c #E5E7E2",
": 	c #F0F0EE",
"< 	c #F4F3EF",
"[ 	c #E9E6E1",
"} 	c #E5E5E5",
"| 	c #E7E7E7",
"1 	c #F0F0F0",
"2 	c #EFEFEF",
"3 	c #D9D9D9",
"4 	c #BCBCBC",
"5 	c #B2ABB2",
"6 	c #A7A3A0",
"7 	c #B2B4A9",
"8 	c #C5C6CA",
"9 	c #D0D0DC",
"0 	c #DBD9E7",
"a 	c #E7E4EF",
"b 	c #EDE8EF",
"c 	c #E1E1E1",
"d 	c #EBEBEB",
"e 	c #EEEEEE",
"f 	c #CDCDCD",
"g 	c #979797",
"h 	c #6D6D6D",
"i 	c #5E4549",
"j 	c #4C3932",
"k 	c #5C543F",
"l 	c #7E7882",
"m 	c #AFADBB",
"n 	c #CECDD2",
"o 	c #D5D6CE",
"p 	c #E1E1D7",
"q 	c #DEDEDE",
"r 	c #E8E8E8",
"s 	c #CCCCCC",
"t 	c #7C7C7C",
"u 	c #5B5B5B",
"v 	c #6E6E6E",
"w 	c #DCC15A",
"x 	c #DDCB5F",
"y 	c #C9C258",
"z 	c #766F52",
"A 	c #726E6F",
"B 	c #B1B1B3",
"C 	c #CACBCD",
"D 	c #C8C8D2",
"E 	c #DCDCDC",
"F 	c #D7D7D7",
"G 	c #E4E4E4",
"H 	c #E0E0E0",
"I 	c #B8B8B8",
"J 	c #636363",
"K 	c #727272",
"L 	c #EBC268",
"M 	c #E8CB67",
"N 	c #D5C563",
"O 	c #6A5A4D",
"P 	c #4F4752",
"Q 	c #9A9A9A",
"R 	c #BBC0B9",
"S 	c #B3B7BA",
"T 	c #CECECE",
"U 	c #CCCEC9",
"V 	c #E0E4E3",
"W 	c #CCD0D1",
"X 	c #A5A5A7",
"Y 	c #4A4146",
"Z 	c #69555E",
"` 	c #766063",
" .	c #E2C569",
"..	c #E7C44C",
"+.	c #DFBE53",
"@.	c #644E40",
"#.	c #4C4D45",
"$.	c #6A6F68",
"%.	c #D1CCE2",
"&.	c #A0988B",
"*.	c #BEBEC0",
"=.	c #C3C3C1",
"-.	c #D1D3CE",
";.	c #C6CACB",
">.	c #A3A1AE",
",.	c #484330",
"'.	c #C4C076",
").	c #D4D166",
"!.	c #DCBF59",
"~.	c #DFC236",
"{.	c #DEB644",
"].	c #D7B937",
"^.	c #B0AA32",
"/.	c #575664",
"(.	c #D7E0E5",
"_.	c #80857E",
":.	c #B5B2B9",
"<.	c #BBBCB6",
"[.	c #CFD2CB",
"}.	c #B3B3BB",
"|.	c #ABAAB2",
"1.	c #4D4842",
"2.	c #5D592C",
"3.	c #C7C767",
"4.	c #E4C12F",
"5.	c #DBB53A",
"6.	c #DAB62A",
"7.	c #C6AB28",
"8.	c #543F3C",
"9.	c #75786F",
"0.	c #D2DBD6",
"a.	c #797687",
"b.	c #B1B0AB",
"c.	c #BDBBBE",
"d.	c #C1C4BD",
"e.	c #B6B8B3",
"f.	c #A8A7AF",
"g.	c #726C78",
"h.	c #3A3136",
"i.	c #665B5F",
"j.	c #D7B643",
"k.	c #D7B728",
"l.	c #CDB628",
"m.	c #543E4B",
"n.	c #322B4A",
"o.	c #A8AD96",
"p.	c #BBBAB6",
"q.	c #85817E",
"r.	c #A8A4A5",
"s.	c #B5B3B4",
"t.	c #BFBEC3",
"u.	c #A5A5A3",
"v.	c #9B9C97",
"w.	c #94948C",
"x.	c #68655E",
"y.	c #373133",
"z.	c #544143",
"A.	c #BCB63C",
"B.	c #4C3231",
"C.	c #3F3130",
"D.	c #817E77",
"E.	c #D6D6CA",
"F.	c #85848A",
"G.	c #7C807F",
"H.	c #A2A19F",
"I.	c #ABACA7",
"J.	c #B4B3B9",
"K.	c #ABA9B4",
"L.	c #90918C",
"M.	c #92938D",
"N.	c #B4B5AF",
"O.	c #959885",
"P.	c #6C6D71",
"Q.	c #525065",
"R.	c #76766E",
"S.	c #B2A7AD",
"T.	c #D0CABC",
"U.	c #9B9D9A",
"V.	c #686C75",
"W.	c #94929D",
"X.	c #AAA9A4",
"Y.	c #A7A6AB",
"Z.	c #A3A3A1",
"`.	c #A0A09E",
" +	c #9D9BA8",
".+	c #81818B",
"++	c #7C8081",
"@+	c #A6A9B0",
"#+	c #CCCEC1",
"$+	c #DFE7DA",
"%+	c #C9D3CA",
"&+	c #BBBAC0",
"*+	c #818183",
"=+	c #6A6F5B",
"-+	c #7F7F87",
";+	c #9D998D",
">+	c #A1A0A8",
",+	c #A4A5A0",
"'+	c #A5A3A4",
")+	c #A09E9F",
"!+	c #9A9B96",
"~+	c #949693",
"{+	c #7C8282",
"]+	c #656B69",
"^+	c #595965",
"/+	c #54534F",
"(+	c #5C5C5E",
"_+	c #5A5C69",
":+	c #6E716A",
"<+	c #847B90",
"[+	c #989294",
"}+	c #97979F",
"|+	c #9FA1A0",
"1+	c #9D9D9D",
"2+	c #9B9B9B",
"3+	c #969696",
"4+	c #909090",
"5+	c #8B8B8B",
"6+	c #818181",
"7+	c #7F7F7F",
"8+	c #7E7E7E",
"9+	c #898989",
"0+	c #919191",
"a+	c #999999",
"b+	c #9E9E9E",
"c+	c #9C9C9C",
"d+	c #959595",
"e+	c #939393",
"f+	c #949494",
"g+	c #F6FAFE",
"h+	c #EFF4F7",
"i+	c #E9EDEF",
"j+	c #E6EAEC",
"k+	c #E4E7E9",
"l+	c #DFE2E4",
"m+	c #D5D8D9",
"n+	c #C1C3C4",
"o+	c #B6B8B9",
"p+	c #B2B4B5",
"q+	c #B4B5B6",
"r+	c #B3B5B5",
"s+	c #B8B9BA",
"t+	c #C0C2C3",
"u+	c #C2C4C5",
"v+	c #CACCCD",
"w+	c #D4D7D8",
"x+	c #E1E4E6",
"y+	c #E2E6E9",
"z+	c #DCDFE2",
"A+	c #D1D4D6",
"B+	c #B6B7B8",
"C+	c #808080",
"D+	c #654F52",
"E+	c #635C4A",
"F+	c #8E8B90",
"G+	c #AAABAC",
"H+	c #BEC0C2",
"I+	c #C3C5C7",
"J+	c #BFC1C2",
"K+	c #D2D5D7",
"L+	c #DCDFE1",
"M+	c #D0D2D4",
"N+	c #B0B1B1",
"O+	c #696969",
"P+	c #7F7C7D",
"Q+	c #B1B2B3",
"R+	c #C3C5C6",
"S+	c #C8C9CA",
"T+	c #C9CBCC",
"U+	c #D5D8DB",
"V+	c #C1C2C4",
"W+	c #A1A1A1",
"X+	c #7B7B7B",
"Y+	c #A4A4A4",
"Z+	c #BFBFC0",
"`+	c #C4C5C6",
" @	c #C7C8CA",
".@	c #CFD2D4",
"+@	c #BEC0C1",
"@@	c #534C50",
"#@	c #727670",
"$@	c #C5C5C5",
"%@	c #C7C8C8",
"&@	c #C5C6C7",
"*@	c #C8CBCD",
"=@	c #BCBEBF",
"-@	c #A0A0A0",
";@	c #D2D2D2",
">@	c #C7C8C9",
",@	c #C2C4C6",
"'@	c #BABBBC",
")@	c #A5A5A5",
"!@	c #A3A3A3",
"~@	c #57534E",
"{@	c #7A7D75",
"]@	c #DADADA",
"^@	c #C9CACB",
"/@	c #BBBDBF",
"(@	c #B9BABB",
"_@	c #AAAAAA",
":@	c #88858B",
"<@	c #AFB2A6",
"[@	c #DFDFDF",
"}@	c #D8D8D8",
"|@	c #C8C9C9",
"1@	c #B5B7B7",
"2@	c #B7B9B9",
"3@	c #AEAEAE",
"4@	c #A6A6A6",
"5@	c #797772",
"6@	c #8D8B85",
"7@	c #C4C5C5",
"8@	c #AEB0B0",
"9@	c #B0B2B2",
"0@	c #BABBBB",
"a@	c #BABABA",
"b@	c #BEBEBE",
"c@	c #AAACA2",
"d@	c #747579",
"e@	c #7D7D76",
"f@	c #B4AFB2",
"g@	c #CBCBCB",
"h@	c #CFD0D0",
"i@	c #B8B9B9",
"j@	c #A8A9AA",
"k@	c #A9AAAB",
"l@	c #AEAFAF",
"m@	c #C4C4C4",
"n@	c #D6D6D6",
"o@	c #DDDDDD",
"p@	c #D0D0D0",
"q@	c #B7B8B8",
"r@	c #AFAFB0",
"s@	c #A1A2A3",
"t@	c #A2A3A4",
"u@	c #A6A7A8",
"v@	c #ACADAE",
"w@	c #B6B6B7",
"x@	c #BDBEBE",
"y@	c #C2C2C3",
"z@	c #C6C7C7",
"A@	c #C9CACA",
"B@	c #C0C0C1",
"C@	c #ABACAD",
"D@	c #A3A4A5",
"E@	c #9B9B9C",
". . . . . . . . . . . . . . . . . ",
"+ + + + + + + + + + + + + + + + + ",
"@ # $ @ % % & * = - ; > , ' ) ! @ ",
"~ { @ # ! ! ! ] ^ / ( _ : < [ { ~ ",
"} | | 1 2 3 4 5 6 7 8 9 0 a b | } ",
"c d e 2 f g h i j k l m n o p c c ",
"q r d s t u v w x y z A B C D E q ",
"F G H I J . K L M N O P Q R S T F ",
"U V W X Y Z `  ...+.@.#.$.%.&.*.U ",
"=.-.;.>.,.'.).!.~.{.].^./.(._.:.=.",
"<.[.}.|.1.2.3.4.5.6.7.8.9.0.a.b.<.",
"c.d.e.f.g.h.i.j.k.l.m.n.o.p.q.r.c.",
"s.t.u.v.w.x.y.z.A.B.C.D.E.F.G.H.s.",
"I.J.K.L.M.N.O.P.Q.R.S.T.U.V.W.X.I.",
"Y.Z.`. +.+++@+#+$+%+&+*+=+-+;+>+Y.",
",+'+)+!+~+{+]+^+/+(+_+:+<+[+}+|+,+",
"1+1+1+2+3+4+5+6+7+8+6+9+0+g a+1+1+",
"1+b+b+b+c+a+3+g d+e+f+g 2+1+1+1+1+",
"+ + + + + + + + + + + + + + + + + ",
". . . . . . . . . . . . . . . . . ",
"+ + + + + + + + + + + + + + + + + ",
"g+g+g+g+g+g+g+g+g+g+g+g+g+g+g+g+g+",
"h+h+h+h+h+h+h+h+h+h+h+h+h+h+h+h+h+",
"i+j+k+l+m+n+o+p+q+r+s+t+u+v+w+x+i+",
"y+z+A+B+a+g C+D+j E+F+G+H+I+J+K+y+",
"L+M+N+c+g O+v w x y z P+Q+R+S+T+L+",
"U+V+W+Q X+. K L M N O P Y+Z+`+ @U+",
".@+@W+2+@@Z `  ...+.@.#.#@$@%@&@.@",
"*@=@Y+-@,.'.).!.~.{.].^./.;@f >@*@",
",@'@)@!@~@2.3.4.5.6.7.8.{@]@F ^@,@",
"/@(@_@Y+:@h.i.j.k.l.m.n.<@[@}@|@/@",
"1@2@I 3@4@5@y.z.A.B.C.6@s [@}@7@1@",
"8@9@0@4 a@b@c@d@Q.e@f@g@[@c h@i@8@",
"j@k@l@4 m@g@;@3 n@n@o@c c p@q@r@j@",
"s@s@t@u@v@w@x@y@z@A@z@B@q+C@u@D@s@",
"E@E@E@E@E@E@E@E@E@E@E@E@E@E@E@E@E@",
"d+d+d+d+d+d+d+d+d+d+d+d+d+d+d+d+d+",
"+ + + + + + + + + + + + + + + + + "};
