/* XPM */
static char * restoreI_xpm[] = {
"17 38 286 2",
"  	c None",
". 	c #4D4D4D",
"+ 	c #333333",
"@ 	c #F4F4F4",
"# 	c #F3F3F3",
"$ 	c #F2F2F2",
"% 	c #F7F7F7",
"& 	c #F9F9F9",
"* 	c #F8F8F8",
"= 	c #FBFBFB",
"- 	c #FCFCFC",
"; 	c #FDFDFD",
"> 	c #F5F5F5",
", 	c #F6F6F6",
"' 	c #E9E9E9",
") 	c #EAEAEA",
"! 	c #EDEDED",
"~ 	c #F1F1F1",
"{ 	c #EEEEEE",
"] 	c #DEDEDE",
"^ 	c #ECECEC",
"/ 	c #D8D8D8",
"( 	c #F0F0F0",
"_ 	c #E2E2E2",
": 	c #E7E7E7",
"< 	c #EBEBEB",
"[ 	c #E5E5E5",
"} 	c #D9D9D9",
"| 	c #C2C2C2",
"1 	c #B3B3B3",
"2 	c #9D9D9D",
"3 	c #B5B5B5",
"4 	c #C8C8C8",
"5 	c #D2D2D2",
"6 	c #DFDFDF",
"7 	c #E3E3E3",
"8 	c #E6E6E6",
"9 	c #E8E8E8",
"0 	c #E1E1E1",
"a 	c #989898",
"b 	c #696969",
"c 	c #4E4E4E",
"d 	c #3B3B3B",
"e 	c #565656",
"f 	c #787878",
"g 	c #AEAEAE",
"h 	c #C9C9C9",
"i 	c #D4D4D4",
"j 	c #D0D0D0",
"k 	c #979797",
"l 	c #525252",
"m 	c #3D3D3D",
"n 	c #5A5A5A",
"o 	c #C3C3C3",
"p 	c #545454",
"q 	c #373737",
"r 	c #686868",
"s 	c #BCBCBC",
"t 	c #BEBEBE",
"u 	c #CACACA",
"v 	c #D7D7D7",
"w 	c #E0E0E0",
"x 	c #B9B9B9",
"y 	c #3F3F3F",
"z 	c #646464",
"A 	c #C6C6C6",
"B 	c #BABABA",
"C 	c #575757",
"D 	c #393939",
"E 	c #939393",
"F 	c #B2B2B2",
"G 	c #CFCFCF",
"H 	c #CCCCCC",
"I 	c #A9A9A9",
"J 	c #555555",
"K 	c #C0C0C0",
"L 	c #B0B0B0",
"M 	c #474747",
"N 	c #6B6B6B",
"O 	c #D3D3D3",
"P 	c #CBCBCB",
"Q 	c #C1C1C1",
"R 	c #BFBFBF",
"S 	c #B4B4B4",
"T 	c #AAAAAA",
"U 	c #DCDCDC",
"V 	c #838383",
"W 	c #C7C7C7",
"X 	c #BBBBBB",
"Y 	c #ABABAB",
"Z 	c #6F6F6F",
"` 	c #ADADAD",
" .	c #B8B8B8",
"..	c #A3A3A3",
"+.	c #5C5C5C",
"@.	c #757575",
"#.	c #797979",
"$.	c #A8A8A8",
"%.	c #7D7D7D",
"&.	c #5E5E5E",
"*.	c #A4A4A4",
"=.	c #B7B7B7",
"-.	c #9A9A9A",
";.	c #656565",
">.	c #7E7E7E",
",.	c #B6B6B6",
"'.	c #737373",
").	c #9F9F9F",
"!.	c #616161",
"~.	c #6E6E6E",
"{.	c #858585",
"].	c #878787",
"^.	c #A5A5A5",
"/.	c #969696",
"(.	c #959595",
"_.	c #ACACAC",
":.	c #828282",
"<.	c #636363",
"[.	c #909090",
"}.	c #9C9C9C",
"|.	c #717171",
"1.	c #8C8C8C",
"2.	c #A6A6A6",
"3.	c #A0A0A0",
"4.	c #808080",
"5.	c #A7A7A7",
"6.	c #A1A1A1",
"7.	c #7F7F7F",
"8.	c #6A6A6A",
"9.	c #595959",
"0.	c #919191",
"a.	c #999999",
"b.	c #9E9E9E",
"c.	c #9B9B9B",
"d.	c #8F8F8F",
"e.	c #8B8B8B",
"f.	c #888888",
"g.	c #949494",
"h.	c #F6FAFE",
"i.	c #EFF4F7",
"j.	c #E9EDEF",
"k.	c #E6EAEC",
"l.	c #E4E7E9",
"m.	c #DFE2E4",
"n.	c #D5D8D9",
"o.	c #C1C3C4",
"p.	c #B6B8B9",
"q.	c #B2B4B5",
"r.	c #B4B5B6",
"s.	c #B3B5B5",
"t.	c #B8B9BA",
"u.	c #C0C2C3",
"v.	c #C2C4C5",
"w.	c #CACCCD",
"x.	c #D4D7D8",
"y.	c #E1E4E6",
"z.	c #E2E6E9",
"A.	c #DCDFE2",
"B.	c #D1D4D6",
"C.	c #B6B7B8",
"D.	c #534B56",
"E.	c #3C3B39",
"F.	c #555857",
"G.	c #80808D",
"H.	c #AAABAC",
"I.	c #BEC0C2",
"J.	c #C3C5C7",
"K.	c #BFC1C2",
"L.	c #D2D5D7",
"M.	c #DCDFE1",
"N.	c #D0D2D4",
"O.	c #B0B1B1",
"P.	c #6C573C",
"Q.	c #D1C883",
"R.	c #5D5443",
"S.	c #3B363A",
"T.	c #6E6C70",
"U.	c #B1B2B3",
"V.	c #C3C5C6",
"W.	c #C8C9CA",
"X.	c #C9CBCC",
"Y.	c #D5D8DB",
"Z.	c #C1C2C4",
"`.	c #666666",
" +	c #E8C766",
".+	c #E2CB63",
"++	c #CEC068",
"@+	c #63554A",
"#+	c #3E3838",
"$+	c #9B9D8E",
"%+	c #BFBFC0",
"&+	c #C4C5C6",
"*+	c #C7C8CA",
"=+	c #CFD2D4",
"-+	c #BEC0C1",
";+	c #56484F",
">+	c #66542E",
",+	c #DFCD81",
"'+	c #E0C957",
")+	c #E0C844",
"!+	c #E4BF57",
"~+	c #D7B44C",
"{+	c #5A403F",
"]+	c #6B6D6E",
"^+	c #C5C5C5",
"/+	c #C7C8C8",
"(+	c #C5C6C7",
"_+	c #C8CBCD",
":+	c #BCBEBF",
"<+	c #4E492C",
"[+	c #CDC682",
"}+	c #D8CD6F",
"|+	c #E7C15E",
"1+	c #E4B951",
"2+	c #DEB636",
"3+	c #D4B637",
"4+	c #B1A93E",
"5+	c #595748",
"6+	c #CDCDCD",
"7+	c #C7C8C9",
"8+	c #C2C4C6",
"9+	c #BABBBC",
"0+	c #554F59",
"a+	c #5C534E",
"b+	c #B7AD5C",
"c+	c #DEC15D",
"d+	c #DAB936",
"e+	c #DAB738",
"f+	c #C7AA2F",
"g+	c #484735",
"h+	c #717686",
"i+	c #DADADA",
"j+	c #C9CACB",
"k+	c #BBBDBF",
"l+	c #B9BABB",
"m+	c #828185",
"n+	c #545351",
"o+	c #716C59",
"p+	c #D4B742",
"q+	c #E1BB32",
"r+	c #D1B129",
"s+	c #8F7537",
"t+	c #464832",
"u+	c #AEAFAC",
"v+	c #C8C9C9",
"w+	c #B5B7B7",
"x+	c #B7B9B9",
"y+	c #6A6D61",
"z+	c #6A6D63",
"A+	c #878256",
"B+	c #C0A520",
"C+	c #726853",
"D+	c #534846",
"E+	c #808187",
"F+	c #C4C5C5",
"G+	c #AEB0B0",
"H+	c #B0B2B2",
"I+	c #BABBBB",
"J+	c #92939B",
"K+	c #71606B",
"L+	c #614C51",
"M+	c #948E8A",
"N+	c #9E9CA0",
"O+	c #CFD0D0",
"P+	c #B8B9B9",
"Q+	c #A8A9AA",
"R+	c #A9AAAB",
"S+	c #AEAFAF",
"T+	c #C4C4C4",
"U+	c #D6D6D6",
"V+	c #DDDDDD",
"W+	c #B7B8B8",
"X+	c #AFAFB0",
"Y+	c #A1A2A3",
"Z+	c #A2A3A4",
"`+	c #A6A7A8",
" @	c #ACADAE",
".@	c #B6B6B7",
"+@	c #BDBEBE",
"@@	c #C2C2C3",
"#@	c #C6C7C7",
"$@	c #C9CACA",
"%@	c #C0C0C1",
"&@	c #ABACAD",
"*@	c #A3A4A5",
"=@	c #9B9B9C",
". . . . . . . . . . . . . . . . . ",
"+ + + + + + + + + + + + + + + + + ",
"@ # $ % & * = - & ; @ = % * $ > , ",
"' ) ! # , ~ { ] ^ / ( _ ( ! : < ^ ",
"[ { ( ~ ( } | 1 2 3 4 5 6 7 < 8 9 ",
"0 ^ ! ' 5 a b c d e f g h i _ 0 8 ",
"] 9 [ j k l m n o p q r s t u / 6 ",
"v [ w x b y z A A B C D E o F G v ",
"H 0 4 I . J 4 o K t L M N O k | P ",
"| v P 2 M Q | R B S T 2 J U V F W ",
"X u B Y l Z `  .3 1 ..+.@.v #.$.t ",
"X W g $.%.N &.*.=.-.;.l `  .>.$.,.",
"1 x Y a $.'.e +.).!.~.{.j >.].^.F ",
"Y Y Y /.(._.:.e l <.[.u }.|.1...g ",
"2.g 3.(.{.4.*.W U j ,.].<.4.(...5.",
"*.).6.-.E 7.8.9.9.&.+.|.:.0.a.6.6.",
"2 b.b.c./.d.e.4.7.7.:.f.[.k c.}.2 ",
"2 b.).b.}.a./.k (.g.g.k -.2 b.2 2 ",
"+ + + + + + + + + + + + + + + + + ",
". . . . . . . . . . . . . . . . . ",
"+ + + + + + + + + + + + + + + + + ",
"h.h.h.h.h.h.h.h.h.h.h.h.h.h.h.h.h.",
"i.i.i.i.i.i.i.i.i.i.i.i.i.i.i.i.i.",
"j.k.l.m.n.o.p.q.r.s.t.u.v.w.x.y.j.",
"z.A.B.C.a.k '.D.E.F.G.H.I.J.K.L.z.",
"M.N.O.}.k C m P.Q.R.S.T.U.V.W.X.M.",
"Y.Z.6.-.|.y `. +.+++@+#+$+%+&+*+Y.",
"=+-+6.c.;+>+,+'+)+!+~+{+]+^+/+(+=+",
"_+:+*.3.<+[+}+|+1+2+3+4+5+5 6+7+_+",
"8+9+^...0+a+b+c+d+e+f+g+h+i+v j+8+",
"k+l+T *.m+n+o+p+q+r+s+t+u+6 / v+k+",
"w+x+ .g 2.y+z+A+B+C+D+E+H 6 / F+w+",
"G+H+I+s B t J+K+L+M+N+P 6 0 O+P+G+",
"Q+R+S+s T+P 5 } U+U+V+0 0 j W+X+Q+",
"Y+Y+Z+`+ @.@+@@@#@$@#@%@r.&@`+*@Y+",
"=@=@=@=@=@=@=@=@=@=@=@=@=@=@=@=@=@",
"(.(.(.(.(.(.(.(.(.(.(.(.(.(.(.(.(.",
"+ + + + + + + + + + + + + + + + + "};
