/* XPM */
static char * rollupI_xpm[] = {
"17 38 284 2",
"  	c None",
". 	c #4D4D4D",
"+ 	c #333333",
"@ 	c #F3F3F3",
"# 	c #F5F5F5",
"$ 	c #F6F6F6",
"% 	c #F8F8F8",
"& 	c #FDFDFD",
"* 	c #FAFAFA",
"= 	c #FFFFFF",
"- 	c #F4F4F4",
"; 	c #F2F2F2",
"> 	c #ECECEC",
", 	c #EDEDED",
"' 	c #EFEFEF",
") 	c #E8E8E8",
"! 	c #E2E2E2",
"~ 	c #E1E1E1",
"{ 	c #E6E6E6",
"] 	c #EAEAEA",
"^ 	c #E7E7E7",
"/ 	c #E9E9E9",
"( 	c #EEEEEE",
"_ 	c #D4D4D4",
": 	c #C2C2C2",
"< 	c #B0B0B0",
"[ 	c #9D9D9D",
"} 	c #B5B5B5",
"| 	c #C8C8C8",
"1 	c #D2D2D2",
"2 	c #DDDDDD",
"3 	c #EBEBEB",
"4 	c #F0F0F0",
"5 	c #9B9B9B",
"6 	c #696969",
"7 	c #4E4E4E",
"8 	c #565656",
"9 	c #787878",
"0 	c #AEAEAE",
"a 	c #C9C9C9",
"b 	c #E3E3E3",
"c 	c #DFDFDF",
"d 	c #DADADA",
"e 	c #CBCBCB",
"f 	c #898989",
"g 	c #525252",
"h 	c #484848",
"i 	c #5A5A5A",
"j 	c #545454",
"k 	c #686868",
"l 	c #BCBCBC",
"m 	c #BEBEBE",
"n 	c #CECECE",
"o 	c #D6D6D6",
"p 	c #B6B6B6",
"q 	c #656565",
"r 	c #555555",
"s 	c #666666",
"t 	c #ACACAC",
"u 	c #575757",
"v 	c #939393",
"w 	c #C3C3C3",
"x 	c #B1B1B1",
"y 	c #CFCFCF",
"z 	c #D5D5D5",
"A 	c #DCDCDC",
"B 	c #A4A4A4",
"C 	c #4C4C4C",
"D 	c #A8A8A8",
"E 	c #474747",
"F 	c #6B6B6B",
"G 	c #D3D3D3",
"H 	c #979797",
"I 	c #BDBDBD",
"J 	c #D1D1D1",
"K 	c #505050",
"L 	c #9A9A9A",
"M 	c #989898",
"N 	c #969696",
"O 	c #959595",
"P 	c #919191",
"Q 	c #717171",
"R 	c #838383",
"S 	c #C7C7C7",
"T 	c #ABABAB",
"U 	c #707070",
"V 	c #7A7A7A",
"W 	c #767676",
"X 	c #777777",
"Y 	c #757575",
"Z 	c #737373",
"` 	c #888888",
" .	c #D7D7D7",
"..	c #797979",
"+.	c #A5A5A5",
"@.	c #B7B7B7",
"#.	c #C0C0C0",
"$.	c #B4B4B4",
"%.	c #5E5E5E",
"&.	c #585858",
"*.	c #5B5B5B",
"=.	c #ADADAD",
"-.	c #B8B8B8",
";.	c #7E7E7E",
">.	c #B9B9B9",
",.	c #B3B3B3",
"'.	c #9C9C9C",
").	c #949494",
"!.	c #676767",
"~.	c #6C6C6C",
"{.	c #5C5C5C",
"].	c #7F7F7F",
"^.	c #D0D0D0",
"/.	c #828282",
"(.	c #A6A6A6",
"_.	c #AFAFAF",
":.	c #7C7C7C",
"<.	c #5D5D5D",
"[.	c #8C8C8C",
"}.	c #CACACA",
"|.	c #AAAAAA",
"1.	c #858585",
"2.	c #868686",
"3.	c #7D7D7D",
"4.	c #A0A0A0",
"5.	c #A2A2A2",
"6.	c #8B8B8B",
"7.	c #595959",
"8.	c #606060",
"9.	c #909090",
"0.	c #A1A1A1",
"a.	c #8A8A8A",
"b.	c #818181",
"c.	c #929292",
"d.	c #9E9E9E",
"e.	c #999999",
"f.	c #F6FAFE",
"g.	c #EFF4F7",
"h.	c #E9EDEF",
"i.	c #E6EAEC",
"j.	c #E4E7E9",
"k.	c #DFE2E4",
"l.	c #D5D8D9",
"m.	c #C1C3C4",
"n.	c #B6B8B9",
"o.	c #B2B4B5",
"p.	c #B4B5B6",
"q.	c #B3B5B5",
"r.	c #B8B9BA",
"s.	c #C0C2C3",
"t.	c #C2C4C5",
"u.	c #CACCCD",
"v.	c #D4D7D8",
"w.	c #E1E4E6",
"x.	c #E2E6E9",
"y.	c #DCDFE2",
"z.	c #D1D4D6",
"A.	c #B6B7B8",
"B.	c #605963",
"C.	c #595957",
"D.	c #7C7E7D",
"E.	c #80808D",
"F.	c #AAABAC",
"G.	c #BEC0C2",
"H.	c #C3C5C7",
"I.	c #BFC1C2",
"J.	c #D2D5D7",
"K.	c #DCDFE1",
"L.	c #D0D2D4",
"M.	c #B0B1B1",
"N.	c #76634B",
"O.	c #D1C883",
"P.	c #817B6F",
"Q.	c #757174",
"R.	c #6E6C70",
"S.	c #B1B2B3",
"T.	c #C3C5C6",
"U.	c #C8C9CA",
"V.	c #C9CBCC",
"W.	c #D5D8DB",
"X.	c #C1C2C4",
"Y.	c #E8C766",
"Z.	c #E2CB63",
"`.	c #CEC068",
" +	c #6E6258",
".+	c #4D4848",
"++	c #9B9D8E",
"@+	c #BFBFC0",
"#+	c #C4C5C6",
"$+	c #C7C8CA",
"%+	c #CFD2D4",
"&+	c #BEC0C1",
"*+	c #56484F",
"=+	c #66542E",
"-+	c #DFCD81",
";+	c #E0C957",
">+	c #E0C844",
",+	c #E4BF57",
"'+	c #D7B44C",
")+	c #664F4E",
"!+	c #6B6D6E",
"~+	c #C5C5C5",
"{+	c #C7C8C8",
"]+	c #C5C6C7",
"^+	c #C8CBCD",
"/+	c #BCBEBF",
"(+	c #4E492C",
"_+	c #CDC682",
":+	c #D5CD68",
"<+	c #E7C15E",
"[+	c #E4B951",
"}+	c #DDB52F",
"|+	c #D3B725",
"1+	c #B1A93E",
"2+	c #595748",
"3+	c #CDCDCD",
"4+	c #C7C8C9",
"5+	c #C2C4C6",
"6+	c #BABBBC",
"7+	c #A3A3A3",
"8+	c #6E685C",
"9+	c #746B53",
"0+	c #787344",
"a+	c #787240",
"b+	c #78723F",
"c+	c #797444",
"d+	c #817C4A",
"e+	c #787550",
"f+	c #858780",
"g+	c #C9CACB",
"h+	c #BBBDBF",
"i+	c #B9BABB",
"j+	c #828185",
"k+	c #686553",
"l+	c #828077",
"m+	c #696863",
"n+	c #5D5C56",
"o+	c #656562",
"p+	c #575449",
"q+	c #616352",
"r+	c #AEAFAC",
"s+	c #D8D8D8",
"t+	c #C8C9C9",
"u+	c #B5B7B7",
"v+	c #B7B9B9",
"w+	c #6A6D61",
"x+	c #7D7B6D",
"y+	c #82827E",
"z+	c #5A5954",
"A+	c #535247",
"B+	c #808187",
"C+	c #CCCCCC",
"D+	c #C4C5C5",
"E+	c #AEB0B0",
"F+	c #B0B2B2",
"G+	c #BABBBB",
"H+	c #BABABA",
"I+	c #909199",
"J+	c #756C72",
"K+	c #665B5E",
"L+	c #736B65",
"M+	c #9E9CA0",
"N+	c #CFD0D0",
"O+	c #B8B9B9",
"P+	c #A8A9AA",
"Q+	c #A9AAAB",
"R+	c #AEAFAF",
"S+	c #C4C4C4",
"T+	c #D9D9D9",
"U+	c #B7B8B8",
"V+	c #AFAFB0",
"W+	c #A1A2A3",
"X+	c #A2A3A4",
"Y+	c #A6A7A8",
"Z+	c #ACADAE",
"`+	c #B6B6B7",
" @	c #BDBEBE",
".@	c #C2C2C3",
"+@	c #C6C7C7",
"@@	c #C9CACA",
"#@	c #C0C0C1",
"$@	c #ABACAD",
"%@	c #A3A4A5",
"&@	c #9B9B9C",
". . . . . . . . . . . . . . . . . ",
"+ + + + + + + + + + + + + + + + + ",
"@ @ # $ % # & * * = * @ % - ; $ - ",
"> > , ; - # ' ) ! ~ { ] ' , ^ > / ",
"{ / , # ( _ : < [ } | 1 2 3 ^ ^ { ",
"! 3 4 3 | 5 6 7 7 8 9 0 a _ ~ b c ",
"d ) ^ e f g h i < j 7 k l m n c d ",
"o { c p q r s < < t u r v w x y z ",
"y A y B C r < < t D B E F G H I J ",
": c I B K L L M N O v P Q A R < S ",
"l y I T U V W X X X Y Z `  ...+.m ",
"@.#.$.+.W u %.8 8 8 &.*.=.-.;.B >.",
",.>.T '.).!.~.{.8 &.s ].^.;./.+.< ",
"< ,.(.).N _.:.i g <.[.}.'.U [.+.|.",
"|.D B ).1.].D S A ^.} 2.!.3.L (.D ",
"4.5.5.'.6.].k <.7.*.8.6 /.9.5 0.5.",
"L 0.5 '.L 9.a.b.V b./.` c.L M d.[ ",
"[ [ [ [ [ e.H O ).).O H e.[ [ [ [ ",
"+ + + + + + + + + + + + + + + + + ",
". . . . . . . . . . . . . . . . . ",
"+ + + + + + + + + + + + + + + + + ",
"f.f.f.f.f.f.f.f.f.f.f.f.f.f.f.f.f.",
"g.g.g.g.g.g.g.g.g.g.g.g.g.g.g.g.g.",
"h.i.j.k.l.m.n.o.p.q.r.s.t.u.v.w.h.",
"x.y.z.A.e.H Z B.C.D.E.F.G.H.I.J.x.",
"K.L.M.'.H u F N.O.P.Q.R.S.T.U.V.K.",
"W.X.0.L Q 7 Q Y.Z.`. +.+++@+#+$+W.",
"%+&+0.5 *+=+-+;+>+,+'+)+!+~+{+]+%+",
"^+/+B 4.(+_+:+<+[+}+|+1+2+1 3+4+^+",
"5+6++.7+8+9+0+a+b+c+d+e+f+d  .g+5+",
"h+i+|.B j+k+l+m+n+o+p+q+r+c s+t+h+",
"u+v+-.0 (.w+x+y+n+z+A+B+C+c s+D+u+",
"E+F+G+l H+m I+J+K+L+M+e c ~ N+O+E+",
"P+Q+R+l S+e 1 T+o o 2 ~ ~ ^.U+V+P+",
"W+W+X+Y+Z+`+ @.@+@@@+@#@p.$@Y+%@W+",
"&@&@&@&@&@&@&@&@&@&@&@&@&@&@&@&@&@",
"O O O O O O O O O O O O O O O O O ",
"+ + + + + + + + + + + + + + + + + "};
