/* XPM */
static char * rollupA_xpm[] = {
"17 38 372 2",
"  	c None",
". 	c #4D4D4D",
"+ 	c #333333",
"@ 	c #F4F4F4",
"# 	c #F3F3F3",
"$ 	c #F2F2F2",
"% 	c #F7F7F7",
"& 	c #F9F9F9",
"* 	c #F8F8F8",
"= 	c #FBFBFB",
"- 	c #FFFBFF",
"; 	c #FFF6FB",
"> 	c #FFFEFA",
", 	c #F7F4ED",
"' 	c #FCFBF9",
") 	c #F8F8F6",
"! 	c #F7F9F6",
"~ 	c #F0F3FA",
"{ 	c #F5F5F5",
"] 	c #F6F6F6",
"^ 	c #E9E9E9",
"/ 	c #EAEAEA",
"( 	c #EDEDED",
"_ 	c #F1F1F1",
": 	c #EEEEEE",
"< 	c #E2DEDB",
"[ 	c #F0EDE4",
"} 	c #D9DAD2",
"| 	c #EFF3E4",
"1 	c #E2E5DA",
"2 	c #EFF1EE",
"3 	c #ECEEEB",
"4 	c #E7E7EF",
"5 	c #EBEBEB",
"6 	c #ECECEC",
"7 	c #E5E5E5",
"8 	c #F0F0F0",
"9 	c #D9D9D9",
"0 	c #C2C2C2",
"a 	c #B2B3B8",
"b 	c #9B9EA5",
"c 	c #B1B8B0",
"d 	c #C3CBCE",
"e 	c #CDD5D7",
"f 	c #DCE2D8",
"g 	c #E2E3E8",
"h 	c #EDEBEC",
"i 	c #E6E6E6",
"j 	c #E8E8E8",
"k 	c #E1E1E1",
"l 	c #D2D2D2",
"m 	c #989898",
"n 	c #696969",
"o 	c #514B57",
"p 	c #4B4B49",
"q 	c #545859",
"r 	c #75778C",
"s 	c #ABAEBD",
"t 	c #C6CBC7",
"u 	c #D4D4D6",
"v 	c #E6E1E5",
"w 	c #DEDEDE",
"x 	c #D0D0D0",
"y 	c #979797",
"z 	c #525252",
"A 	c #4C4C4C",
"B 	c #6C573C",
"C 	c #D1C883",
"D 	c #5D5443",
"E 	c #4B464A",
"F 	c #69686D",
"G 	c #BCBBC3",
"H 	c #C0C1AF",
"I 	c #CDC7D5",
"J 	c #D8D8D8",
"K 	c #DFDFDF",
"L 	c #D7D7D7",
"M 	c #E0E0E0",
"N 	c #B9B9B9",
"O 	c #4E4E4E",
"P 	c #666666",
"Q 	c #E8C766",
"R 	c #E2CB63",
"S 	c #CEC068",
"T 	c #63554A",
"U 	c #5B5656",
"V 	c #94977C",
"W 	c #C5C3C6",
"X 	c #B4B1B8",
"Y 	c #CFCFCF",
"Z 	c #CCCEC9",
"` 	c #DFE4DE",
" .	c #C7C7D1",
"..	c #ADA5BC",
"+.	c #57484F",
"@.	c #66542E",
"#.	c #DFCD81",
"$.	c #E0C957",
"%.	c #E0C844",
"&.	c #E4BF57",
"*.	c #D7B44C",
"=.	c #5A403F",
"-.	c #6B6C6E",
";.	c #CDD6D5",
">.	c #9B969A",
",.	c #CBCBCB",
"'.	c #C3C3C1",
").	c #D6D9D2",
"!.	c #CBCDC8",
"~.	c #9F9E99",
"{.	c #4E492C",
"].	c #CDC682",
"^.	c #D5CD68",
"/.	c #E7C15E",
"(.	c #E4B951",
"_.	c #DDB52F",
":.	c #D3B725",
"<.	c #B1A93E",
"[.	c #595748",
"}.	c #DDDBE0",
"|.	c #8B817F",
"1.	c #B2B2B2",
"2.	c #C7C7C7",
"3.	c #BBBCB6",
"4.	c #C9CBCA",
"5.	c #B7BAC3",
"6.	c #AAA9B9",
"7.	c #6E685D",
"8.	c #716A4A",
"9.	c #6F6B58",
"0.	c #706D62",
"a.	c #706848",
"b.	c #70694B",
"c.	c #7C7848",
"d.	c #8F907E",
"e.	c #D2DBD6",
"f.	c #757984",
"g.	c #A8A8A8",
"h.	c #BEBEBE",
"i.	c #BDBBBE",
"j.	c #C6C7CC",
"k.	c #ACAFB6",
"l.	c #A6A9AE",
"m.	c #7D7E80",
"n.	c #545351",
"o.	c #5C5C5C",
"p.	c #5D5D5C",
"q.	c #656463",
"r.	c #5D5B59",
"s.	c #5C5B5B",
"t.	c #464832",
"u.	c #AEADB3",
"v.	c #BABBAB",
"w.	c #7F7F7D",
"x.	c #B6B6B6",
"y.	c #B5B3B4",
"z.	c #ABADA8",
"A.	c #969C90",
"B.	c #A6AC9E",
"C.	c #666A5C",
"D.	c #4F4D49",
"E.	c #5D5C5A",
"F.	c #5B5959",
"G.	c #4D4946",
"H.	c #7C7F88",
"I.	c #CFD1D0",
"J.	c #808074",
"K.	c #87868E",
"L.	c #A5A5A5",
"M.	c #ABACA7",
"N.	c #ACACAA",
"O.	c #ABABAD",
"P.	c #95969B",
"Q.	c #9494A0",
"R.	c #ACAABF",
"S.	c #7A7A92",
"T.	c #6A525F",
"U.	c #614C51",
"V.	c #665B55",
"W.	c #8B8C90",
"X.	c #C3CBD8",
"Y.	c #96A098",
"Z.	c #6D746D",
"`.	c #898E92",
" +	c #A3A3A3",
".+	c #AEAEAE",
"++	c #A7A6AB",
"@+	c #A2A0A1",
"#+	c #979596",
"$+	c #858587",
"%+	c #808080",
"&+	c #A3A5A2",
"*+	c #D2C4BB",
"=+	c #E4DAD8",
"-+	c #D5CED5",
";+	c #BAB4B8",
">+	c #8A8490",
",+	c #65626B",
"'+	c #847E80",
")+	c #9D919B",
"!+	c #A7A7A7",
"~+	c #A4A5A0",
"{+	c #A0A098",
"]+	c #A3A29D",
"^+	c #9D999A",
"/+	c #959396",
"(+	c #807F7D",
"_+	c #6B6C64",
":+	c #575B5C",
"<+	c #515C60",
"[+	c #546265",
"}+	c #5A5F58",
"|+	c #727560",
"1+	c #7F828B",
"2+	c #8F9392",
"3+	c #9D97A1",
"4+	c #A1A1A1",
"5+	c #9D9D9D",
"6+	c #9E9E9E",
"7+	c #9B9B9B",
"8+	c #969696",
"9+	c #8F8F8F",
"0+	c #8B8B8B",
"a+	c #7F7F7F",
"b+	c #828282",
"c+	c #888888",
"d+	c #909090",
"e+	c #9C9C9C",
"f+	c #9F9F9F",
"g+	c #999999",
"h+	c #959595",
"i+	c #949494",
"j+	c #9A9A9A",
"k+	c #F6FAFE",
"l+	c #EFF4F7",
"m+	c #E9EDEF",
"n+	c #E6EAEC",
"o+	c #E4E7E9",
"p+	c #DFE2E4",
"q+	c #D5D8D9",
"r+	c #C1C3C4",
"s+	c #B6B8B9",
"t+	c #B2B4B5",
"u+	c #B4B5B6",
"v+	c #B3B5B5",
"w+	c #B8B9BA",
"x+	c #C0C2C3",
"y+	c #C2C4C5",
"z+	c #CACCCD",
"A+	c #D4D7D8",
"B+	c #E1E4E6",
"C+	c #E2E6E9",
"D+	c #DCDFE2",
"E+	c #D1D4D6",
"F+	c #B6B7B8",
"G+	c #737373",
"H+	c #605963",
"I+	c #595957",
"J+	c #7C7E7D",
"K+	c #80808D",
"L+	c #AAABAC",
"M+	c #BEC0C2",
"N+	c #C3C5C7",
"O+	c #BFC1C2",
"P+	c #D2D5D7",
"Q+	c #DCDFE1",
"R+	c #D0D2D4",
"S+	c #B0B1B1",
"T+	c #575757",
"U+	c #6B6B6B",
"V+	c #76634B",
"W+	c #817B6F",
"X+	c #757174",
"Y+	c #6E6C70",
"Z+	c #B1B2B3",
"`+	c #C3C5C6",
" @	c #C8C9CA",
".@	c #C9CBCC",
"+@	c #D5D8DB",
"@@	c #C1C2C4",
"#@	c #717171",
"$@	c #6E6258",
"%@	c #4D4848",
"&@	c #9B9D8E",
"*@	c #BFBFC0",
"=@	c #C4C5C6",
"-@	c #C7C8CA",
";@	c #CFD2D4",
">@	c #BEC0C1",
",@	c #56484F",
"'@	c #664F4E",
")@	c #6B6D6E",
"!@	c #C5C5C5",
"~@	c #C7C8C8",
"{@	c #C5C6C7",
"]@	c #C8CBCD",
"^@	c #BCBEBF",
"/@	c #A4A4A4",
"(@	c #A0A0A0",
"_@	c #CDCDCD",
":@	c #C7C8C9",
"<@	c #C2C4C6",
"[@	c #BABBBC",
"}@	c #6E685C",
"|@	c #746B53",
"1@	c #787344",
"2@	c #787240",
"3@	c #78723F",
"4@	c #797444",
"5@	c #817C4A",
"6@	c #787550",
"7@	c #858780",
"8@	c #DADADA",
"9@	c #C9CACB",
"0@	c #BBBDBF",
"a@	c #B9BABB",
"b@	c #AAAAAA",
"c@	c #828185",
"d@	c #686553",
"e@	c #828077",
"f@	c #696863",
"g@	c #5D5C56",
"h@	c #656562",
"i@	c #575449",
"j@	c #616352",
"k@	c #AEAFAC",
"l@	c #C8C9C9",
"m@	c #B5B7B7",
"n@	c #B7B9B9",
"o@	c #B8B8B8",
"p@	c #A6A6A6",
"q@	c #6A6D61",
"r@	c #7D7B6D",
"s@	c #82827E",
"t@	c #5A5954",
"u@	c #535247",
"v@	c #808187",
"w@	c #CCCCCC",
"x@	c #C4C5C5",
"y@	c #AEB0B0",
"z@	c #B0B2B2",
"A@	c #BABBBB",
"B@	c #BCBCBC",
"C@	c #BABABA",
"D@	c #909199",
"E@	c #756C72",
"F@	c #665B5E",
"G@	c #736B65",
"H@	c #9E9CA0",
"I@	c #CFD0D0",
"J@	c #B8B9B9",
"K@	c #A8A9AA",
"L@	c #A9AAAB",
"M@	c #AEAFAF",
"N@	c #C4C4C4",
"O@	c #D6D6D6",
"P@	c #DDDDDD",
"Q@	c #B7B8B8",
"R@	c #AFAFB0",
"S@	c #A1A2A3",
"T@	c #A2A3A4",
"U@	c #A6A7A8",
"V@	c #ACADAE",
"W@	c #B6B6B7",
"X@	c #BDBEBE",
"Y@	c #C2C2C3",
"Z@	c #C6C7C7",
"`@	c #C9CACA",
" #	c #C0C0C1",
".#	c #ABACAD",
"+#	c #A3A4A5",
"@#	c #9B9B9C",
". . . . . . . . . . . . . . . . . ",
"+ + + + + + + + + + + + + + + + + ",
"@ # $ % & * = - ; > , ' ) ! ~ { ] ",
"^ / ( # ] _ : < [ } | 1 2 3 4 5 6 ",
"7 : 8 _ 8 9 0 a b c d e f g h i j ",
"k 6 ( ^ l m n o p q r s t u v k i ",
"w j 7 x y z A B C D E F G H I J K ",
"L 7 M N n O P Q R S T U V W X Y L ",
"Z `  ...+.@.#.$.%.&.*.=.-.;.>.0 ,.",
"'.).!.~.{.].^./.(._.:.<.[.}.|.1.2.",
"3.4.5.6.7.8.9.0.9.a.b.c.d.e.f.g.h.",
"i.j.k.l.m.n.o.p.q.r.s.t.u.v.w.g.x.",
"y.N z.A.B.C.D.E.F.E.G.H.I.J.K.L.1.",
"M.N.O.P.Q.R.S.T.U.V.W.X.Y.Z.`. +.+",
"++.+@+#+$+%+&+*+=+-+;+>+,+'+)+ +!+",
"~+{+]+^+/+(+_+:+<+[+}+|+1+2+3+4+4+",
"5+6+6+7+8+9+0+%+a+a+b+c+d+y 7+e+5+",
"5+6+f+6+e+g+8+y h+i+i+y j+5+6+5+5+",
"+ + + + + + + + + + + + + + + + + ",
". . . . . . . . . . . . . . . . . ",
"+ + + + + + + + + + + + + + + + + ",
"k+k+k+k+k+k+k+k+k+k+k+k+k+k+k+k+k+",
"l+l+l+l+l+l+l+l+l+l+l+l+l+l+l+l+l+",
"m+n+o+p+q+r+s+t+u+v+w+x+y+z+A+B+m+",
"C+D+E+F+g+y G+H+I+J+K+L+M+N+O+P+C+",
"Q+R+S+e+y T+U+V+C W+X+Y+Z+`+ @.@Q+",
"+@@@4+j+#@O #@Q R S $@%@&@*@=@-@+@",
";@>@4+7+,@@.#.$.%.&.*.'@)@!@~@{@;@",
"]@^@/@(@{.].^./.(._.:.<.[.l _@:@]@",
"<@[@L. +}@|@1@2@3@4@5@6@7@8@L 9@<@",
"0@a@b@/@c@d@e@f@g@h@i@j@k@K J l@0@",
"m@n@o@.+p@q@r@s@g@t@u@v@w@K J x@m@",
"y@z@A@B@C@h.D@E@F@G@H@,.K k I@J@y@",
"K@L@M@B@N@,.l 9 O@O@P@k k x Q@R@K@",
"S@S@T@U@V@W@X@Y@Z@`@Z@ #u+.#U@+#S@",
"@#@#@#@#@#@#@#@#@#@#@#@#@#@#@#@#@#",
"h+h+h+h+h+h+h+h+h+h+h+h+h+h+h+h+h+",
"+ + + + + + + + + + + + + + + + + "};
