/* XPM */
static char * rolldownI_xpm[] = {
"17 38 288 2",
"  	c None",
". 	c #4D4D4D",
"+ 	c #333333",
"@ 	c #F3F3F3",
"# 	c #F5F5F5",
"$ 	c #F6F6F6",
"% 	c #F8F8F8",
"& 	c #FDFDFD",
"* 	c #FAFAFA",
"= 	c #FFFFFF",
"- 	c #F4F4F4",
"; 	c #F2F2F2",
"> 	c #ECECEC",
", 	c #EDEDED",
"' 	c #EFEFEF",
") 	c #E8E8E8",
"! 	c #E2E2E2",
"~ 	c #E1E1E1",
"{ 	c #E6E6E6",
"] 	c #EAEAEA",
"^ 	c #E7E7E7",
"/ 	c #E9E9E9",
"( 	c #EEEEEE",
"_ 	c #D4D4D4",
": 	c #C2C2C2",
"< 	c #B0B0B0",
"[ 	c #9D9D9D",
"} 	c #B5B5B5",
"| 	c #C8C8C8",
"1 	c #D2D2D2",
"2 	c #DDDDDD",
"3 	c #EBEBEB",
"4 	c #F0F0F0",
"5 	c #9B9B9B",
"6 	c #696969",
"7 	c #4E4E4E",
"8 	c #4B4B4B",
"9 	c #565656",
"0 	c #787878",
"a 	c #AEAEAE",
"b 	c #C9C9C9",
"c 	c #E3E3E3",
"d 	c #DFDFDF",
"e 	c #DADADA",
"f 	c #CBCBCB",
"g 	c #898989",
"h 	c #525252",
"i 	c #535353",
"j 	c #4F4F4F",
"k 	c #505050",
"l 	c #676767",
"m 	c #BCBCBC",
"n 	c #BEBEBE",
"o 	c #CECECE",
"p 	c #D6D6D6",
"q 	c #B6B6B6",
"r 	c #656565",
"s 	c #4C4C4C",
"t 	c #4A4A4A",
"u 	c #484848",
"v 	c #939393",
"w 	c #C3C3C3",
"x 	c #B1B1B1",
"y 	c #CFCFCF",
"z 	c #D5D5D5",
"A 	c #DCDCDC",
"B 	c #A4A4A4",
"C 	c #828282",
"D 	c #7D7D7D",
"E 	c #7C7C7C",
"F 	c #7B7B7B",
"G 	c #737373",
"H 	c #747474",
"I 	c #777777",
"J 	c #767676",
"K 	c #818181",
"L 	c #D3D3D3",
"M 	c #979797",
"N 	c #BDBDBD",
"O 	c #D1D1D1",
"P 	c #474747",
"Q 	c #949494",
"R 	c #8D8D8D",
"S 	c #929292",
"T 	c #919191",
"U 	c #5B5B5B",
"V 	c #838383",
"W 	c #C7C7C7",
"X 	c #ABABAB",
"Y 	c #424242",
"Z 	c #A6A6A6",
"` 	c #9F9F9F",
" .	c #A0A0A0",
"..	c #989898",
"+.	c #6A6A6A",
"@.	c #757575",
"#.	c #D7D7D7",
"$.	c #797979",
"%.	c #A5A5A5",
"&.	c #B7B7B7",
"*.	c #C0C0C0",
"=.	c #B4B4B4",
"-.	c #434343",
";.	c #9A9A9A",
">.	c #717171",
",.	c #444444",
"'.	c #ADADAD",
").	c #B8B8B8",
"!.	c #7E7E7E",
"~.	c #B9B9B9",
"{.	c #B3B3B3",
"].	c #9C9C9C",
"^.	c #454545",
"/.	c #8B8B8B",
"(.	c #7F7F7F",
"_.	c #D0D0D0",
":.	c #969696",
"<.	c #AFAFAF",
"[.	c #5A5A5A",
"}.	c #5D5D5D",
"|.	c #8C8C8C",
"1.	c #CACACA",
"2.	c #707070",
"3.	c #AAAAAA",
"4.	c #A8A8A8",
"5.	c #858585",
"6.	c #868686",
"7.	c #A2A2A2",
"8.	c #686868",
"9.	c #595959",
"0.	c #606060",
"a.	c #909090",
"b.	c #A1A1A1",
"c.	c #8A8A8A",
"d.	c #7A7A7A",
"e.	c #888888",
"f.	c #9E9E9E",
"g.	c #999999",
"h.	c #959595",
"i.	c #F6FAFE",
"j.	c #EFF4F7",
"k.	c #E9EDEF",
"l.	c #E6EAEC",
"m.	c #E4E7E9",
"n.	c #DFE2E4",
"o.	c #D5D8D9",
"p.	c #C1C3C4",
"q.	c #B6B8B9",
"r.	c #B2B4B5",
"s.	c #B4B5B6",
"t.	c #B3B5B5",
"u.	c #B8B9BA",
"v.	c #C0C2C3",
"w.	c #C2C4C5",
"x.	c #CACCCD",
"y.	c #D4D7D8",
"z.	c #E1E4E6",
"A.	c #E2E6E9",
"B.	c #DCDFE2",
"C.	c #D1D4D6",
"D.	c #B6B7B8",
"E.	c #858181",
"F.	c #847F7F",
"G.	c #8C8A8A",
"H.	c #8E8B90",
"I.	c #AAABAC",
"J.	c #BEC0C2",
"K.	c #C3C5C7",
"L.	c #BFC1C2",
"M.	c #D2D5D7",
"N.	c #DCDFE1",
"O.	c #D0D2D4",
"P.	c #B0B1B1",
"Q.	c #716E6D",
"R.	c #6E6C67",
"S.	c #63625B",
"T.	c #848380",
"U.	c #635E5B",
"V.	c #6D6B6A",
"W.	c #B1B2B3",
"X.	c #C3C5C6",
"Y.	c #C8C9CA",
"Z.	c #C9CBCC",
"`.	c #D5D8DB",
" +	c #C1C2C4",
".+	c #636160",
"++	c #5C5957",
"@+	c #5C5C5B",
"#+	c #62615B",
"$+	c #666362",
"%+	c #BFBFC0",
"&+	c #C4C5C6",
"*+	c #C7C8CA",
"=+	c #CFD2D4",
"-+	c #BEC0C1",
";+	c #9B8E62",
">+	c #8B7648",
",+	c #897B4C",
"'+	c #8B7646",
")+	c #8D7848",
"!+	c #8F7A4A",
"~+	c #897747",
"{+	c #837445",
"]+	c #8F8656",
"^+	c #C5C5C5",
"/+	c #C7C8C8",
"(+	c #C5C6C7",
"_+	c #C8CBCD",
":+	c #BCBEBF",
"<+	c #484330",
"[+	c #C4C076",
"}+	c #D4D166",
"|+	c #DCBF59",
"1+	c #DFC236",
"2+	c #DEB644",
"3+	c #D7B937",
"4+	c #B0AA32",
"5+	c #575664",
"6+	c #CDCDCD",
"7+	c #C7C8C9",
"8+	c #C2C4C6",
"9+	c #BABBBC",
"0+	c #A3A3A3",
"a+	c #57534E",
"b+	c #5D592C",
"c+	c #C7C767",
"d+	c #E4C12F",
"e+	c #DBB53A",
"f+	c #DAB62A",
"g+	c #C6AB28",
"h+	c #543F3C",
"i+	c #7A7D75",
"j+	c #C9CACB",
"k+	c #BBBDBF",
"l+	c #B9BABB",
"m+	c #88858B",
"n+	c #3A3136",
"o+	c #665B5F",
"p+	c #D7B643",
"q+	c #D7B728",
"r+	c #CDB628",
"s+	c #543E4B",
"t+	c #322B4A",
"u+	c #AFB2A6",
"v+	c #D8D8D8",
"w+	c #C8C9C9",
"x+	c #B5B7B7",
"y+	c #B7B9B9",
"z+	c #797772",
"A+	c #373133",
"B+	c #544143",
"C+	c #BCB63C",
"D+	c #4C3231",
"E+	c #3F3130",
"F+	c #8D8B85",
"G+	c #CCCCCC",
"H+	c #C4C5C5",
"I+	c #AEB0B0",
"J+	c #B0B2B2",
"K+	c #BABBBB",
"L+	c #BABABA",
"M+	c #AAACA2",
"N+	c #747579",
"O+	c #525065",
"P+	c #7D7D76",
"Q+	c #B4AFB2",
"R+	c #CFD0D0",
"S+	c #B8B9B9",
"T+	c #A8A9AA",
"U+	c #A9AAAB",
"V+	c #AEAFAF",
"W+	c #C4C4C4",
"X+	c #D9D9D9",
"Y+	c #B7B8B8",
"Z+	c #AFAFB0",
"`+	c #A1A2A3",
" @	c #A2A3A4",
".@	c #A6A7A8",
"+@	c #ACADAE",
"@@	c #B6B6B7",
"#@	c #BDBEBE",
"$@	c #C2C2C3",
"%@	c #C6C7C7",
"&@	c #C9CACA",
"*@	c #C0C0C1",
"=@	c #ABACAD",
"-@	c #A3A4A5",
";@	c #9B9B9C",
". . . . . . . . . . . . . . . . . ",
"+ + + + + + + + + + + + + + + + + ",
"@ @ # $ % # & * * = * @ % - ; $ - ",
"> > , ; - # ' ) ! ~ { ] ' , ^ > / ",
"{ / , # ( _ : < [ } | 1 2 3 ^ ^ { ",
"! 3 4 3 | 5 6 7 8 9 0 a b _ ~ c d ",
"e ) ^ f g h i j . k 9 l m n o d e ",
"p { d q r 8 s 8 t 8 u k v w x y z ",
"y A y B C D E F G H I J K L M N O ",
": d N B P v Q R S T v T U A V < W ",
"m y N X Y Y Z `  . ...+.@.#.$.%.n ",
"&.*.=.%.J -.Y .. .;.>.,.'.).!.B ~.",
"{.~.X ].Q l ^.,./.9 7 (._.!.C %.< ",
"< {.Z Q :.<.E [.h }.|.1.].2.|.%.3.",
"3.4.B Q 5.(.4.W A _.} 6.l D ;.Z 4.",
" .7.7.]./.(.8.}.9.U 0.6 C a.5 b.7.",
";.b.5 ].;.a.c.K d.K C e.S ;...f.[ ",
"[ [ [ [ [ g.M h.Q Q h.M g.[ [ [ [ ",
"+ + + + + + + + + + + + + + + + + ",
". . . . . . . . . . . . . . . . . ",
"+ + + + + + + + + + + + + + + + + ",
"i.i.i.i.i.i.i.i.i.i.i.i.i.i.i.i.i.",
"j.j.j.j.j.j.j.j.j.j.j.j.j.j.j.j.j.",
"k.l.m.n.o.p.q.r.s.t.u.v.w.x.y.z.k.",
"A.B.C.D.g.M g.E.F.G.H.I.J.K.L.M.A.",
"N.O.P.].M 6 Q.R.S.T.U.V.W.X.Y.Z.N.",
"`. +b.;.F .+++U @+#+J $+B %+&+*+`.",
"=+-+b.5 ;+>+,+'+)+!+~+{+]+^+/+(+=+",
"_+:+B  .<+[+}+|+1+2+3+4+5+1 6+7+_+",
"8+9+%.0+a+b+c+d+e+f+g+h+i+e #.j+8+",
"k+l+3.B m+n+o+p+q+r+s+t+u+d v+w+k+",
"x+y+).a Z z+A+B+C+D+E+F+G+d v+H+x+",
"I+J+K+m L+n M+N+O+P+Q+f d ~ R+S+I+",
"T+U+V+m W+f 1 X+p p 2 ~ ~ _.Y+Z+T+",
"`+`+ @.@+@@@#@$@%@&@%@*@s.=@.@-@`+",
";@;@;@;@;@;@;@;@;@;@;@;@;@;@;@;@;@",
"h.h.h.h.h.h.h.h.h.h.h.h.h.h.h.h.h.",
"+ + + + + + + + + + + + + + + + + "};
