/* XPM */
static char * titleAB_xpm[] = {
"19 19 20 1",
" 	c None",
".	c #4D4D4D",
"+	c #333333",
"@	c #F4F4F4",
"#	c #EAEAEA",
"$	c #E7E7E7",
"%	c #E3E3E3",
"&	c #DDDDDD",
"*	c #DADADA",
"=	c #D3D3D3",
"-	c #CCCCCC",
";	c #C6C6C6",
">	c #C0C0C0",
",	c #BFBFBF",
"'	c #B7B7B7",
")	c #B0B0B0",
"!	c #A9A9A9",
"~	c #A2A2A2",
"{	c #A1A1A1",
"]	c #9D9D9D",
"...................",
"+++++++++++++++++++",
"@@@@@@@@@@@@@@@@@@@",
"###################",
"$$$$$$$$$$$$$$$$$$$",
"%%%%%%%%%%%%%%%%%%%",
"&&&&&&&&&&&&&&&&&&&",
"*******************",
"===================",
"-------------------",
";;;;;;;;;;;;;;;;;;;",
">>>,,,,,,,,>>>>>>>>",
"'''''''''''''''''''",
")))))))))))))))))))",
"!!!!!!!!!!!!!!!!!!!",
"~~~{{{{{{{{~~~~~~~~",
"]]]]]]]]]]]]]]]]]]]",
"]]]]]]]]]]]]]]]]]]]",
"+++++++++++++++++++"};
