/* XPM */
static char * titleIM_xpm[] = {
"20 19 121 2",
"  	c None",
". 	c #4F4F4F",
"+ 	c #4E4E4E",
"@ 	c #4D4D4D",
"# 	c #323232",
"$ 	c #333333",
"% 	c #B7B7B7",
"& 	c #B6B6B6",
"* 	c #B8B6B9",
"= 	c #B2B0B3",
"- 	c #BAB8BB",
"; 	c #D7D5D8",
"> 	c #D8D6D9",
", 	c #C0BEC1",
"' 	c #D6D4D7",
") 	c #D9D7DA",
"! 	c #C1BFC2",
"~ 	c #E3E1E4",
"{ 	c #949494",
"] 	c #959396",
"^ 	c #99979A",
"/ 	c #B3B1B4",
"( 	c #D1CFD2",
"_ 	c #B9B7BA",
": 	c #9A989B",
"< 	c #B1AFB2",
"[ 	c #D5D3D6",
"} 	c #B6B4B7",
"| 	c #E1DFE2",
"1 	c #909090",
"2 	c #A1A1A1",
"3 	c #C8C8C8",
"4 	c #CBCBCB",
"5 	c #A0A0A0",
"6 	c #999999",
"7 	c #C7C7C7",
"8 	c #D0D0D0",
"9 	c #9C9C9C",
"0 	c #D6D6D6",
"a 	c #E9E9E9",
"b 	c #8D8D8D",
"c 	c #90928F",
"d 	c #9D9F9C",
"e 	c #C8CAC7",
"f 	c #BABCB9",
"g 	c #8F918E",
"h 	c #A1A3A0",
"i 	c #CCCECB",
"j 	c #B5B7B4",
"k 	c #A8AAA7",
"l 	c #D9DBD8",
"m 	c #E0E2DF",
"n 	c #8A8A8A",
"o 	c #ACACAC",
"p 	c #C3C3C3",
"q 	c #A9A9A9",
"r 	c #8B8B8B",
"s 	c #AEAEAE",
"t 	c #C4C4C4",
"u 	c #A8A8A8",
"v 	c #B5B5B5",
"w 	c #DDDDDD",
"x 	c #DEDEDE",
"y 	c #878787",
"z 	c #888888",
"A 	c #AFAFAF",
"B 	c #C1C1C1",
"C 	c #9E9E9E",
"D 	c #C0C0C0",
"E 	c #9F9F9F",
"F 	c #BBBBBB",
"G 	c #DBDBDB",
"H 	c #D8D8D8",
"I 	c #848484",
"J 	c #B0B0B0",
"K 	c #BABABA",
"L 	c #828282",
"M 	c #B9B9B9",
"N 	c #8F8F8F",
"O 	c #D4D4D4",
"P 	c #D3D3D3",
"Q 	c #818181",
"R 	c #808080",
"S 	c #B1B1B1",
"T 	c #858585",
"U 	c #7F7F7F",
"V 	c #CCCCCC",
"W 	c #7E7E7E",
"X 	c #7D7D7D",
"Y 	c #AAAAAA",
"Z 	c #ABABAB",
"` 	c #7C7C7C",
" .	c #C2C2C2",
"..	c #C5C5C5",
"+.	c #7A7A7A",
"@.	c #7B7B7B",
"#.	c #A2A2A2",
"$.	c #A5A5A5",
"%.	c #BCBCBC",
"&.	c #BFBFBF",
"*.	c #777777",
"=.	c #959595",
"-.	c #9D9D9D",
";.	c #787878",
">.	c #B8B8B8",
",.	c #747474",
"'.	c #737373",
").	c #979797",
"!.	c #717171",
"~.	c #929292",
"{.	c #919191",
"].	c #727272",
"^.	c #6E6E6E",
"/.	c #6C6C6C",
"(.	c #6B6B6B",
"_.	c #686868",
":.	c #797979",
"<.	c #6D6D6D",
"[.	c #666666",
"}.	c #656565",
"|.	c #606060",
". + . + . + . + @ @ @ @ @ @ @ @ @ @ @ @ ",
"# $ # $ # $ # $ $ $ $ $ $ $ $ $ $ $ $ $ ",
"% & % & % & % & * = - ; > , - ' ) ! * ~ ",
"{ { { { { { { { ] ^ / ( _ : < [ } ^ } | ",
"1 1 1 1 1 1 1 1 { 2 3 4 5 6 7 8 9 6 0 a ",
"b b b b b b b b c d e f g h i j c k l m ",
"n n n n n n n n n o p q r s t u n v w x ",
"y y y y y y y y z A B C y s D E n F G H ",
"I I I I I I I I I J K 1 L A M N y B O P ",
"Q Q Q Q Q Q Q Q R A S T U A S Q L p 4 V ",
"W W W W W W W W X Y Y R X Z Z ` R  ...t ",
"+.+.+.+.+.+.+.+.@.#.$.U @.#.$.W W %.B &.",
"*.*.*.*.*.*.*.*.*.=.-.U *.=.-.R ;.s >.>.",
",.,.,.,.,.,.,.,.'.r ).U '.r ).U !.2 A A ",
"!.!.!.!.!.!.!.!.!.` ~.L !.U {.W ].b o Y ",
"^.^.^.^.^.^.^.^./.,.z @.!.*.T W ^.U 2 2 ",
"(.(.(.(.(.(.(.(._.^.:.Q /._.W z <./.=.C ",
"(.(.(.(.(.(.(.(.[.}.}.I _.|._.R _.}./.9 ",
"$ $ $ $ $ $ $ $ $ $ $ $ $ $ $ $ $ $ $ $ "};
