/* XPM */
static char * titleAM_xpm[] = {
"20 19 205 2",
"  	c None",
". 	c #4D4D4D",
"+ 	c #333333",
"@ 	c #93ACD4",
"# 	c #94ADD5",
"$ 	c #93ACD5",
"% 	c #95ACD8",
"& 	c #93AAD6",
"* 	c #9AA4C8",
"= 	c #D1CBCD",
"- 	c #CED8DA",
"; 	c #A0B8DC",
"> 	c #A6ABD3",
", 	c #CFCCD7",
"' 	c #CDD7E3",
") 	c #AABDE5",
"! 	c #A3A6B9",
"~ 	c #D3D5E4",
"{ 	c #6382C6",
"] 	c #6886CE",
"^ 	c #6A87CB",
"/ 	c #A3B0D0",
"( 	c #D2CFD6",
"_ 	c #A7B3C9",
": 	c #6D8DC0",
"< 	c #99A7CE",
"[ 	c #D2D4E0",
"} 	c #A6B7D1",
"| 	c #6281BA",
"1 	c #AFB2C5",
"2 	c #DEE0EF",
"3 	c #6483C4",
"4 	c #6F8EC5",
"5 	c #BBC9D4",
"6 	c #C6C9D8",
"7 	c #8598C2",
"8 	c #7395C5",
"9 	c #B7C8DC",
"0 	c #C5CDD8",
"a 	c #849CC0",
"b 	c #6F93CD",
"c 	c #C9CDD6",
"d 	c #E5E8EF",
"e 	c #6080C1",
"f 	c #6583BF",
"g 	c #7F9BCA",
"h 	c #C2CBC6",
"i 	c #A9B8CD",
"j 	c #6382B8",
"k 	c #7B99BF",
"l 	c #C2CDCF",
"m 	c #A8B5C6",
"n 	c #6281B0",
"o 	c #7E9FCC",
"p 	c #D6DCDC",
"q 	c #E5E9E8",
"r 	c #5C7DBD",
"s 	c #6382B0",
"t 	c #8CA7C4",
"u 	c #C2C3BE",
"v 	c #91ABC6",
"w 	c #5984BB",
"x 	c #8DA5C1",
"y 	c #C4C4C2",
"z 	c #95A6C4",
"A 	c #5F82BC",
"B 	c #97AECD",
"C 	c #D9DFDD",
"D 	c #DCE1DD",
"E 	c #587AB9",
"F 	c #6180AE",
"G 	c #92ADCA",
"H 	c #C4BEC2",
"I 	c #7897B6",
"J 	c #4F81B6",
"K 	c #A0B2CA",
"L 	c #C4BBBC",
"M 	c #8091BD",
"N 	c #5A80C1",
"O 	c #A9B9D0",
"P 	c #D4D8D7",
"Q 	c #5577B5",
"R 	c #5A79B0",
"S 	c #ABADBA",
"T 	c #B9BAB2",
"U 	c #5D85B8",
"V 	c #5177B5",
"W 	c #B0ACBA",
"X 	c #BABABA",
"Y 	c #5E89B6",
"Z 	c #527AB5",
"` 	c #C2BDD3",
" .	c #D3D3D3",
"..	c #5174B1",
"+.	c #5877AD",
"@.	c #AAAEB9",
"#.	c #AFB0AB",
"$.	c #5880B3",
"%.	c #5278B6",
"&.	c #AFADB8",
"*.	c #B3B3B3",
"=.	c #557DAE",
"-.	c #5178B3",
";.	c #C6C4D2",
">.	c #CCCCCC",
",.	c #4E71AD",
"'.	c #5375A5",
").	c #A4ABB3",
"!.	c #A9A7AA",
"~.	c #5479AD",
"{.	c #4F76B1",
"].	c #AAAAB2",
"^.	c #ABABA9",
"/.	c #4F74A8",
"(.	c #4E75B0",
"_.	c #C3C6CB",
":.	c #C6C6C6",
"<.	c #4A6FA9",
"[.	c #4D71A1",
"}.	c #9DA6AD",
"|.	c #A9A4AB",
"1.	c #5276A6",
"2.	c #486FA8",
"3.	c #9FA2AB",
"4.	c #A4A6A3",
"5.	c #5172A5",
"6.	c #4C70AC",
"7.	c #B3BDBE",
"8.	c #C0C0C0",
"9.	c #466CA5",
"0.	c #486E9F",
"a.	c #8D9AA3",
"b.	c #A39EA5",
"c.	c #5576A1",
"d.	c #446BA2",
"e.	c #8F95A5",
"f.	c #9EA09D",
"g.	c #5675A3",
"h.	c #4A6EA8",
"i.	c #A2B0B3",
"j.	c #B7B7B7",
"k.	c #4369A1",
"l.	c #4269A2",
"m.	c #7C899A",
"n.	c #999299",
"o.	c #597A99",
"p.	c #426A9E",
"q.	c #7F859F",
"r.	c #959794",
"s.	c #5C7A9C",
"t.	c #486BA3",
"u.	c #8E9FAF",
"v.	c #B0B0B0",
"w.	c #3F669D",
"x.	c #3F65A4",
"y.	c #697993",
"z.	c #92898C",
"A.	c #5F7F94",
"B.	c #3F679A",
"C.	c #6D7697",
"D.	c #8B8F8E",
"E.	c #627E96",
"F.	c #43669C",
"G.	c #778AAA",
"H.	c #A9A9A9",
"I.	c #3B6399",
"J.	c #3B62A7",
"K.	c #5E6D8E",
"L.	c #908886",
"M.	c #618291",
"N.	c #3C6497",
"O.	c #616892",
"P.	c #878B8A",
"Q.	c #658292",
"R.	c #406196",
"S.	c #6578A2",
"T.	c #A2A2A2",
"U.	c #376094",
"V.	c #376095",
"W.	c #3A6397",
"X.	c #3B6498",
"Y.	c #767D87",
"Z.	c #738697",
"`.	c #506A8B",
" +	c #496187",
".+	c #72809A",
"++	c #77838F",
"@+	c #536981",
"#+	c #4A6698",
"$+	c #8A8E93",
"%+	c #9CA3A9",
"&+	c #375C8D",
"*+	c #827C7C",
"=+	c #7B8188",
"-+	c #566C86",
";+	c #496081",
">+	c #76747A",
",+	c #797E84",
"'+	c #576B84",
")+	c #48648A",
"!+	c #7F7E7F",
"~+	c #8E9397",
"{+	c #333538",
"]+	c #393F48",
"^+	c #444242",
". . . . . . . . . . . . . . . . . . . . ",
"+ + + + + + + + + + + + + + + + + + + + ",
"@ @ # # # $ $ @ % & * = - ; > , ' ) ! ~ ",
"{ { { { { { { { ] ^ / ( _ : < [ } | 1 2 ",
"{ { { { { { { { 3 4 5 6 7 8 9 0 a b c d ",
"e e e e e e e e f g h i j k l m n o p q ",
"r r r r r r r r s t u v w x y z A B C D ",
"E E E E E E E E F G H I J K L M N O p P ",
"Q Q Q Q Q Q Q Q R S T U V W X Y Z `  . .",
"................+.@.#.$.%.&.*.=.-.;.>.>.",
",.,.,.,.,.,.,.,.'.).!.~.{.].^./.(._.:.:.",
"<.<.<.<.<.<.<.<.[.}.|.1.2.3.4.5.6.7.8.8.",
"9.9.9.9.9.9.9.9.0.a.b.c.d.e.f.g.h.i.j.j.",
"k.k.k.k.k.k.k.k.l.m.n.o.p.q.r.s.t.u.v.v.",
"w.w.w.w.w.w.w.w.x.y.z.A.B.C.D.E.F.G.H.H.",
"I.I.I.I.I.I.I.I.J.K.L.M.N.O.P.Q.R.S.T.T.",
"U.U.V.V.V.V.V.U.W.X.Y.Z.`. +.+++@+#+$+%+",
"U.U.U.U.U.U.U.U.W.&+*+=+-+;+>+,+'+)+!+~+",
"+ + + + + + + + + + + + {+]+^++ + + + + "};
