/* XPM */
static char * titleAT_xpm[] = {
"19 19 21 1",
" 	c None",
".	c #4D4D4D",
"+	c #333333",
"@	c #93ACD4",
"#	c #94ADD5",
"$	c #93ACD5",
"%	c #95ACD8",
"&	c #6382C6",
"*	c #6080C1",
"=	c #5C7DBD",
"-	c #587AB9",
";	c #5577B5",
">	c #5174B1",
",	c #4E71AD",
"'	c #4A6FA9",
")	c #466CA5",
"!	c #4369A1",
"~	c #3F669D",
"{	c #3B6399",
"]	c #376094",
"^	c #376095",
"...................",
"+++++++++++++++++++",
"@@###$$@@###$$$$%%%",
"&&&&&&&&&&&&&&&&&&&",
"&&&&&&&&&&&&&&&&&&&",
"*******************",
"===================",
"-------------------",
";;;;;;;;;;;;;;;;;;;",
">>>>>>>>>>>>>>>>>>>",
",,,,,,,,,,,,,,,,,,,",
"'''''''''''''''''''",
")))))))))))))))))))",
"!!!!!!!!!!!!!!!!!!!",
"~~~~~~~~~~~~~~~~~~~",
"{{{{{{{{{{{{{{{{{{{",
"]]^^^^^]]^^^^^^^^^^",
"]]]]]]]]]]]]]]]]]]]",
"+++++++++++++++++++"};
